<svg width="24" height="24" viewBox="0 0 24 24" fill="none" xmlns="http://www.w3.org/2000/svg">
    <g clip-path="url(#clip0_4609_1665)">
    <path d="M12 24C18.6274 24 24 18.6274 24 12C24 5.37258 18.6274 0 12 0C5.37258 0 0 5.37258 0 12C0 18.6274 5.37258 24 12 24Z" fill="#EDBC04"/>
    <path d="M12.1566 8.3172L14.5654 10.7264C14.652 10.8131 14.7925 10.8131 14.8791 10.7264L16.1488 9.45647C16.2353 9.36989 16.2353 9.22941 16.1488 9.14284L12.1565 5.14972C12.07 5.06305 11.9294 5.06305 11.8428 5.14972L7.85208 9.14138C7.76545 9.22795 7.76545 9.36844 7.85208 9.45509L9.12174 10.725C9.20832 10.8116 9.3488 10.8116 9.43546 10.725L11.8428 8.3172C11.9296 8.23054 12.07 8.23054 12.1566 8.3172Z" fill="white"/>
    <path d="M6.42058 10.5732L5.1509 11.8432C5.06428 11.9298 5.06428 12.0702 5.1509 12.1569L6.42048 13.4267C6.5071 13.5134 6.6476 13.5134 6.73421 13.4267L8.0039 12.1568C8.09051 12.0702 8.09051 11.9297 8.0039 11.8432L6.73426 10.5733C6.6477 10.4866 6.50726 10.4866 6.42058 10.5732Z" fill="white"/>
    <path d="M12.1567 18.8504L16.1496 14.8566C16.2362 14.77 16.2362 14.6294 16.1494 14.5428L14.8792 13.2737C14.7925 13.1871 14.6521 13.1871 14.5654 13.2737L12.1567 15.6829C12.07 15.7696 11.9296 15.7696 11.843 15.6829L9.43536 13.2749C9.34879 13.1884 9.20856 13.1883 9.1219 13.2747L7.85035 14.5429C7.76352 14.6296 7.76341 14.7701 7.85013 14.8568L11.843 18.8504C11.9296 18.9371 12.07 18.9371 12.1567 18.8504Z" fill="white"/>
    <path d="M17.2663 10.5737L15.9966 11.8437C15.91 11.9303 15.91 12.0708 15.9966 12.1574L17.2663 13.4273C17.3528 13.514 17.4933 13.514 17.58 13.4273L18.8497 12.1574C18.9362 12.0707 18.9362 11.9302 18.8497 11.8437L17.58 10.5737C17.4933 10.4871 17.3529 10.4871 17.2663 10.5737Z" fill="white"/>
    <path d="M13.4506 11.8432L12.1568 10.5491C12.0702 10.4625 11.9296 10.4625 11.8431 10.5491L10.5493 11.8432C10.4627 11.9297 10.4627 12.0702 10.5493 12.1568L11.8431 13.4509C11.9296 13.5376 12.0702 13.5376 12.1568 13.4509L13.4506 12.1568C13.5371 12.0701 13.5371 11.9297 13.4506 11.8432Z" fill="white"/>
    </g>
    <defs>
    <clipPath id="clip0_4609_1665">
    <rect width="24" height="24" fill="white"/>
    </clipPath>
    </defs>
    </svg>
    