<svg width="41" height="40" viewBox="0 0 41 40" fill="none" xmlns="http://www.w3.org/2000/svg">
    <g clip-path="url(#clip0_4536_1423)">
    <path d="M25.5827 14.7449C25.9323 15.0946 26.3777 15.3328 26.8626 15.4293C27.3476 15.5258 27.8502 15.4763 28.307 15.2871C28.7638 15.0978 29.1543 14.7773 29.429 14.3661C29.7037 13.9548 29.8503 13.4713 29.8503 12.9767C29.8503 12.4821 29.7037 11.9986 29.429 11.5874C29.1543 11.1762 28.7638 10.8557 28.307 10.6664C27.8502 10.4771 27.3476 10.4276 26.8626 10.5241C26.3777 10.6207 25.9323 10.8589 25.5827 11.2086C25.1139 11.6776 24.8506 12.3136 24.8506 12.9767C24.8506 13.6399 25.1139 14.2759 25.5827 14.7449Z" fill="#0AAFD4"/>
    <path fill-rule="evenodd" clip-rule="evenodd" d="M30.7139 26.3648C37.3217 20.7421 39.6369 14.9065 40.1933 10.2735C40.433 8.33024 40.3771 6.36192 40.0274 4.43545C39.9222 3.86121 39.7871 3.29284 39.6228 2.73264C39.5839 2.61496 39.5534 2.51612 39.5275 2.42903L39.471 2.24781C39.4416 2.20033 39.4183 2.14932 39.4016 2.096C39.3981 2.09221 39.3953 2.08783 39.3934 2.08306C39.2929 1.82609 39.1389 1.59343 38.9416 1.40053C38.7465 1.21389 38.5204 1.06258 38.2734 0.953349C38.2698 0.953731 38.2661 0.953296 38.2626 0.952074C38.2592 0.950853 38.256 0.948877 38.2534 0.946288L38.177 0.912161L38.1005 0.878035C37.977 0.836847 37.8123 0.781539 37.6205 0.727407C37.41 0.6568 37.1558 0.58737 36.8629 0.516763L36.5724 0.449686L36.2865 0.388493L35.9053 0.312003C33.9785 -0.0388154 32.0096 -0.0955526 30.0657 0.143723C25.4342 0.699164 19.5757 3.01625 13.9655 9.61211L10.9645 9.01195C9.75515 8.77277 8.50129 8.91969 7.37998 9.43196C6.25867 9.94423 5.3266 10.796 4.71541 11.8668L0.592121 19.0899C0.427598 19.3754 0.338655 19.6982 0.333714 20.0277C0.328773 20.3572 0.407999 20.6825 0.563888 20.9728C0.715003 21.263 0.938168 21.5095 1.21195 21.6885C1.48574 21.8676 1.80095 21.9733 2.12732 21.9954V22.0095L10.3986 22.6462L17.6723 29.9163L18.3087 38.1903C18.3344 38.5176 18.4415 38.8333 18.6203 39.1087C18.799 39.3841 19.0437 39.6105 19.3322 39.7672C19.6224 39.9231 19.9476 40.0023 20.277 39.9974C20.6064 39.9925 20.929 39.9035 21.2144 39.7389H21.2427L28.4787 35.6049C29.5479 34.9917 30.398 34.0586 30.9091 32.9367C31.4203 31.8149 31.5667 30.5609 31.328 29.3515H31.3127L30.7139 26.3648ZM27.3388 24.0677L27.327 24.0524C33.856 18.8228 35.8465 13.5932 36.303 9.78745C36.4973 8.23595 36.4552 6.66394 36.1783 5.12504C36.1265 4.82143 36.0606 4.55666 36.0089 4.33307C35.7818 4.27776 35.5124 4.21539 35.2101 4.15655C33.667 3.88051 32.0917 3.83372 30.5351 4.01769C26.7318 4.47428 21.4768 6.46657 16.2618 12.9836L16.2441 12.9706C16.0206 13.246 15.7268 13.4558 15.3938 13.5779C15.0608 13.6999 14.701 13.7296 14.3525 13.6638V13.6744L10.2033 12.8447C9.7105 12.7457 9.19849 12.8419 8.77517 13.113C8.50943 13.2832 8.28772 13.5139 8.12815 13.7862L5.52712 18.3415L11.4221 18.7945C11.8857 18.8346 12.3209 19.0352 12.6526 19.3618L20.9497 27.6639C21.1271 27.8422 21.2682 28.0532 21.365 28.2853C21.4466 28.4799 21.4978 28.6859 21.5168 28.896L21.972 34.8141L26.5376 32.2028C26.8936 31.9989 27.177 31.689 27.3485 31.3162C27.5199 30.9435 27.5708 30.5265 27.4941 30.1234H27.4788L26.6494 25.9729C26.5785 25.6226 26.6053 25.2596 26.7269 24.9236C26.8485 24.5875 27.0602 24.2914 27.3388 24.0677Z" fill="#0AAFD4"/>
    <path d="M1.43549 35.3504C1.78841 33.7029 3.02364 31.2399 6.11169 27.3848L8.71271 29.4712C5.96934 32.8945 5.04116 34.8267 4.75883 35.7929C5.72936 35.5104 7.66101 34.582 11.0843 31.8377L13.1689 34.4396C9.31503 37.5286 6.85635 38.7642 5.20468 39.1173C4.4797 39.3036 3.71618 39.275 3.00717 39.0349C2.7375 38.9343 2.48748 38.7874 2.26839 38.6007C2.21167 38.5521 2.15748 38.5007 2.10604 38.4465L2.06369 38.4053L1.98017 38.3171L1.94605 38.2888C1.86178 38.1906 1.78583 38.0855 1.71901 37.9746C1.63713 37.8397 1.56783 37.6975 1.51196 37.5498C1.27385 36.8396 1.24728 36.0754 1.43549 35.3504Z" fill="#A84DFF"/>
    </g>
    <defs>
    <clipPath id="clip0_4536_1423">
    <rect width="40" height="40" fill="white" transform="translate(0.333496)"/>
    </clipPath>
    </defs>
    </svg>
    