<svg width="40" height="40" viewBox="0 0 40 40" fill="none" xmlns="http://www.w3.org/2000/svg">
    <g clip-path="url(#clip0_4536_1412)">
    <path d="M20 37.2116C29.5253 37.2116 37.247 29.4899 37.247 19.9646C37.247 10.4393 29.5253 2.71753 20 2.71753C10.4747 2.71753 2.75293 10.4393 2.75293 19.9646C2.75293 29.4899 10.4747 37.2116 20 37.2116Z" stroke="#06AFD3" stroke-width="4.70588" stroke-miterlimit="10"/>
    <path d="M16.4705 19.4471C16.3294 15.7177 16.8823 13.2471 20.0588 13.2471C23.2352 13.2471 23.5882 15.7059 23.4941 19.2353" stroke="#A84DFF" stroke-width="2.35294" stroke-miterlimit="10"/>
    <path d="M23.0707 19.2354H16.9177C15.9171 19.2354 15.106 20.0465 15.106 21.0471V24.8589C15.106 25.8595 15.9171 26.6706 16.9177 26.6706H23.0707C24.0713 26.6706 24.8824 25.8595 24.8824 24.8589V21.0471C24.8824 20.0465 24.0713 19.2354 23.0707 19.2354Z" stroke="#A84DFF" stroke-width="2.35294" stroke-miterlimit="10"/>
    <path d="M19.9292 22.6943V24.5767" stroke="#A84DFF" stroke-width="0.882353" stroke-linecap="round" stroke-linejoin="round"/>
    <path d="M19.9294 23.6117C20.4362 23.6117 20.847 23.2008 20.847 22.694C20.847 22.1872 20.4362 21.7764 19.9294 21.7764C19.4226 21.7764 19.0117 22.1872 19.0117 22.694C19.0117 23.2008 19.4226 23.6117 19.9294 23.6117Z" fill="#A84DFF"/>
    </g>
    <defs>
    <clipPath id="clip0_4536_1412">
    <rect width="40" height="40" fill="white"/>
    </clipPath>
    </defs>
    </svg>
    