<svg width="41" height="40" viewBox="0 0 41 40" fill="none" xmlns="http://www.w3.org/2000/svg">
    <g clip-path="url(#clip0_4536_1432)">
    <path d="M34.3252 23.0002V18.1885" stroke="#A84DFF" stroke-width="3.52941" stroke-miterlimit="10"/>
    <path d="M25.5723 33.0468L31.2664 30.0586" stroke="#A84DFF" stroke-width="3.52941" stroke-miterlimit="10"/>
    <path d="M6.45482 18.6353L6.396 22.5294" stroke="#A84DFF" stroke-width="3.52941" stroke-miterlimit="10"/>
    <path d="M11.0547 30.2002L15.89 32.8002" stroke="#A84DFF" stroke-width="3.52941" stroke-miterlimit="10"/>
    <path d="M11.0547 11.647L16.2782 8.88232" stroke="#A84DFF" stroke-width="3.52941" stroke-miterlimit="10"/>
    <path d="M25.0312 9.01172L29.9489 11.7764" stroke="#A84DFF" stroke-width="3.52941" stroke-miterlimit="10"/>
    <path d="M2.04297 10.2707L6.4665 13.0119L11.243 10.2707L6.57238 7.71777L2.04297 10.2707Z" stroke="#0AAFD4" stroke-width="2.35294" stroke-linejoin="round"/>
    <path d="M2.04297 10.2705V15.6352L6.50179 18.4117L6.59591 13.0117L2.04297 10.2705Z" stroke="#0AAFD4" stroke-width="2.35294" stroke-linejoin="round"/>
    <path d="M11.2431 10.2705V15.3882L6.50195 18.4117L6.69019 13.0117L11.2431 10.2705Z" stroke="#0AAFD4" stroke-width="2.35294" stroke-linejoin="round"/>
    <path d="M16.043 3.75289L20.4665 6.50583L25.243 3.75289L20.5841 1.19995L16.043 3.75289Z" stroke="#0AAFD4" stroke-width="2.35294" stroke-linejoin="round"/>
    <path d="M16.043 3.75293V9.1294L20.5018 11.9059L20.5959 6.50587L16.043 3.75293Z" stroke="#0AAFD4" stroke-width="2.35294" stroke-linejoin="round"/>
    <path d="M25.2431 3.75293V8.87058L20.502 11.9059L20.6902 6.50587L25.2431 3.75293Z" stroke="#0AAFD4" stroke-width="2.35294" stroke-linejoin="round"/>
    <path d="M29.855 10.2234L34.2903 12.9763L39.0667 10.2234L34.3962 7.67041L29.855 10.2234Z" stroke="#0AAFD4" stroke-width="2.35294" stroke-linejoin="round"/>
    <path d="M29.855 10.2236V15.5883L34.3256 18.3648L34.4197 12.9766L29.855 10.2236Z" stroke="#0AAFD4" stroke-width="2.35294" stroke-linejoin="round"/>
    <path d="M39.0664 10.2236V15.3413L34.3252 18.3648L34.5017 12.9766L39.0664 10.2236Z" stroke="#0AAFD4" stroke-width="2.35294" stroke-linejoin="round"/>
    <path d="M29.9487 25.0354L34.384 27.7883L39.1605 25.0354L34.4899 22.4824L29.9487 25.0354Z" stroke="#0AAFD4" stroke-width="2.35294" stroke-linejoin="round"/>
    <path d="M29.9487 25.0352V30.3999L34.4193 33.1763L34.5134 27.7881L29.9487 25.0352Z" stroke="#0AAFD4" stroke-width="2.35294" stroke-linejoin="round"/>
    <path d="M39.1606 25.0352V30.1528L34.4194 33.1763L34.5959 27.7881L39.1606 25.0352Z" stroke="#0AAFD4" stroke-width="2.35294" stroke-linejoin="round"/>
    <path d="M16.1372 30.6589L20.5607 33.4001L25.3372 30.6589L20.6784 28.0942L16.1372 30.6589Z" stroke="#0AAFD4" stroke-width="2.35294" stroke-linejoin="round"/>
    <path d="M16.1372 30.6587V36.0234L20.596 38.7999L20.6901 33.3999L16.1372 30.6587Z" stroke="#0AAFD4" stroke-width="2.35294" stroke-linejoin="round"/>
    <path d="M25.3369 30.6587V35.7763L20.5957 38.7999L20.7839 33.3999L25.3369 30.6587Z" stroke="#0AAFD4" stroke-width="2.35294" stroke-linejoin="round"/>
    <path d="M1.85498 25.0822L6.29028 27.8352L11.055 25.0822L6.39616 22.5293L1.85498 25.0822Z" stroke="#0AAFD4" stroke-width="2.35294" stroke-linejoin="round"/>
    <path d="M1.85498 25.0825V30.4472L6.3138 33.2355L6.40792 27.8355L1.85498 25.0825Z" stroke="#0AAFD4" stroke-width="2.35294" stroke-linejoin="round"/>
    <path d="M11.0547 25.0825V30.2002L6.31348 33.2355L6.50171 27.8355L11.0547 25.0825Z" stroke="#0AAFD4" stroke-width="2.35294" stroke-linejoin="round"/>
    </g>
    <defs>
    <clipPath id="clip0_4536_1432">
    <rect width="40" height="40" fill="white" transform="translate(0.666504)"/>
    </clipPath>
    </defs>
    </svg>
    