<svg width="48" height="48" viewBox="0 0 48 48" fill="none" xmlns="http://www.w3.org/2000/svg">
<g filter="url(#filter0_b_4731_287)">
<rect width="48" height="48" rx="12" fill="white" fill-opacity="0.06"/>
<rect x="0.5" y="0.5" width="47" height="47" rx="11.5" stroke="url(#paint0_linear_4731_287)"/>
<g clip-path="url(#clip0_4731_287)">
<path d="M31.875 18.7078C31.875 20.1984 30.6984 21.3328 29.25 21.3328C27.8016 21.3328 26.625 20.1984 26.625 18.7078C26.625 17.3015 27.8016 16.0828 29.25 16.0828C30.6984 16.0828 31.875 17.3015 31.875 18.7078ZM29.25 19.8328C29.8734 19.8328 30.375 19.3734 30.375 18.7078C30.375 18.1265 29.8734 17.5828 29.25 17.5828C28.6266 17.5828 28.125 18.1265 28.125 18.7078C28.125 19.3734 28.6266 19.8328 29.25 19.8328ZM28.3406 33.5437L23.5875 35.9203C23.3531 36.0375 23.0766 36.0234 22.8562 35.8875C22.6359 35.7515 22.5 35.5078 22.5 35.25V29.8734C22.5 28.7109 22.0406 27.6 21.2203 26.7797C20.4 25.9593 19.2891 25.5 18.1266 25.5H12.75C12.4898 25.5 12.2487 25.364 12.112 25.1437C11.9754 24.9234 11.9629 24.6468 12.0792 24.4125L14.4572 19.6593C14.9653 18.6422 16.0041 17.9578 17.1422 17.9578H21.7031C25.4484 11.8245 31.1953 11.5996 34.6828 12.2463C35.2312 12.3473 35.6531 12.7711 35.7516 13.3158C36.3984 16.8047 36.1734 22.5515 30 26.2547V30.8578C30 31.9968 29.3578 33.0328 28.3406 33.5437ZM23.4094 27.3047C29.1422 25.8937 31.9359 23.3484 33.2766 20.9484C34.6594 18.4406 34.6594 15.7265 34.2984 13.7011C32.2734 13.3429 29.5594 13.342 27.0516 14.7215C24.6094 16.065 22.1062 18.8578 20.6953 24.5906C21.2766 24.8718 21.8156 25.2515 22.2797 25.7203C22.7484 26.1843 23.1281 26.7234 23.4094 27.3047ZM24 34.0359L27.6703 32.1609C28.1812 31.9453 28.5 31.4297 28.5 30.8578V27.1031C27.1875 27.7359 25.6641 28.289 23.8875 28.6922C23.9625 29.1047 24 29.4843 24 29.8734V34.0359ZM19.2656 24.1125C19.7109 22.3359 20.2641 20.7703 20.8969 19.4578H17.1422C16.5722 19.4578 16.0528 19.8187 15.7987 20.3297L13.9636 24H18.1266C18.4734 24 18.8953 24.0375 19.2656 24.1125ZM19.8047 34.0312C17.4844 36.3515 12.0223 35.9765 12.0223 35.9765C12.0223 35.9765 11.6477 30.4734 13.9678 28.1953C15.5798 26.5828 18.1922 26.5828 19.8047 28.1953C21.4172 29.8078 21.4172 32.4187 19.8047 34.0312ZM18.7453 29.2547C17.6766 28.2281 16.0547 28.2281 15.0286 29.2547C14.2523 30.0328 13.8056 31.5234 13.6144 33.1312C13.5567 33.6234 13.5262 34.0828 13.5117 34.4906C13.9153 34.4718 14.3784 34.4437 14.8669 34.3875C16.4761 34.1953 17.9672 33.7453 18.7453 32.9718C19.7719 31.9453 19.7719 30.2812 18.7453 29.2547Z" fill="white"/>
</g>
</g>
<defs>
<filter id="filter0_b_4731_287" x="-4" y="-4" width="56" height="56" filterUnits="userSpaceOnUse" color-interpolation-filters="sRGB">
<feFlood flood-opacity="0" result="BackgroundImageFix"/>
<feGaussianBlur in="BackgroundImageFix" stdDeviation="2"/>
<feComposite in2="SourceAlpha" operator="in" result="effect1_backgroundBlur_4731_287"/>
<feBlend mode="normal" in="SourceGraphic" in2="effect1_backgroundBlur_4731_287" result="shape"/>
</filter>
<linearGradient id="paint0_linear_4731_287" x1="0" y1="24" x2="48" y2="24" gradientUnits="userSpaceOnUse">
<stop stop-color="#EF40EA"/>
<stop offset="1" stop-color="#12DEF6"/>
</linearGradient>
<clipPath id="clip0_4731_287">
<rect width="24" height="24" fill="white" transform="translate(12 12)"/>
</clipPath>
</defs>
</svg>
