<svg width="111" height="46" viewBox="0 0 111 46" fill="none" xmlns="http://www.w3.org/2000/svg">
<g clip-path="url(#clip0_4731_498)">
<path d="M11.6474 34.697C11.3519 34.697 11.081 34.5246 10.9333 34.2537L0.0735357 12.5588C-0.0988412 12.1648 0.0489104 11.697 0.46754 11.5C0.836919 11.3276 1.3048 11.4753 1.5018 11.8447L11.6474 32.1359L21.9408 11.8201C22.1132 11.4261 22.581 11.2537 22.975 11.4261C23.369 11.5985 23.5414 12.0663 23.369 12.4603C23.369 12.485 23.3444 12.5096 23.3444 12.5342L12.3369 34.2291C12.2138 34.5246 11.9429 34.697 11.6474 34.697Z" fill="white"/>
<path d="M51.7125 34.5493C51.2693 34.5493 50.9245 34.2046 50.9245 33.7613V22.2859H67.8421C70.3046 22.2859 72.2992 20.045 72.2992 17.5825C72.2992 15.12 70.3046 13.1253 67.8667 13.1253H51.7125C51.2693 13.15 50.8999 12.8052 50.8753 12.3866C50.8506 11.9433 51.1954 11.5739 51.614 11.5493C51.6386 11.5493 51.6633 11.5493 51.7125 11.5493H67.8421C71.1665 11.5493 73.8753 14.2581 73.8753 17.5825C73.8753 20.9069 71.1665 23.8619 67.8421 23.8619H52.5005V33.7859C52.5005 34.2046 52.1558 34.5493 51.7125 34.5493Z" fill="white"/>
<path d="M43.1923 34.6972H28.0478C27.6045 34.6972 27.2598 34.3524 27.2598 33.9092C27.2598 33.4659 27.6045 33.1212 28.0478 33.1212H43.1923C45.7533 33.1212 47.8219 31.0526 47.8219 28.4916C47.8219 25.9306 45.7533 23.8621 43.1923 23.8621H33.4653C30.0424 23.8621 27.2598 21.0794 27.2598 17.6565C27.2598 14.2336 30.0424 11.4509 33.4653 11.4509H48.6099C49.0531 11.4509 49.3979 11.7957 49.3979 12.2389C49.3979 12.6822 49.0531 13.0269 48.6099 13.0269H33.4653C30.9043 13.0269 28.8358 15.0955 28.8358 17.6565C28.8358 20.2175 30.9043 22.286 33.4653 22.286H43.1923C46.6152 22.286 49.3979 25.0687 49.3979 28.5162C49.3979 31.9145 46.6152 34.6972 43.1923 34.6972Z" fill="white"/>
<path d="M24.9201 34.5493C24.4769 34.5493 24.1321 34.2045 24.1321 33.7613V12.3373C24.1075 11.894 24.4522 11.5246 24.8709 11.5C25.2895 11.4754 25.6835 11.8202 25.7081 12.2388C25.7081 12.2634 25.7081 12.288 25.7081 12.3373V33.7613C25.7081 34.2045 25.3634 34.5493 24.9201 34.5493Z" fill="white"/>
<path d="M110.986 3.52149C111.01 3.89087 110.862 4.26025 110.592 4.53113C110.37 4.75276 110.198 4.94976 110.001 5.14676C109.804 5.34376 109.557 5.49151 109.286 5.56539C109.163 5.61464 109.065 5.66389 108.966 5.76239C108.474 6.13177 108.006 6.50115 107.538 6.89515C107.07 7.28916 106.627 7.68316 106.159 8.05254C105.987 8.15104 105.839 8.27417 105.74 8.44655C105.445 8.6928 105.174 8.91443 104.903 9.16068C104.632 9.40693 104.337 9.65318 104.017 9.87481C103.623 10.2688 103.229 10.6382 102.835 11.0322C102.441 11.4016 101.997 11.7956 101.579 12.1896L101.234 12.5343C101.111 12.6328 101.012 12.756 100.889 12.8545L99.8303 13.8395C99.4855 14.1596 99.1408 14.4551 98.7714 14.7752C98.7468 14.7999 98.7221 14.8245 98.7221 14.8245C98.7221 14.8245 98.6975 14.8245 98.6729 14.8737C98.4266 15.3416 98.0819 15.7356 97.6632 16.0311C97.2446 16.3513 96.8752 16.6714 96.5059 17.0408L96.3581 17.1885C96.3089 17.2378 96.2842 17.287 96.235 17.3363C96.1857 17.4594 96.1365 17.5579 96.038 17.6564C95.9395 17.7549 95.8163 17.8041 95.6932 17.8041C95.4716 17.878 95.2746 18.0012 95.1268 18.1982C94.9545 18.3459 94.856 18.5183 94.8067 18.7399C94.8313 19.0108 94.8806 19.3063 94.9791 19.5525C95.0776 19.7988 95.1268 20.0697 95.1268 20.3406C95.1515 20.4637 95.1761 20.5868 95.2007 20.6607C95.2253 20.7592 95.2253 20.8577 95.2253 20.9562C95.1268 21.2271 95.1761 21.5472 95.3731 21.7688C95.3977 21.8181 95.4223 21.8673 95.447 21.9166C95.4716 21.9658 95.4962 22.0151 95.4962 22.0643C95.447 22.3598 95.4962 22.68 95.6193 22.9508C95.7425 23.2463 95.7917 23.5665 95.7425 23.862C95.7178 24.0836 95.7425 24.3298 95.8656 24.5268C95.9641 24.6992 96.0626 24.8962 96.1857 25.1179C96.235 25.2656 96.3089 25.438 96.3581 25.6104C96.432 25.7581 96.4566 25.9305 96.4566 26.1029C96.4812 26.5707 96.5797 27.014 96.7275 27.4326C96.8752 27.8759 97.023 28.2945 97.1461 28.7378C97.2692 29.0579 97.3677 29.4273 97.3924 29.772C97.417 30.1168 97.3185 30.4615 97.1215 30.757C97.1707 30.9048 97.2446 31.0033 97.3677 31.0033C97.4909 31.0033 97.5894 31.0279 97.7125 31.0525C97.7864 31.1018 97.8602 31.1264 97.9341 31.2003C98.0326 31.2742 98.0819 31.3234 98.0819 31.3727C98.0326 31.6682 98.0573 31.9391 98.1804 32.2099C98.3035 32.4808 98.402 32.7517 98.4512 33.0472C98.5005 33.3427 98.5498 33.5889 98.599 33.8352C98.6483 34.1061 98.7714 34.377 98.8945 34.6232C98.9438 34.6971 98.9684 34.7956 98.9438 34.8941C98.9191 34.9926 98.9191 35.0911 98.9191 35.2142C98.9191 35.8052 98.993 36.3716 99.1654 36.938C99.3378 37.5044 99.5594 38.0461 99.8549 38.5633C99.978 38.908 100.101 39.2281 100.249 39.5729C100.397 39.9176 100.52 40.2624 100.692 40.6318C100.717 40.681 101.062 41.1735 101.012 41.2967C100.865 41.3459 100.717 41.3459 100.569 41.3213C100.421 41.272 100.298 41.2228 100.15 41.1489C99.584 40.7795 99.0669 40.3363 98.6236 39.8191C98.1804 39.302 97.7864 38.7603 97.4416 38.1692C97.1954 37.7752 96.9737 37.3812 96.7521 36.9872C96.5305 36.5932 96.2842 36.1992 96.0872 35.8052C95.7917 35.3373 95.5455 34.8695 95.2992 34.377C95.053 33.8845 94.8313 33.4166 94.6097 32.9487C94.3635 32.4316 94.1665 31.8898 93.9941 31.3234C93.8217 30.757 93.6247 30.2399 93.4031 29.6982C93.2553 29.2795 93.0829 28.8855 92.9352 28.4915C92.7874 28.0975 92.6397 27.7035 92.5166 27.2849C92.3934 26.8662 92.2703 26.5215 92.1718 26.1275C92.0733 25.7335 91.9502 25.3641 91.8517 24.9701C91.7778 24.7731 91.6547 24.4776 91.4577 24.0836C91.3099 23.7635 91.1129 23.468 90.8667 23.1971C90.8174 23.2956 90.7682 23.3695 90.6943 23.4433C90.6204 23.4926 90.5958 23.5665 90.5712 23.665C90.4727 23.8127 90.3495 23.9605 90.2264 24.1082C90.1033 24.256 89.9555 24.3545 89.7832 24.453C89.3892 24.7239 89.0198 25.0686 88.7243 25.4626C88.6504 25.6596 88.5026 25.8074 88.3056 25.9059C88.1579 25.9797 87.9855 26.0536 87.8131 26.1275C87.7639 26.2506 87.7146 26.3984 87.6654 26.5461C87.6161 26.6939 87.5423 26.817 87.4191 26.9155C87.1975 27.211 87.0005 27.4819 86.7542 27.7774C86.508 28.0729 86.2617 28.3438 86.0155 28.6393C85.5722 29.2303 85.1044 29.8459 84.6365 30.4369C84.144 31.0525 83.6761 31.6436 83.2082 32.2592C82.962 32.6286 82.7403 32.9487 82.4941 33.2688C82.2478 33.589 82.0016 33.9091 81.7553 34.2538C81.7061 34.3277 81.6568 34.377 81.6322 34.4755C81.6076 34.5493 81.5583 34.5986 81.4844 34.6478C81.2874 34.6971 81.1151 34.7956 80.9919 34.9433C80.8688 35.0911 80.7457 35.2142 80.6226 35.362C80.3271 35.7067 80.0315 36.1007 79.7853 36.4947C79.539 36.8887 79.2435 37.2335 78.9234 37.5536C78.7757 37.726 78.6772 37.923 78.6033 38.12C78.5294 38.317 78.4309 38.5386 78.3324 38.711C78.0862 39.1543 77.8645 39.5975 77.6429 40.0654C77.4213 40.5333 77.1258 40.9519 76.7564 41.3213C76.6825 41.4444 76.6086 41.5675 76.5594 41.6907C76.5101 41.8384 76.4363 41.9615 76.3624 42.1093C76.2393 42.3802 76.19 42.651 76.2146 42.9465C76.2393 43.2174 76.1654 43.4883 76.0669 43.7346C75.993 43.8084 75.9191 43.9069 75.9191 44.0054C75.8699 44.3009 75.8453 44.5964 75.8453 44.8919C75.8453 45.1875 75.8206 45.5076 75.796 45.8523L75.7221 46.0001C75.5005 46.0001 75.2789 45.9755 75.0572 45.9262C74.8356 45.8277 74.6386 45.6553 74.5647 45.4091C74.22 44.7688 73.9737 44.0547 73.8752 43.3159C73.7767 42.5772 73.8014 41.8138 73.9245 41.075C74.0722 40.3609 74.2446 39.696 74.4416 39.0311C74.6386 38.3416 74.8849 37.6767 75.1557 37.0119C75.3774 36.4209 75.6729 35.8298 76.0176 35.2881C76.3624 34.7217 76.6825 34.1553 76.9534 33.5643C77.0026 33.4412 77.0765 33.2934 77.1258 33.1703C77.1996 33.0226 77.2735 32.8994 77.372 32.7763C77.5937 32.4069 77.7906 32.0622 78.0369 31.7421C78.2832 31.4219 78.5048 31.1018 78.751 30.7817C78.8495 30.6832 78.9234 30.56 78.9973 30.4369L79.145 30.1168C79.2435 29.9937 79.342 29.8705 79.4159 29.7228C79.4898 29.5997 80.7457 27.802 80.8442 27.6789C81.2136 27.8513 81.4106 27.999 81.4352 28.1221C81.4598 28.2453 80.2039 30.0675 79.933 30.2645L79.7114 30.4862C79.6375 30.5354 79.6129 30.6093 79.5883 30.7078C79.5144 30.9294 79.4159 31.1264 79.2435 31.2988C79.0958 31.4712 78.948 31.6436 78.751 31.8652C78.6772 31.9391 78.6525 32.0129 78.6279 32.1114C78.5787 32.2099 78.5048 32.3084 78.4063 32.3823C77.8399 33.2934 77.2243 34.18 76.5348 34.9926C76.4855 35.0665 76.4363 35.165 76.4363 35.2635C76.4363 35.362 76.387 35.4605 76.3378 35.5343C76.2885 35.5836 76.2639 35.6328 76.2639 35.6821C76.2639 35.7313 76.2393 35.8052 76.19 35.8298C75.8699 36.1746 75.6482 36.6179 75.5744 37.0857C75.4759 37.4305 75.3528 37.7506 75.1557 38.0461C74.9587 38.3416 74.811 38.6618 74.6632 39.0065C74.5894 39.3266 74.5155 39.6468 74.4416 39.9669C74.3677 40.3116 74.3924 40.6564 74.4909 41.0012C74.5401 40.9273 74.5894 40.8534 74.6386 40.7795C74.6879 40.7057 74.7371 40.6318 74.7617 40.5579C74.8849 40.287 75.008 40.0408 75.1065 39.8191C75.205 39.5975 75.3035 39.3513 75.3774 39.105C75.6483 38.317 75.9684 37.5536 76.3624 36.8149C76.7318 36.1007 77.175 35.4112 77.6921 34.771C77.8153 34.574 77.9384 34.3523 78.0369 34.1553C78.1354 33.9337 78.2339 33.7367 78.357 33.5397C78.4063 33.4904 78.4555 33.4166 78.5048 33.3673C78.554 33.2934 78.6279 33.1949 78.6772 33.1211C78.751 33.1703 79.6375 32.1853 79.6868 32.2346C79.736 32.2838 79.0219 33.4166 79.145 33.4658C78.9234 33.8352 78.6772 34.2046 78.4309 34.5493C78.16 34.9187 78.8003 34.968 79.1204 34.574C79.4405 34.18 79.6622 33.7121 79.7607 33.1949C79.7853 33.0718 79.8345 32.9733 79.9084 32.8748C80.4009 32.5301 80.7949 32.1114 81.1397 31.6189C81.4598 31.151 81.8292 30.6832 82.2232 30.2399C82.3463 30.1414 82.4448 30.0183 82.5433 29.8952C82.6418 29.7474 82.7403 29.6243 82.8635 29.5012C82.7157 29.4519 82.6172 29.378 82.6172 29.2795C82.6172 29.181 82.6172 29.0825 82.6172 28.984C82.6418 28.8855 82.6418 28.787 82.6665 28.6639C82.6911 28.5408 82.4694 28.787 82.3463 28.7131C82.2232 28.7624 82.2725 28.4915 82.174 28.5654C82.0754 28.6393 81.9769 28.6885 81.8784 28.7378C81.8538 28.7378 81.8292 28.7131 81.8046 28.6885L82.2725 27.9251C82.4202 27.6789 82.5926 27.4326 82.7403 27.1864H82.8881C82.9127 27.2849 82.9373 27.3834 82.9373 27.4819C82.9373 27.5804 83.1097 27.3834 83.1343 27.5311C83.3067 27.5065 83.3313 27.7281 83.4545 27.6296C83.5776 27.5311 83.6761 27.408 83.7746 27.2849C83.8731 27.1618 83.9716 27.014 84.0701 26.8662C84.1686 26.7185 84.3163 26.62 84.4641 26.5461C84.5133 26.7677 84.4395 26.9894 84.2917 27.1371C84.144 27.2356 84.0208 27.3588 83.9223 27.4819C83.8485 27.605 83.75 27.7528 83.6761 27.9005C83.6022 28.0483 83.4791 28.2206 83.3806 28.3684C83.6022 28.4176 83.7253 28.4176 83.7992 28.3438C83.8731 28.2699 83.947 28.196 84.0208 28.0975C84.1932 27.8266 84.4149 27.5804 84.6365 27.3588C84.8581 27.1371 85.0797 26.8909 85.2767 26.6446C85.3506 26.5707 85.4245 26.5215 85.523 26.4969C85.6215 26.4722 85.72 26.423 85.7939 26.3737C85.6461 26.1275 85.2521 26.1275 85.1044 25.8812C85.1782 25.8566 85.4984 25.5857 85.5722 25.5611C85.6215 25.5365 85.6954 25.5119 85.7446 25.5119C85.8924 25.4872 86.0401 25.4872 86.1879 25.4872C86.3602 25.5119 86.5326 25.4872 86.705 25.4626C87.0005 25.3887 87.2221 25.1425 87.2468 24.847C87.1483 24.7977 87.0498 24.7485 86.9266 24.6992L86.5819 24.5515C86.6557 24.4776 86.7543 24.4283 86.8528 24.4037C86.9513 24.3791 87.0498 24.3545 87.1483 24.3052C87.2468 24.2806 87.3206 24.2067 87.3699 24.1328C87.4191 24.0343 87.4438 23.9358 87.4438 23.8127C87.5915 23.8127 87.7146 23.8373 87.8624 23.862C87.9609 23.9112 88.084 23.8866 88.2071 23.8373C88.3056 23.7881 88.4041 23.6896 88.4534 23.5911C88.5273 23.468 88.6258 23.3941 88.7489 23.3202C88.9705 22.9755 89.2168 22.68 89.463 22.3845C89.7093 22.0889 89.9555 21.8181 90.2018 21.5226C90.3249 21.4241 90.3988 21.3009 90.4727 21.1532C90.5219 21.0301 90.4727 20.8823 90.3495 20.7099C90.251 20.6114 90.1772 20.4637 90.1772 20.3159C90.1525 20.1682 90.1279 20.0204 90.0787 19.8973C89.9802 19.651 89.857 19.4048 89.6847 19.1832V18.5183C89.5615 18.469 89.4138 18.4937 89.3399 18.5675C89.266 18.666 89.1675 18.7645 89.069 18.863C89.0198 18.9123 88.9459 18.9615 88.872 19.0108C88.7981 19.0354 88.7243 19.0847 88.675 19.1585C88.6011 19.0108 88.5273 18.863 88.478 18.6907C88.4041 18.4198 88.5026 18.1489 88.7243 18.0012L89.266 17.4594C89.463 17.3116 89.5369 17.0654 89.463 16.8438C89.1675 15.8095 88.8966 14.7752 88.6504 13.7656C88.4041 12.756 88.1086 11.7463 87.8378 10.7613C87.69 10.1211 87.493 9.45618 87.2714 8.84055C87.0498 8.22492 86.8527 7.58466 86.6557 6.94441C86.5572 6.59965 86.4587 6.27952 86.3602 5.95939C86.2617 5.63927 86.1632 5.31914 86.0155 4.97438C85.8677 4.62963 85.7692 4.23563 85.6707 3.86625C85.5722 3.49687 85.3999 3.12749 85.2029 2.78274C84.9566 2.48723 84.9812 2.19173 85.2275 1.84697C85.4737 1.50222 85.7939 1.18209 86.114 1.35447C86.2125 1.28059 86.311 1.45297 86.3849 1.37909L86.5819 1.18209C86.7789 0.98509 87.0744 0.886589 87.3699 0.960465C87.5423 1.00972 87.7393 1.03434 87.9363 1.00972C88.1086 1.00972 88.281 0.98509 88.478 0.960465C88.6996 0.886589 88.9213 0.93584 89.0936 1.08359C89.2168 1.20672 89.3892 1.40372 89.6108 1.62535C89.66 1.6746 89.7339 1.72385 89.8078 1.74847C90.3249 1.84697 90.6697 2.09323 90.8174 2.46261C90.9652 2.83199 91.1129 3.20136 91.236 3.57074C91.4084 4.03862 91.5808 4.5065 91.7039 4.92513C91.8271 5.36839 91.9748 5.81164 92.0979 6.2549V6.40265C92.0979 7.01828 92.1964 7.60929 92.3934 8.20029C92.5904 8.76667 92.7628 9.35768 92.9106 9.92406C92.9844 10.2442 93.0583 10.5151 93.1322 10.7859C93.2061 11.0568 93.2553 11.3031 93.3046 11.574L93.3538 11.8202C93.3784 11.8941 93.3784 11.968 93.4031 12.0418C93.4769 12.165 93.6493 12.1896 93.8956 12.0911C94.1172 11.9926 94.3142 11.8941 94.5112 11.7463C94.5851 11.6478 94.659 11.5493 94.7328 11.4755C94.8067 11.377 94.8806 11.3031 94.9791 11.2292C95.447 10.7613 95.9148 10.3181 96.3581 9.87481C96.826 9.43156 97.2446 8.93905 97.614 8.42192C97.811 8.15104 98.0326 7.88017 98.2789 7.63391C98.5251 7.38766 98.796 7.14141 99.0669 6.91978L101.357 4.77738C102.145 4.06325 102.933 3.34912 103.77 2.65961C104.14 2.31485 104.509 1.99473 104.854 1.6746C105.199 1.35447 105.593 1.03434 105.937 0.763463C106.282 0.46796 106.676 0.197082 107.119 0.0247048C107.316 -0.0491711 107.513 -0.0984216 107.735 -0.123047C107.957 -0.123047 108.154 -0.0491711 108.301 0.123206C108.474 0.246332 108.621 0.270957 108.745 0.172456C108.868 0.0739553 109.015 0.0739553 109.237 0.172456V0.418709C109.237 0.51721 109.459 0.615711 109.409 0.738838C109.557 0.788088 109.459 0.837339 109.607 0.886589C109.754 0.93584 109.902 0.98509 110.05 1.03434C110.198 1.08359 110.321 1.13284 110.444 1.20672C110.542 1.28059 110.567 1.40372 110.518 1.5761C110.518 1.6746 110.542 1.7731 110.592 1.84697C110.789 2.04398 110.912 2.29023 110.936 2.56111C110.887 2.97974 110.936 3.25062 110.986 3.52149ZM80.1793 31.0279C80.1301 30.8802 80.1301 30.7324 80.1547 30.6093C80.3024 30.4123 80.4748 30.2399 80.6472 30.0922C80.7211 30.363 80.6964 30.5354 80.5733 30.6585C80.4502 30.7817 80.3024 30.9048 80.1793 31.0279ZM84.7842 23.271C84.9074 23.2463 84.9812 23.1478 85.0059 23.0247C85.0059 22.877 84.9812 22.7046 84.9566 22.5568C85.3752 22.0397 85.7939 21.5226 86.2125 21.0054C86.6311 20.4883 87.0744 19.9465 87.5176 19.4048C87.5915 19.2817 88.5765 18.1982 88.6504 18.1489C88.7243 18.0997 88.872 18.1489 89.069 18.272C88.9213 18.4198 87.8624 19.5772 87.7146 19.7495C87.5669 19.9219 87.3945 20.0697 87.2468 20.2421C87.3206 20.2913 87.3945 20.3406 87.4438 20.3898C87.493 20.4391 87.5423 20.4883 87.5915 20.5376C87.5669 20.7838 87.4191 20.8823 87.1729 20.8823C86.8035 20.8331 86.6804 20.9562 86.8281 21.2763C86.9266 21.3994 86.902 21.5718 86.7789 21.6703C86.7789 21.6703 86.7543 21.6949 86.7296 21.6949C86.6065 21.8673 86.4834 22.0397 86.3602 22.1874C86.2371 22.3352 86.114 22.4583 85.9909 22.6061C85.9416 22.6553 85.8924 22.68 85.8431 22.7292C85.7939 22.7538 85.72 22.8031 85.6954 22.8523C85.326 23.3448 84.9566 23.8373 84.5872 24.3052L83.4298 25.7581C83.2082 26.0044 83.0112 26.2752 82.8142 26.4969C82.5926 26.7431 82.4202 27.0386 82.2478 27.3095C82.1001 27.605 81.9523 27.7528 81.8046 27.7528C81.6568 27.7528 81.4352 27.6543 81.1151 27.4326C81.6322 26.6939 82.1739 25.9797 82.7157 25.2656C83.2575 24.5515 83.7992 23.8127 84.341 23.0493C84.5872 23.1725 84.7103 23.2463 84.7842 23.271ZM81.9277 29.6243C82.0016 29.8213 81.9523 30.0429 81.8046 30.2153C81.6568 30.363 81.4844 30.4862 81.3121 30.6093C81.4106 30.4369 81.5091 30.2645 81.6322 30.0922C81.7553 29.9198 81.8046 29.772 81.9277 29.6243ZM83.5037 26.5461C83.4791 26.5215 83.4545 26.4969 83.4545 26.4969C83.4298 26.4969 83.4052 26.4722 83.4052 26.4476C83.6268 26.226 83.8485 26.029 84.0947 25.8566C84.0455 26.0044 83.9716 26.1275 83.8485 26.226C83.75 26.3491 83.6515 26.423 83.5037 26.5461ZM83.6268 24.8716C83.6515 24.8224 83.6761 24.7977 83.7253 24.7485C83.6761 24.6992 83.6515 24.65 83.6515 24.6253C83.6022 24.6746 83.5776 24.6992 83.553 24.7731C83.5283 24.8224 83.5037 24.8716 83.4545 24.9209L83.5283 24.9947C83.553 24.9455 83.6022 24.9209 83.6268 24.8716ZM84.144 25.8074C84.144 25.832 84.144 25.832 84.1193 25.8566L84.144 25.8074ZM84.9566 24.7977C84.8581 25.0194 84.735 25.2164 84.5872 25.3887L84.1686 25.8074C84.1932 25.5857 84.2425 25.3887 84.3656 25.1917C84.4887 24.9701 84.7104 24.8224 84.9566 24.7977ZM85.129 24.4283C85.2275 24.3298 85.326 24.2313 85.3999 24.1328C85.4245 24.1328 85.4737 24.1821 85.523 24.256C85.4245 24.3298 85.326 24.453 85.2521 24.5761L85.129 24.4283ZM85.8431 23.8866C85.7939 23.6403 85.7939 23.5172 85.8185 23.468C85.9416 23.3695 86.0647 23.271 86.2371 23.2217C86.1879 23.3448 86.114 23.4433 86.0401 23.5418C85.9662 23.6403 85.8924 23.7635 85.8431 23.8866ZM86.2864 23.2217L86.2371 23.1725H86.2864V23.2217ZM86.2617 23.2217V23.1725L86.311 23.2217H86.2617ZM86.2864 23.1725C86.2864 23.0001 86.3356 22.8277 86.4095 22.6553C86.5326 22.5076 86.7296 22.4091 86.9266 22.4091L86.2864 23.1725ZM87.2714 22.1382C87.2221 21.9412 87.2468 21.7442 87.3206 21.5718C87.5176 21.3748 87.7393 21.1778 87.9609 21.0054L88.0348 21.0793C87.9116 21.2271 87.7885 21.3994 87.6654 21.5718C87.5423 21.7442 87.4191 21.9166 87.2714 22.1382ZM88.1579 22.0643C88.3303 22.0889 88.4534 22.2613 88.4288 22.4337C88.4288 22.4583 88.4041 22.483 88.4041 22.5322C88.2564 22.5076 88.1579 22.4583 88.1579 22.3845C88.1333 22.2613 88.1333 22.1628 88.1579 22.0643ZM89.0198 21.2024C89.069 21.4979 89.069 21.4979 88.9459 21.5718C88.8228 21.6457 88.675 21.6949 88.5519 21.7442C88.6258 21.6457 88.6996 21.5226 88.7489 21.4241C88.8474 21.3009 88.9213 21.3502 89.0198 21.2024ZM88.6258 20.6853C88.5519 20.4883 88.5519 20.3406 88.6504 20.2667C88.7735 20.1928 88.9213 20.1682 89.0936 20.1682C88.9951 20.2174 89.0444 20.3406 88.9705 20.4144C88.8966 20.4883 88.7243 20.5868 88.6258 20.6853ZM94.4866 27.8266C94.8313 27.9251 94.9052 27.1864 94.8806 27.014C94.856 26.8416 94.8067 26.6446 94.7575 26.4722C94.7082 26.3245 94.6836 26.1521 94.659 25.9797C94.6097 25.635 94.5605 25.2902 94.4866 24.9455C94.4373 24.7731 94.3142 24.6253 94.1665 24.5268C94.1172 24.4776 94.0926 24.4283 94.0926 24.3545C94.0926 24.2806 93.871 23.6157 93.8463 23.3202C93.7971 23.2217 93.7478 23.1232 93.7232 23.0001C93.674 22.9016 93.6247 22.8031 93.5754 22.68C93.5262 22.5322 93.4769 22.3598 93.4523 22.1874C93.4277 22.0151 93.3538 21.8427 93.3046 21.6703C93.2307 21.6703 93.1568 21.6703 93.0583 21.7196C92.9352 22.0397 92.8859 22.4091 92.9106 22.7538C92.9352 23.0986 93.0091 23.4187 93.1568 23.7388C93.2553 24.0343 93.3538 24.3052 93.4523 24.5761C93.5508 24.8716 93.6247 25.1671 93.6739 25.4626C93.7232 25.635 93.8217 25.8074 93.9448 25.9797C94.3388 26.2014 94.5112 26.5954 94.462 27.1618V27.5065C94.4373 27.5804 94.462 27.7035 94.4866 27.8266ZM98.1804 11.377C98.5744 11.0568 98.9684 10.7121 99.3131 10.3181C99.2885 10.1211 99.2146 9.94869 99.0915 9.80094C98.599 10.1457 98.1557 10.5397 97.7125 10.9583C97.3924 11.2538 97.0722 11.5493 96.7521 11.8695L95.841 12.7806C95.6193 12.9776 95.447 13.1746 95.3238 13.347C95.2007 13.5194 95.0283 13.6917 94.8313 13.8641C94.7575 13.9872 94.6836 14.1104 94.6343 14.2089C94.5851 14.3074 94.6097 14.4305 94.7575 14.5536C94.9545 14.5044 95.1268 14.4305 95.2746 14.3074C95.4223 14.1842 95.5455 14.0365 95.6686 13.8887L96.4074 13.15C96.4566 13.1007 96.5305 13.0515 96.6044 12.9776C96.6782 12.9283 96.7521 12.8545 96.8014 12.756C96.9491 12.4605 97.1461 12.1896 97.417 11.968C97.6386 11.7956 97.9095 11.574 98.1804 11.377ZM94.5851 16.8191C94.7821 16.7453 95.1761 16.1789 95.25 16.0804C95.3485 15.9819 95.3977 15.8341 95.3731 15.6864C95.25 15.7603 95.1268 15.8341 95.0283 15.9326C94.856 16.2281 94.7328 16.5236 94.5851 16.8191ZM95.2746 29.7474C95.3485 29.575 95.3485 29.4273 95.2746 29.3288C95.2007 29.2303 95.1022 29.1564 95.0037 29.0825C94.9791 29.2057 94.9545 29.3288 94.9545 29.4765C94.9545 29.5997 95.053 29.6982 95.2746 29.7474ZM97.3677 36.1007C97.0476 35.3866 96.7521 34.6971 96.432 33.983C96.1119 33.2688 95.6932 32.6039 95.1761 32.0376C95.2746 32.4069 95.0776 32.2838 95.053 32.6532C95.0283 33.0226 95.8902 34.1307 96.1611 34.4755C96.2842 34.5986 96.3827 34.771 96.4074 34.9433C96.432 35.1157 96.5059 35.2635 96.629 35.4112C96.9245 35.8545 96.9245 36.0761 97.1461 36.5686C97.3677 37.0611 97.417 37.5044 97.7864 37.8491C97.8849 37.9722 97.9834 38.12 98.0573 38.2677C98.1311 38.4155 98.205 38.5386 98.3035 38.6864C98.4266 38.8341 98.5005 38.9819 98.599 39.1296C98.6975 39.302 98.7221 38.7356 98.5744 38.5633C98.4266 38.3663 98.3035 38.1446 98.2296 37.8984C98.0572 37.6029 97.9095 37.3074 97.8602 36.9626C97.7864 36.6179 97.614 36.3224 97.3677 36.1007ZM101.135 8.5943C101.16 8.54505 101.185 8.47117 101.185 8.42192C101.185 8.34805 101.209 8.27417 101.234 8.20029C100.865 8.24955 100.52 8.42192 100.249 8.6928C99.9534 8.93905 99.7564 9.28381 99.6825 9.65319C99.8303 9.60394 99.978 9.50543 100.101 9.40693C100.274 9.28381 100.471 9.13605 100.643 8.9883C100.815 8.84055 100.963 8.74205 101.135 8.5943Z" fill="url(#paint0_linear_4731_498)"/>
</g>
<defs>
<linearGradient id="paint0_linear_4731_498" x1="108.161" y1="6.50654" x2="89.5915" y2="25.074" gradientUnits="userSpaceOnUse">
<stop stop-color="#12DEF6"/>
<stop offset="0.12" stop-color="#18E0FF"/>
<stop offset="0.29" stop-color="#2BD3FD"/>
<stop offset="0.49" stop-color="#4FBAFB"/>
<stop offset="0.72" stop-color="#8892F9"/>
<stop offset="0.96" stop-color="#E04EF1"/>
<stop offset="1" stop-color="#EF40EA"/>
</linearGradient>
<clipPath id="clip0_4731_498">
<rect width="110.986" height="46" fill="white"/>
</clipPath>
</defs>
</svg>
