<svg width="39" height="40" viewBox="0 0 39 40" fill="none" xmlns="http://www.w3.org/2000/svg">
    <g id="Logo" clip-path="url(#clip0_6354_4078)">
        <path id="Rectangle 587"
            d="M0.831055 39.9993H14.5434C21.0455 39.9993 26.3166 34.7862 26.3166 28.3555H12.6043C6.1021 28.3555 0.831055 33.5686 0.831055 39.9993Z"
            fill="#1E6FD9" />
        <path id="Rectangle 591" opacity="0.5"
            d="M1.44446 11.6438V28.7671C7.94662 28.7671 13.2177 23.554 13.2177 17.1233V0C6.71551 0 1.44446 5.21312 1.44446 11.6438Z"
            fill="#1E6FD9" />
        <path id="Rectangle 587_2"
            d="M39.6133 0H25.901C19.3989 0 14.1278 5.21312 14.1278 11.6438H27.8401C34.3423 11.6438 39.6133 6.43071 39.6133 0Z"
            fill="#1E6FD9" />
        <path id="Rectangle 591_2" opacity="0.5"
            d="M39.6134 27.6702V10.5469C33.1113 10.5469 27.8402 15.76 27.8402 22.1907V39.314C34.3424 39.314 39.6134 34.1009 39.6134 27.6702Z"
            fill="#1E6FD9" />
    </g>
    <defs>
        <clipPath id="clip0_6354_4078">
            <rect width="39" height="40" fill="white" />
        </clipPath>
    </defs>
</svg>