<svg width="28" height="28" viewBox="0 0 28 28" fill="none" xmlns="http://www.w3.org/2000/svg">
<path fill-rule="evenodd" clip-rule="evenodd" d="M14 0.875C6.75126 0.875 0.875 6.75126 0.875 14C0.875 21.2487 6.75126 27.125 14 27.125C21.2487 27.125 27.125 21.2487 27.125 14C27.125 6.75126 21.2487 0.875 14 0.875ZM0 14C0 6.26801 6.26801 0 14 0C21.732 0 28 6.26801 28 14C28 21.732 21.732 28 14 28C6.26801 28 0 21.732 0 14Z" fill="#A1A1A9" fill-opacity="0.8"/>
<path fill-rule="evenodd" clip-rule="evenodd" d="M13.3722 9.9165C13.4866 9.9165 13.6008 9.96081 13.6878 10.0493C13.8612 10.2266 13.8612 10.5129 13.6866 10.6889L11.7046 12.6919L11.6588 12.7324C11.4838 12.8672 11.234 12.8532 11.075 12.6907C10.9883 12.6021 10.9449 12.487 10.9449 12.3718C10.9449 12.2555 10.9883 12.1398 11.0762 12.0512L13.0576 10.0481L13.1033 10.0078C13.1827 9.94693 13.2775 9.9165 13.3722 9.9165ZM9.77896 13.5477H18.6881L18.7439 13.5512C18.9635 13.5791 19.1335 13.7694 19.1335 13.9997C19.1335 14.2493 18.934 14.4519 18.6881 14.4519H10.8576L13.6865 17.3108L13.7265 17.357C13.8599 17.5338 13.8467 17.7879 13.6877 17.9504C13.5142 18.127 13.2321 18.1276 13.0581 17.9515L9.46476 14.3198L9.42513 14.2744C9.36486 14.1948 9.3335 14.0977 9.3335 13.9997C9.3335 13.9413 9.34476 13.8828 9.36736 13.8274C9.43623 13.658 9.59837 13.5477 9.77896 13.5477Z" fill="#A1A1A9" fill-opacity="0.8"/>
</svg>
