<svg width="28" height="28" viewBox="0 0 28 28" fill="none" xmlns="http://www.w3.org/2000/svg">
<path d="M14 0.875C10.972 0.87692 8.03781 1.92546 5.69438 3.84299C3.35095 5.76053 1.7424 8.42917 1.1412 11.3969C0.540002 14.3645 0.983123 17.4488 2.3955 20.1272C3.80788 22.8056 6.10268 24.9134 8.89116 26.0937C12.0973 27.4412 15.7071 27.4616 18.9282 26.1503C22.1493 24.8391 24.7185 22.3033 26.0719 19.0996C27.4252 15.896 27.4521 12.2862 26.1467 9.06273C24.8412 5.83925 22.31 3.26546 19.1088 1.90633C17.4926 1.22233 15.755 0.871546 14 0.875ZM14 0C16.7689 0 19.4757 0.821086 21.778 2.35943C24.0803 3.89776 25.8747 6.08427 26.9343 8.64243C27.9939 11.2006 28.2712 14.0155 27.731 16.7313C27.1908 19.447 25.8574 21.9416 23.8995 23.8995C21.9416 25.8574 19.447 27.1908 16.7313 27.731C14.0155 28.2712 11.2006 27.9939 8.64243 26.9343C6.08427 25.8747 3.89776 24.0803 2.35943 21.778C0.821086 19.4757 0 16.7689 0 14C0 10.287 1.475 6.72601 4.1005 4.1005C6.72601 1.475 10.287 0 14 0V0Z" fill="#1F7EE8"/>
<path fill-rule="evenodd" clip-rule="evenodd" d="M14.7794 10.0497C14.6951 10.1352 14.6478 10.2504 14.6478 10.3705C14.6478 10.4906 14.6951 10.6059 14.7794 10.6914L16.7628 12.6945L16.8083 12.7348C16.8936 12.8007 17.0002 12.8329 17.1078 12.8253C17.2154 12.8176 17.3164 12.7707 17.3916 12.6934C17.4759 12.6079 17.5232 12.4926 17.5232 12.3725C17.5232 12.2524 17.4759 12.1372 17.3916 12.0517L15.4083 10.0485L15.3628 10.0083C15.2772 9.94286 15.1707 9.91096 15.0633 9.91859C14.9558 9.92622 14.8549 9.97285 14.7794 10.0497ZM9.72309 13.5497C9.61034 13.5659 9.50785 13.6241 9.43608 13.7126C9.36432 13.801 9.32855 13.9133 9.33591 14.027C9.34327 14.1407 9.39323 14.2474 9.47581 14.3259C9.55838 14.4044 9.66752 14.4488 9.78142 14.4504H17.6092L14.78 17.3087L14.7398 17.3548C14.6745 17.4421 14.6426 17.5499 14.6497 17.6586C14.6569 17.7674 14.7027 17.87 14.7788 17.948C14.8199 17.9898 14.8689 18.0231 14.9229 18.0457C14.9769 18.0684 15.0349 18.0801 15.0935 18.0801C15.1521 18.0801 15.2102 18.0684 15.2642 18.0457C15.3182 18.0231 15.3672 17.9898 15.4083 17.948L19.0016 14.3162L19.0413 14.2707C19.0888 14.2076 19.1191 14.1333 19.1294 14.055C19.1396 13.9767 19.1293 13.897 19.0996 13.8239C19.0666 13.7416 19.0098 13.671 18.9364 13.6212C18.863 13.5714 18.7764 13.5447 18.6878 13.5444H9.77909L9.72309 13.5497Z" fill="url(#paint0_linear_110_4302)"/>
<defs>
<linearGradient id="paint0_linear_110_4302" x1="18.8491" y1="18.0801" x2="11.4791" y2="8.56751" gradientUnits="userSpaceOnUse">
<stop stop-color="#1F90E8"/>
<stop offset="1" stop-color="#1F7EE8"/>
</linearGradient>
</defs>
</svg>
