<svg width="290" height="366" viewBox="0 0 290 366" fill="none" xmlns="http://www.w3.org/2000/svg">
<g opacity="0.4">
<path opacity="0.0344828" d="M47.7424 88.8554C49.3995 86.8806 51.929 85.6144 55.362 85.0995C58.8034 84.5833 63.0894 84.834 68.1397 85.8435C78.2394 87.8621 91.1877 92.8716 106.12 100.468C135.969 115.653 173.545 141.072 211.753 173.132C249.961 205.192 281.519 237.784 301.656 264.543C311.73 277.929 318.912 289.81 322.654 299.406C324.525 304.204 325.516 308.382 325.605 311.861C325.694 315.331 324.887 318.042 323.23 320.017C321.573 321.991 319.043 323.258 315.61 323.772C312.169 324.289 307.883 324.038 302.832 323.029C292.733 321.01 279.784 316 264.852 308.404C235.003 293.219 197.427 267.8 159.219 235.74C121.011 203.68 89.4535 171.088 69.3157 144.329C59.2419 130.943 52.06 119.061 48.3182 109.466C46.4472 104.668 45.456 100.49 45.3668 97.0114C45.2777 93.5411 46.0854 90.8301 47.7424 88.8554Z" stroke="url(#paint0_linear_5399_4278)" stroke-width="2"/>
<path opacity="0.0689655" d="M58.3399 75.8465C60.1627 74.0237 62.793 72.9828 66.2579 72.7691C69.7311 72.5548 73.979 73.1781 78.9221 74.6238C88.8074 77.515 101.27 83.634 115.483 92.5028C143.895 110.232 179.113 138.829 214.381 174.097C249.65 209.365 278.247 244.583 295.976 272.995C304.844 287.209 310.963 299.671 313.855 309.556C315.3 314.499 315.924 318.747 315.709 322.22C315.496 325.685 314.455 328.316 312.632 330.138C310.809 331.961 308.179 333.002 304.714 333.216C301.241 333.43 296.993 332.807 292.05 331.361C282.164 328.47 269.702 322.351 255.489 313.482C227.076 295.753 191.859 267.156 156.59 231.888C121.322 196.62 92.7252 161.402 74.9962 132.99C66.1274 118.776 60.0084 106.314 57.1172 96.4287C55.6714 91.4856 55.0482 87.2377 55.2624 83.7645C55.4762 80.2996 56.5171 77.6694 58.3399 75.8465Z" stroke="url(#paint1_linear_5399_4278)" stroke-width="2"/>
<path opacity="0.103448" d="M69.905 63.8055C71.8797 62.1484 74.5907 61.3408 78.061 61.4298C81.5397 61.5191 85.7171 62.5102 90.5154 64.3813C100.111 68.1231 111.993 75.3049 125.379 85.3787C152.138 105.517 184.729 137.074 216.79 175.282C248.85 213.49 274.268 251.066 289.454 280.915C297.05 295.847 302.059 308.796 304.078 318.895C305.088 323.946 305.338 328.232 304.822 331.673C304.307 335.106 303.041 337.636 301.066 339.293C299.091 340.95 296.38 341.757 292.91 341.668C289.431 341.579 285.254 340.588 280.456 338.717C270.86 334.975 258.978 327.793 245.592 317.719C218.833 297.582 186.242 266.024 154.182 227.816C122.121 189.608 96.7028 152.032 81.5176 122.183C73.9212 107.251 68.9117 94.3024 66.8931 84.2028C65.8837 79.1525 65.633 74.8664 66.1491 71.4251C66.6641 67.992 67.9302 65.4625 69.905 63.8055Z" stroke="url(#paint2_linear_5399_4278)" stroke-width="2"/>
<path opacity="0.137931" d="M82.3506 52.8119C84.4623 51.3333 87.2334 50.7649 90.6827 51.1561C94.1404 51.5482 98.2155 52.8997 102.832 55.1818C112.065 59.7457 123.276 67.9357 135.733 79.1379C160.635 101.531 190.352 135.809 218.961 176.666C247.569 217.523 269.616 257.171 282.141 288.231C288.407 303.768 292.269 317.103 293.4 327.341C293.966 332.46 293.842 336.751 293.028 340.135C292.215 343.51 290.734 345.919 288.622 347.398C286.51 348.876 283.739 349.445 280.29 349.054C276.832 348.661 272.757 347.31 268.14 345.028C258.907 340.464 247.697 332.274 235.239 321.072C210.337 298.678 180.62 264.401 152.012 223.544C123.404 182.687 101.357 143.039 88.8311 111.979C82.5651 96.4419 78.7032 83.1062 77.5725 72.8691C77.007 67.75 77.1309 63.4584 77.945 60.0752C78.7572 56.7 80.239 54.2905 82.3506 52.8119Z" stroke="url(#paint3_linear_5399_4278)" stroke-width="2"/>
<path opacity="0.172414" d="M95.5796 42.9407C97.8121 41.6517 100.622 41.3271 104.024 42.0174C107.435 42.7094 111.376 44.4108 115.777 47.0867C124.577 52.4379 135.031 61.5739 146.465 73.8191C169.32 98.2977 195.937 135.035 220.875 178.23C245.814 221.424 264.321 262.844 274.092 294.876C278.98 310.901 281.665 324.522 281.899 334.819C282.016 339.968 281.519 344.232 280.413 347.532C279.31 350.823 277.624 353.094 275.391 354.383C273.159 355.672 270.349 355.997 266.946 355.307C263.536 354.615 259.594 352.913 255.194 350.237C246.394 344.886 235.94 335.75 224.506 323.505C201.65 299.026 175.034 262.289 150.096 219.094C125.157 175.9 106.65 134.48 96.8786 102.448C91.9906 86.4233 89.3057 72.8018 89.0715 62.5051C88.9544 57.3562 89.4518 53.0918 90.5577 49.7923C91.6609 46.5008 93.3471 44.2296 95.5796 42.9407Z" stroke="url(#paint4_linear_5399_4278)" stroke-width="2"/>
<path opacity="0.206897" d="M109.495 34.254C111.831 33.1646 114.659 33.0861 117.988 34.0703C121.325 35.0568 125.103 37.0954 129.254 40.1446C137.554 46.2424 147.172 56.2548 157.495 69.4499C178.13 95.8273 201.443 134.745 222.522 179.949C243.601 225.152 258.428 268.027 265.37 300.789C268.843 317.179 270.33 330.982 269.666 341.26C269.334 346.4 268.467 350.605 267.078 353.795C265.692 356.978 263.814 359.094 261.478 360.183C259.142 361.273 256.314 361.351 252.985 360.367C249.648 359.38 245.869 357.342 241.719 354.293C233.419 348.195 223.8 338.182 213.478 324.987C192.843 298.61 169.529 259.693 148.45 214.489C127.372 169.285 112.545 126.41 105.602 93.6478C102.13 77.2584 100.642 63.4547 101.306 53.1768C101.638 48.0373 102.505 43.8324 103.895 40.6419C105.281 37.4591 107.158 35.3435 109.495 34.254Z" stroke="url(#paint5_linear_5399_4278)" stroke-width="2"/>
<path opacity="0.241379" d="M123.986 26.8067C126.408 25.925 129.232 26.0933 132.463 27.3639C135.701 28.6375 139.288 30.9976 143.157 34.397C150.894 41.195 159.603 52.0075 168.736 66.0521C186.994 94.1276 206.826 134.929 223.885 181.798C240.944 228.667 251.978 272.67 256.038 305.913C258.069 322.543 258.348 336.424 256.791 346.605C256.012 351.696 254.782 355.809 253.12 358.866C251.462 361.916 249.407 363.86 246.984 364.742C244.562 365.623 241.738 365.455 238.508 364.185C235.269 362.911 231.683 360.551 227.814 357.152C220.077 350.353 211.368 339.541 202.234 325.496C183.977 297.421 164.144 256.62 147.085 209.751C130.026 162.882 118.992 118.878 114.932 85.6352C112.901 69.0055 112.622 55.1247 114.179 44.9438C114.958 39.8528 116.189 35.7395 117.851 32.6822C119.509 29.6323 121.564 27.6884 123.986 26.8067Z" stroke="url(#paint6_linear_5399_4278)" stroke-width="2"/>
<path opacity="0.275862" d="M138.947 20.6469C141.437 19.9797 144.235 20.3934 147.343 21.9408C150.458 23.4918 153.825 26.1555 157.383 29.8792C164.498 37.3257 172.232 48.856 180.106 63.6432C195.848 93.2032 212.049 135.578 224.958 183.755C237.867 231.932 245.024 276.73 246.171 310.201C246.745 326.944 245.813 340.796 243.374 350.803C242.155 355.807 240.571 359.797 238.648 362.698C236.731 365.591 234.514 367.349 232.024 368.016C229.534 368.683 226.736 368.27 223.628 366.722C220.513 365.171 217.146 362.508 213.588 358.784C206.473 351.337 198.74 339.807 190.865 325.02C175.124 295.46 158.923 253.086 146.014 204.908C133.104 156.731 125.948 111.933 124.8 78.4624C124.226 61.7191 125.158 47.8668 127.597 37.8603C128.817 32.8566 130.401 28.8662 132.323 25.9654C134.24 23.0716 136.457 21.3141 138.947 20.6469Z" stroke="url(#paint7_linear_5399_4278)" stroke-width="2"/>
<path opacity="0.310345" d="M154.261 15.8076C156.8 15.36 159.552 16.016 162.512 17.8283C165.48 19.6449 168.603 22.592 171.823 26.6115C178.262 34.6498 184.961 46.8103 191.516 62.2276C204.622 93.047 217.068 136.672 225.729 185.791C234.39 234.911 237.615 280.162 235.841 313.605C234.954 330.334 232.818 344.053 229.516 353.809C227.865 358.687 225.939 362.524 223.772 365.246C221.609 367.962 219.248 369.52 216.709 369.967C214.17 370.415 211.419 369.759 208.458 367.947C205.49 366.13 202.368 363.183 199.148 359.163C192.709 351.125 186.01 338.964 179.454 323.547C166.349 292.728 153.903 249.103 145.242 199.983C136.58 150.864 133.355 105.613 135.129 72.1701C136.017 55.4405 138.153 41.7221 141.454 31.9663C143.105 27.0879 145.031 23.2507 147.199 20.5285C149.361 17.8128 151.723 16.2553 154.261 15.8076Z" stroke="url(#paint8_linear_5399_4278)" stroke-width="2"/>
<path opacity="0.344828" d="M169.814 12.3173C172.382 12.0926 175.066 12.986 177.858 15.0494C180.656 17.1178 183.51 20.3258 186.367 24.6107C192.081 33.1796 197.695 45.8777 202.882 61.8076C213.251 93.6519 221.848 138.196 226.195 187.883C230.542 237.57 229.811 282.93 225.129 316.091C222.787 332.68 219.463 346.16 215.324 355.591C213.254 360.307 211.001 363.962 208.604 366.485C206.213 369.001 203.725 370.347 201.157 370.572C198.589 370.797 195.905 369.903 193.114 367.84C190.315 365.771 187.462 362.563 184.604 358.279C178.89 349.71 173.277 337.012 168.09 321.082C157.72 289.237 149.124 244.693 144.777 195.006C140.43 145.319 141.161 99.959 145.843 66.7979C148.185 50.2092 151.508 36.7293 155.647 27.2983C157.717 22.5823 159.97 18.9276 162.367 16.4047C164.758 13.8878 167.246 12.542 169.814 12.3173Z" stroke="url(#paint9_linear_5399_4278)" stroke-width="2"/>
<path opacity="0.37931" d="M185.486 10.1885C188.063 10.1885 190.659 11.3124 193.26 13.6113C195.868 15.9157 198.431 19.3601 200.904 23.8777C205.849 32.9121 210.335 46.0511 214.114 62.3725C221.668 94.9994 226.35 140.123 226.35 190C226.35 239.877 221.668 285.001 214.114 317.627C210.335 333.949 205.849 347.088 200.904 356.122C198.431 360.64 195.868 364.084 193.26 366.389C190.659 368.688 188.063 369.812 185.486 369.812C182.908 369.812 180.312 368.688 177.711 366.389C175.103 364.084 172.54 360.64 170.067 356.122C165.122 347.088 160.636 333.949 156.857 317.627C149.303 285.001 144.621 239.877 144.621 190C144.621 140.123 149.303 94.9994 156.857 62.3725C160.636 46.0511 165.122 32.9121 170.067 23.8777C172.54 19.3601 175.103 15.9157 177.711 13.6113C180.312 11.3124 182.908 10.1885 185.486 10.1885Z" stroke="url(#paint10_linear_5399_4278)" stroke-width="2"/>
<path opacity="0.413793" d="M201.157 9.42924C203.725 9.65392 206.213 10.9998 208.604 13.5166C211.001 16.0395 213.254 19.6942 215.324 24.4102C219.463 33.8412 222.787 47.3212 225.129 63.9098C229.811 97.0709 230.542 142.431 226.195 192.118C221.848 241.805 213.251 286.349 202.882 318.193C197.695 334.123 192.081 346.822 186.367 355.39C183.51 359.675 180.656 362.883 177.858 364.952C175.066 367.015 172.382 367.908 169.814 367.684C167.246 367.459 164.758 366.113 162.367 363.596C159.97 361.073 157.717 357.419 155.647 352.703C151.508 343.272 148.185 329.792 145.843 313.203C141.161 280.042 140.43 234.682 144.777 184.995C149.124 135.308 157.72 90.7639 168.09 58.9196C173.277 42.9896 178.89 30.2915 184.605 21.7226C187.462 17.4377 190.315 14.2298 193.114 12.1613C195.905 10.0979 198.589 9.20456 201.157 9.42924Z" stroke="url(#paint11_linear_5399_4278)" stroke-width="2"/>
<path opacity="0.448276" d="M216.71 10.0326C219.249 10.4802 221.61 12.0378 223.773 14.7534C225.94 17.4757 227.866 21.3128 229.517 26.1912C232.819 35.9471 234.955 49.6654 235.842 66.3951C237.616 99.8381 234.391 145.089 225.73 194.208C217.069 243.328 204.623 286.953 191.517 317.772C184.962 333.189 178.263 345.35 171.823 353.388C168.604 357.408 165.481 360.355 162.513 362.171C159.552 363.984 156.801 364.64 154.262 364.192C151.723 363.744 149.362 362.187 147.2 359.471C145.032 356.749 143.106 352.912 141.455 348.033C138.154 338.278 136.018 324.559 135.13 307.83C133.356 274.387 136.581 229.136 145.242 180.016C153.903 130.897 166.35 87.2719 179.455 56.4525C186.011 41.0353 192.71 28.8748 199.149 20.8365C202.369 16.8169 205.491 13.8699 208.459 12.0532C211.42 10.241 214.171 9.58493 216.71 10.0326Z" stroke="url(#paint12_linear_5399_4278)" stroke-width="2"/>
<path opacity="0.482759" d="M232.025 11.9846C234.515 12.6518 236.731 14.4093 238.649 17.3031C240.571 20.2038 242.155 24.1942 243.375 29.198C245.813 39.2045 246.745 53.0568 246.171 69.8001C245.024 103.27 237.867 148.068 224.958 196.246C212.049 244.423 195.848 286.798 180.106 316.357C172.232 331.145 164.499 342.675 157.383 350.122C153.825 353.845 150.458 356.509 147.343 358.06C144.236 359.607 141.437 360.021 138.947 359.354C136.457 358.687 134.241 356.929 132.323 354.035C130.401 351.135 128.817 347.144 127.597 342.14C125.158 332.134 124.226 318.282 124.8 301.538C125.948 268.068 133.105 223.27 146.014 175.093C158.923 126.915 175.124 84.5408 190.865 54.9809C198.74 40.1937 206.473 28.6633 213.588 21.2168C217.146 17.4932 220.514 14.8295 223.629 13.2784C226.736 11.7311 229.534 11.3174 232.025 11.9846Z" stroke="url(#paint13_linear_5399_4278)" stroke-width="2"/>
<path opacity="0.517241" d="M246.985 15.2582C249.407 16.1399 251.462 18.0838 253.12 21.1337C254.782 24.191 256.013 28.3043 256.792 33.3953C258.349 43.5762 258.07 57.457 256.039 74.0866C251.979 107.33 240.945 151.333 223.886 198.202C206.827 245.071 186.994 285.872 168.737 313.948C159.603 327.992 150.894 338.805 143.157 345.603C139.288 349.002 135.702 351.362 132.463 352.636C129.233 353.907 126.409 354.075 123.987 353.193C121.564 352.312 119.509 350.368 117.851 347.318C116.189 344.26 114.959 340.147 114.18 335.056C112.623 324.875 112.902 310.994 114.933 294.365C118.993 261.122 130.027 217.118 147.086 170.249C164.145 123.38 183.977 82.5791 202.235 54.5036C211.368 40.459 220.077 29.6465 227.814 22.8485C231.683 19.4491 235.27 17.089 238.508 15.8153C241.739 14.5447 244.563 14.3765 246.985 15.2582Z" stroke="url(#paint14_linear_5399_4278)" stroke-width="2"/>
<path opacity="0.551724" d="M261.477 19.8172C263.814 20.9067 265.691 23.0223 267.077 26.2051C268.467 29.3956 269.334 33.6005 269.666 38.74C270.33 49.0179 268.843 62.8216 265.37 79.2109C258.428 111.974 243.601 154.848 222.522 200.052C201.443 245.256 178.13 284.173 157.494 310.55C147.172 323.746 137.554 333.758 129.253 339.856C125.103 342.905 121.324 344.944 117.987 345.93C114.658 346.914 111.831 346.836 109.494 345.746C107.158 344.657 105.28 342.541 103.894 339.358C102.505 336.168 101.638 331.963 101.306 326.824C100.642 316.546 102.129 302.742 105.602 286.353C112.544 253.59 127.371 210.716 148.45 165.512C169.529 120.308 192.842 81.3905 213.477 55.0131C223.8 41.8179 233.418 31.8056 241.718 25.7078C245.869 22.6586 249.647 20.62 252.984 19.6334C256.313 18.6492 259.141 18.7277 261.477 19.8172Z" stroke="url(#paint15_linear_5399_4278)" stroke-width="2"/>
<path opacity="0.586207" d="M275.392 25.6177C277.624 26.9066 279.31 29.1779 280.414 32.4694C281.519 35.7688 282.017 40.0333 281.9 45.1821C281.666 55.4788 278.981 69.1004 274.093 85.1246C264.321 117.158 245.814 158.577 220.876 201.771C195.937 244.966 169.321 281.703 146.465 306.182C135.032 318.427 124.578 327.563 115.777 332.914C111.377 335.59 107.435 337.292 104.025 337.984C100.623 338.674 97.8126 338.349 95.5801 337.06C93.3476 335.771 91.6614 333.5 90.5582 330.209C89.4523 326.909 88.9549 322.645 89.072 317.496C89.3062 307.199 91.9911 293.578 96.8791 277.553C106.65 245.521 125.158 204.102 150.096 160.907C175.035 117.712 201.651 80.9747 224.507 56.4962C235.94 44.2509 246.394 35.1149 255.194 29.7637C259.595 27.0879 263.537 25.3864 266.947 24.6944C270.349 24.0041 273.159 24.3288 275.392 25.6177Z" stroke="url(#paint16_linear_5399_4278)" stroke-width="2"/>
<path opacity="0.62069" d="M288.622 32.6025C290.734 34.0811 292.215 36.4907 293.028 39.8658C293.842 43.2491 293.966 47.5406 293.4 52.6597C292.269 62.8968 288.407 76.2325 282.141 91.7698C269.616 122.829 247.569 162.478 218.961 203.334C190.352 244.191 160.635 278.469 135.733 300.862C123.276 312.065 112.065 320.255 102.832 324.819C98.2155 327.101 94.1404 328.452 90.6827 328.844C87.2334 329.235 84.4623 328.667 82.3506 327.188C80.239 325.71 78.7572 323.3 77.945 319.925C77.1309 316.542 77.007 312.25 77.5725 307.131C78.7032 296.894 82.5651 283.558 88.8311 268.021C101.357 236.962 123.404 197.313 152.012 156.457C180.62 115.6 210.337 81.322 235.239 58.9286C247.697 47.7264 258.907 39.5363 268.14 34.9725C272.757 32.6903 276.832 31.3389 280.29 30.9468C283.739 30.5556 286.51 31.1239 288.622 32.6025Z" stroke="url(#paint17_linear_5399_4278)" stroke-width="2"/>
<path opacity="0.655172" d="M301.066 40.7075C303.041 42.3645 304.307 44.8941 304.822 48.3271C305.338 51.7685 305.088 56.0545 304.078 61.1048C302.06 71.2045 297.05 84.1528 289.454 99.0848C274.269 128.934 248.85 166.51 216.79 204.718C184.73 242.926 152.138 274.484 125.379 294.621C111.993 304.695 100.111 311.877 90.5157 315.619C85.7173 317.49 81.54 318.481 78.0613 318.57C74.5909 318.659 71.88 317.852 69.9052 316.195C67.9304 314.538 66.6643 312.008 66.1494 308.575C65.6332 305.134 65.8839 300.848 66.8933 295.797C68.912 285.698 73.9215 272.749 81.5178 257.817C96.703 227.968 122.121 190.392 154.182 152.184C186.242 113.976 218.833 82.4186 245.593 62.2808C258.979 52.2069 270.86 45.0251 280.456 41.2833C285.254 39.4123 289.432 38.4211 292.91 38.3319C296.381 38.2428 299.092 39.0505 301.066 40.7075Z" stroke="url(#paint18_linear_5399_4278)" stroke-width="2"/>
<path opacity="0.689655" d="M312.632 49.8615C314.455 51.6843 315.496 54.3146 315.71 57.7795C315.924 61.2527 315.301 65.5006 313.855 70.4437C310.964 80.329 304.845 92.7914 295.976 107.005C278.247 135.417 249.65 170.635 214.382 205.903C179.114 241.171 143.896 269.768 115.483 287.497C101.27 296.366 88.8078 302.485 78.9225 305.376C73.9794 306.822 69.7315 307.445 66.2583 307.231C62.7934 307.017 60.1632 305.976 58.3403 304.153C56.5175 302.331 55.4766 299.7 55.2629 296.235C55.0486 292.762 55.6719 288.514 57.1176 283.571C60.0089 273.686 66.1278 261.223 74.9966 247.01C92.7256 218.598 121.322 183.38 156.591 148.112C191.859 112.844 227.077 84.2468 255.489 66.5178C269.702 57.649 282.165 51.53 292.05 48.6388C296.993 47.1931 301.241 46.5698 304.714 46.784C308.179 46.9978 310.809 48.0387 312.632 49.8615Z" stroke="url(#paint19_linear_5399_4278)" stroke-width="2"/>
<path opacity="0.724138" d="M323.229 59.9838C324.886 61.9586 325.694 64.6696 325.605 68.1399C325.515 71.6186 324.524 75.796 322.653 80.5943C318.912 90.1899 311.73 102.072 301.656 115.458C281.518 142.217 249.961 174.808 211.753 206.869C173.545 238.929 135.969 264.347 106.119 279.533C91.1871 287.129 78.2388 292.138 68.1392 294.157C63.0889 295.166 58.8028 295.417 55.3615 294.901C51.9284 294.386 49.3989 293.12 47.7419 291.145C46.0848 289.17 45.2771 286.459 45.3662 282.989C45.4555 279.51 46.4466 275.333 48.3177 270.535C52.0594 260.939 59.2413 249.057 69.3151 235.671C89.4529 208.912 121.01 176.321 159.218 144.26C197.426 112.2 235.002 86.7816 264.852 71.5964C279.784 64.0001 292.732 58.9906 302.832 56.9719C307.882 55.9625 312.168 55.7118 315.609 56.228C319.043 56.7429 321.572 58.0091 323.229 59.9838Z" stroke="url(#paint20_linear_5399_4278)" stroke-width="2"/>
<path opacity="0.758621" d="M332.779 70.9847C334.257 73.0963 334.826 75.8674 334.434 79.3167C334.042 82.7744 332.691 86.8495 330.409 91.4665C325.845 100.7 317.655 111.91 306.453 124.367C284.059 149.269 249.781 178.986 208.925 207.595C168.068 236.203 128.419 258.25 97.36 270.776C81.8227 277.042 68.487 280.903 58.2499 282.034C53.1308 282.6 48.8392 282.476 45.456 281.662C42.0809 280.849 39.6713 279.368 38.1927 277.256C36.7141 275.144 36.1458 272.373 36.5369 268.924C36.929 265.466 38.2805 261.391 40.5626 256.774C45.1265 247.541 53.3166 236.331 64.5187 223.873C86.9121 198.971 121.19 169.254 162.047 140.646C202.904 112.038 242.552 89.991 273.611 77.4651C289.149 71.1991 302.484 67.3372 312.721 66.2065C317.841 65.6411 322.132 65.7649 325.515 66.579C328.89 67.3912 331.3 68.873 332.779 70.9847Z" stroke="url(#paint21_linear_5399_4278)" stroke-width="2"/>
<path opacity="0.793103" d="M341.207 82.7714C342.496 85.0039 342.821 87.8139 342.131 91.2161C341.439 94.6264 339.737 98.5682 337.061 102.969C331.71 111.769 322.574 122.223 310.329 133.656C285.85 156.512 249.113 183.128 205.918 208.067C162.724 233.005 121.305 251.513 89.2717 261.284C73.2474 266.172 59.6259 268.857 49.3292 269.091C44.1803 269.208 39.9159 268.711 36.6164 267.605C33.325 266.502 31.0537 264.815 29.7648 262.583C28.4759 260.35 28.1512 257.54 28.8415 254.138C29.5335 250.728 31.235 246.786 33.9108 242.386C39.262 233.585 48.398 223.131 60.6433 211.698C85.1218 188.842 121.859 162.226 165.054 137.287C208.249 112.349 249.668 93.8416 281.701 84.0704C297.725 79.1824 311.346 76.4975 321.643 76.2633C326.792 76.1462 331.056 76.6436 334.356 77.7495C337.647 78.8527 339.919 80.5389 341.207 82.7714Z" stroke="url(#paint22_linear_5399_4278)" stroke-width="2"/>
<path opacity="0.827586" d="M348.45 95.2423C349.539 97.5787 349.618 100.406 348.634 103.735C347.647 107.072 345.608 110.851 342.559 115.001C336.461 123.302 326.449 132.92 313.254 143.242C286.876 163.878 247.959 187.191 202.755 208.27C157.551 229.349 114.677 244.176 81.9143 251.118C65.525 254.591 51.7213 256.078 41.4434 255.414C36.3039 255.082 32.099 254.215 28.9085 252.826C25.7257 251.44 23.6101 249.562 22.5206 247.226C21.4311 244.889 21.3526 242.062 22.3368 238.733C23.3234 235.396 25.362 231.617 28.4112 227.466C34.509 219.166 44.5213 209.548 57.7165 199.225C84.0939 178.59 123.011 155.277 168.215 134.198C213.419 113.119 256.293 98.2922 289.056 91.3501C305.445 87.8773 319.249 86.3897 329.527 87.0538C334.667 87.3859 338.871 88.2531 342.062 89.6424C345.245 91.0283 347.36 92.906 348.45 95.2423Z" stroke="url(#paint23_linear_5399_4278)" stroke-width="2"/>
<path opacity="0.862069" d="M354.454 108.29C355.336 110.713 355.167 113.537 353.897 116.767C352.623 120.006 350.263 123.592 346.864 127.461C340.066 135.198 329.253 143.907 315.208 153.04C287.133 171.298 246.332 191.131 199.463 208.19C152.594 225.249 108.59 236.282 75.3473 240.343C58.7177 242.374 44.8369 242.653 34.6559 241.095C29.5649 240.317 25.4516 239.086 22.3944 237.424C19.3444 235.766 17.4005 233.711 16.5188 231.289C15.6371 228.866 15.8054 226.043 17.076 222.812C18.3496 219.574 20.7098 215.987 24.1091 212.118C30.9071 204.381 41.7196 195.672 55.7643 186.539C83.8398 168.281 124.641 148.448 171.51 131.39C218.379 114.331 262.383 103.297 295.625 99.2365C312.255 97.2053 326.136 96.9266 336.317 98.4839C341.408 99.2627 345.521 100.493 348.578 102.155C351.628 103.813 353.572 105.868 354.454 108.29Z" stroke="url(#paint24_linear_5399_4278)" stroke-width="2"/>
<path opacity="0.896552" d="M359.17 121.807C359.838 124.297 359.424 127.095 357.877 130.203C356.326 133.318 353.662 136.685 349.938 140.243C342.492 147.358 330.961 155.092 316.174 162.966C286.614 178.708 244.24 194.909 196.062 207.818C147.885 220.727 103.087 227.884 69.6168 229.031C52.8734 229.605 39.0211 228.673 29.0146 226.234C24.0109 225.015 20.0205 223.431 17.1197 221.508C14.2259 219.591 12.4685 217.374 11.8013 214.884C11.1341 212.394 11.5478 209.596 13.0951 206.488C14.6462 203.373 17.3099 200.006 21.0335 196.448C28.48 189.333 40.0104 181.6 54.7976 173.725C84.3575 157.984 126.732 141.783 174.909 128.874C223.087 115.964 267.885 108.808 301.355 107.66C318.098 107.086 331.951 108.018 341.957 110.457C346.961 111.677 350.951 113.261 353.852 115.183C356.746 117.1 358.503 119.317 359.17 121.807Z" stroke="url(#paint25_linear_5399_4278)" stroke-width="2"/>
<path opacity="0.931035" d="M362.566 135.678C363.013 138.217 362.357 140.969 360.545 143.929C358.728 146.897 355.781 150.02 351.762 153.24C343.723 159.679 331.563 166.378 316.146 172.933C285.326 186.039 241.701 198.485 192.582 207.146C143.463 215.807 98.2116 219.032 64.7686 217.258C48.0389 216.371 34.3206 214.235 24.5647 210.933C19.6863 209.282 15.8491 207.356 13.1269 205.189C10.4113 203.026 8.8537 200.665 8.40606 198.126C7.95842 195.587 8.61443 192.836 10.4267 189.875C12.2434 186.907 15.1904 183.785 19.21 180.565C27.2483 174.126 39.4088 167.427 54.826 160.871C85.6454 147.766 129.271 135.32 178.39 126.659C227.509 117.997 272.76 114.772 306.203 116.546C322.933 117.434 336.651 119.57 346.407 122.871C351.285 124.522 355.123 126.448 357.845 128.616C360.56 130.778 362.118 133.14 362.566 135.678Z" stroke="url(#paint26_linear_5399_4278)" stroke-width="2"/>
<path opacity="0.965517" d="M364.613 149.788C364.838 152.356 363.944 155.04 361.881 157.831C359.813 160.63 356.605 163.483 352.32 166.34C343.751 172.054 331.053 177.668 315.123 182.855C283.278 193.224 238.735 201.821 189.047 206.168C139.36 210.515 94.0002 209.784 60.8391 205.102C44.2504 202.76 30.7704 199.437 21.3394 195.297C16.6235 193.228 12.9688 190.975 10.4459 188.578C7.929 186.187 6.58317 183.699 6.35849 181.131C6.13382 178.563 7.02715 175.879 9.09059 173.087C11.159 170.289 14.3669 167.435 18.6518 164.578C27.2208 158.864 39.9189 153.25 55.8488 148.063C87.6931 137.694 132.237 129.097 181.924 124.75C231.611 120.403 276.971 121.134 310.132 125.816C326.721 128.158 340.201 131.482 349.632 135.621C354.348 137.691 358.003 139.944 360.526 142.341C363.043 144.731 364.388 147.219 364.613 149.788Z" stroke="url(#paint27_linear_5399_4278)" stroke-width="2"/>
<path d="M365.297 164.016C365.297 166.594 364.173 169.19 361.874 171.791C359.57 174.398 356.125 176.961 351.608 179.434C342.573 184.38 329.434 188.865 313.113 192.644C280.486 200.199 235.363 204.88 185.486 204.88C135.609 204.88 90.4849 200.199 57.8581 192.644C41.5366 188.865 28.3976 184.38 19.3633 179.434C14.8456 176.961 11.4012 174.398 9.09676 171.791C6.79787 169.19 5.67401 166.594 5.67401 164.016C5.67401 161.438 6.79787 158.842 9.09676 156.241C11.4012 153.634 14.8456 151.071 19.3633 148.598C28.3976 143.652 41.5366 139.166 57.8581 135.387C90.4849 127.833 135.609 123.151 185.486 123.151C235.363 123.151 280.486 127.833 313.113 135.387C329.434 139.166 342.573 143.652 351.608 148.598C356.125 151.071 359.57 153.634 361.874 156.241C364.173 158.842 365.297 161.438 365.297 164.016Z" stroke="url(#paint28_linear_5399_4278)" stroke-width="2"/>
</g>
<defs>
<linearGradient id="paint0_linear_5399_4278" x1="158.576" y1="236.506" x2="212.396" y2="172.366" gradientUnits="userSpaceOnUse">
<stop stop-color="#EF41EA"/>
<stop offset="1" stop-color="#13DEF6"/>
</linearGradient>
<linearGradient id="paint1_linear_5399_4278" x1="155.883" y1="232.595" x2="215.089" y2="173.39" gradientUnits="userSpaceOnUse">
<stop stop-color="#EF41EA"/>
<stop offset="1" stop-color="#13DEF6"/>
</linearGradient>
<linearGradient id="paint2_linear_5399_4278" x1="153.416" y1="228.459" x2="217.556" y2="174.639" gradientUnits="userSpaceOnUse">
<stop stop-color="#EF41EA"/>
<stop offset="1" stop-color="#13DEF6"/>
</linearGradient>
<linearGradient id="paint3_linear_5399_4278" x1="151.193" y1="224.117" x2="219.78" y2="176.092" gradientUnits="userSpaceOnUse">
<stop stop-color="#EF41EA"/>
<stop offset="1" stop-color="#13DEF6"/>
</linearGradient>
<linearGradient id="paint4_linear_5399_4278" x1="149.23" y1="219.594" x2="221.741" y2="177.73" gradientUnits="userSpaceOnUse">
<stop stop-color="#EF41EA"/>
<stop offset="1" stop-color="#13DEF6"/>
</linearGradient>
<linearGradient id="paint5_linear_5399_4278" x1="147.544" y1="214.911" x2="223.428" y2="179.526" gradientUnits="userSpaceOnUse">
<stop stop-color="#EF41EA"/>
<stop offset="1" stop-color="#13DEF6"/>
</linearGradient>
<linearGradient id="paint6_linear_5399_4278" x1="146.145" y1="210.093" x2="224.825" y2="181.456" gradientUnits="userSpaceOnUse">
<stop stop-color="#EF41EA"/>
<stop offset="1" stop-color="#13DEF6"/>
</linearGradient>
<linearGradient id="paint7_linear_5399_4278" x1="145.048" y1="205.167" x2="225.924" y2="183.496" gradientUnits="userSpaceOnUse">
<stop stop-color="#EF41EA"/>
<stop offset="1" stop-color="#13DEF6"/>
</linearGradient>
<linearGradient id="paint8_linear_5399_4278" x1="144.257" y1="200.157" x2="226.714" y2="185.618" gradientUnits="userSpaceOnUse">
<stop stop-color="#EF41EA"/>
<stop offset="1" stop-color="#13DEF6"/>
</linearGradient>
<linearGradient id="paint9_linear_5399_4278" x1="143.78" y1="195.093" x2="227.191" y2="187.796" gradientUnits="userSpaceOnUse">
<stop stop-color="#EF41EA"/>
<stop offset="1" stop-color="#13DEF6"/>
</linearGradient>
<linearGradient id="paint10_linear_5399_4278" x1="143.621" y1="190" x2="227.35" y2="190" gradientUnits="userSpaceOnUse">
<stop stop-color="#EF41EA"/>
<stop offset="1" stop-color="#13DEF6"/>
</linearGradient>
<linearGradient id="paint11_linear_5399_4278" x1="143.78" y1="184.908" x2="227.191" y2="192.205" gradientUnits="userSpaceOnUse">
<stop stop-color="#EF41EA"/>
<stop offset="1" stop-color="#13DEF6"/>
</linearGradient>
<linearGradient id="paint12_linear_5399_4278" x1="144.258" y1="179.843" x2="226.715" y2="194.382" gradientUnits="userSpaceOnUse">
<stop stop-color="#EF41EA"/>
<stop offset="1" stop-color="#13DEF6"/>
</linearGradient>
<linearGradient id="paint13_linear_5399_4278" x1="145.048" y1="174.834" x2="225.924" y2="196.505" gradientUnits="userSpaceOnUse">
<stop stop-color="#EF41EA"/>
<stop offset="1" stop-color="#13DEF6"/>
</linearGradient>
<linearGradient id="paint14_linear_5399_4278" x1="146.146" y1="169.907" x2="224.826" y2="198.544" gradientUnits="userSpaceOnUse">
<stop stop-color="#EF41EA"/>
<stop offset="1" stop-color="#13DEF6"/>
</linearGradient>
<linearGradient id="paint15_linear_5399_4278" x1="147.544" y1="165.089" x2="223.428" y2="200.475" gradientUnits="userSpaceOnUse">
<stop stop-color="#EF41EA"/>
<stop offset="1" stop-color="#13DEF6"/>
</linearGradient>
<linearGradient id="paint16_linear_5399_4278" x1="149.23" y1="160.407" x2="221.742" y2="202.271" gradientUnits="userSpaceOnUse">
<stop stop-color="#EF41EA"/>
<stop offset="1" stop-color="#13DEF6"/>
</linearGradient>
<linearGradient id="paint17_linear_5399_4278" x1="151.193" y1="155.883" x2="219.78" y2="203.908" gradientUnits="userSpaceOnUse">
<stop stop-color="#EF41EA"/>
<stop offset="1" stop-color="#13DEF6"/>
</linearGradient>
<linearGradient id="paint18_linear_5399_4278" x1="153.416" y1="151.541" x2="217.556" y2="205.361" gradientUnits="userSpaceOnUse">
<stop stop-color="#EF41EA"/>
<stop offset="1" stop-color="#13DEF6"/>
</linearGradient>
<linearGradient id="paint19_linear_5399_4278" x1="155.884" y1="147.405" x2="215.089" y2="206.61" gradientUnits="userSpaceOnUse">
<stop stop-color="#EF41EA"/>
<stop offset="1" stop-color="#13DEF6"/>
</linearGradient>
<linearGradient id="paint20_linear_5399_4278" x1="158.575" y1="143.494" x2="212.395" y2="207.635" gradientUnits="userSpaceOnUse">
<stop stop-color="#EF41EA"/>
<stop offset="1" stop-color="#13DEF6"/>
</linearGradient>
<linearGradient id="paint21_linear_5399_4278" x1="161.473" y1="139.827" x2="209.498" y2="208.414" gradientUnits="userSpaceOnUse">
<stop stop-color="#EF41EA"/>
<stop offset="1" stop-color="#13DEF6"/>
</linearGradient>
<linearGradient id="paint22_linear_5399_4278" x1="164.554" y1="136.421" x2="206.418" y2="208.933" gradientUnits="userSpaceOnUse">
<stop stop-color="#EF41EA"/>
<stop offset="1" stop-color="#13DEF6"/>
</linearGradient>
<linearGradient id="paint23_linear_5399_4278" x1="167.792" y1="133.292" x2="203.178" y2="209.176" gradientUnits="userSpaceOnUse">
<stop stop-color="#EF41EA"/>
<stop offset="1" stop-color="#13DEF6"/>
</linearGradient>
<linearGradient id="paint24_linear_5399_4278" x1="171.168" y1="130.45" x2="199.805" y2="209.129" gradientUnits="userSpaceOnUse">
<stop stop-color="#EF41EA"/>
<stop offset="1" stop-color="#13DEF6"/>
</linearGradient>
<linearGradient id="paint25_linear_5399_4278" x1="174.651" y1="127.908" x2="196.321" y2="208.784" gradientUnits="userSpaceOnUse">
<stop stop-color="#EF41EA"/>
<stop offset="1" stop-color="#13DEF6"/>
</linearGradient>
<linearGradient id="paint26_linear_5399_4278" x1="178.216" y1="125.674" x2="192.756" y2="208.131" gradientUnits="userSpaceOnUse">
<stop stop-color="#EF41EA"/>
<stop offset="1" stop-color="#13DEF6"/>
</linearGradient>
<linearGradient id="paint27_linear_5399_4278" x1="181.837" y1="123.754" x2="189.135" y2="207.164" gradientUnits="userSpaceOnUse">
<stop stop-color="#EF41EA"/>
<stop offset="1" stop-color="#13DEF6"/>
</linearGradient>
<linearGradient id="paint28_linear_5399_4278" x1="185.486" y1="122.151" x2="185.486" y2="205.88" gradientUnits="userSpaceOnUse">
<stop stop-color="#EF41EA"/>
<stop offset="1" stop-color="#13DEF6"/>
</linearGradient>
</defs>
</svg>
