<svg width="41" height="41" viewBox="0 0 41 41" fill="none" xmlns="http://www.w3.org/2000/svg">
<g clip-path="url(#clip0_1524_6884)">
<path d="M20.5 40.5C31.5457 40.5 40.5 31.5457 40.5 20.5C40.5 9.4543 31.5457 0.5 20.5 0.5C9.4543 0.5 0.5 9.4543 0.5 20.5C0.5 31.5457 9.4543 40.5 20.5 40.5Z" fill="#EDBC04"/>
<path d="M20.7615 14.3618L24.7761 18.3772C24.9205 18.5216 25.1547 18.5216 25.299 18.3772L27.4151 16.2606C27.5594 16.1163 27.5594 15.8822 27.4151 15.7379L20.7614 9.0827C20.6171 8.93825 20.3828 8.93825 20.2385 9.0827L13.5873 15.7355C13.4429 15.8798 13.4429 16.1139 13.5873 16.2583L15.7034 18.3748C15.8477 18.5192 16.0818 18.5192 16.2263 18.3748L20.2385 14.3618C20.3831 14.2174 20.6171 14.2174 20.7615 14.3618Z" fill="white"/>
<path d="M11.201 18.1219L9.08483 20.2384C8.94047 20.3829 8.94047 20.6169 9.08483 20.7613L11.2008 22.8777C11.3452 23.0222 11.5793 23.0222 11.7237 22.8777L13.8398 20.7612C13.9842 20.6169 13.9842 20.3827 13.8398 20.2384L11.7238 18.122C11.5795 17.9776 11.3454 17.9776 11.201 18.1219Z" fill="white"/>
<path d="M20.7612 31.9172L27.4161 25.2609C27.5604 25.1165 27.5604 24.8822 27.4158 24.7379L25.2987 22.6226C25.1542 22.4783 24.9202 22.4783 24.7758 22.6227L20.7612 26.638C20.6168 26.7825 20.3827 26.7825 20.2384 26.638L16.2257 22.6247C16.0814 22.4805 15.8477 22.4803 15.7032 22.6243L13.584 24.738C13.4393 24.8825 13.4391 25.1167 13.5836 25.2612L20.2384 31.9172C20.3828 32.0616 20.6168 32.0616 20.7612 31.9172Z" fill="white"/>
<path d="M29.2764 18.1229L27.1602 20.2396C27.0159 20.3839 27.0159 20.618 27.1602 20.7623L29.2764 22.8789C29.4206 23.0233 29.6548 23.0233 29.7992 22.8789L31.9154 20.7623C32.0596 20.6179 32.0596 20.3837 31.9154 20.2394L29.7992 18.1229C29.6548 17.9786 29.4208 17.9786 29.2764 18.1229Z" fill="white"/>
<path d="M22.9178 20.2387L20.7615 18.082C20.6172 17.9375 20.3829 17.9375 20.2386 18.082L18.0823 20.2387C17.938 20.383 17.938 20.6171 18.0823 20.7614L20.2386 22.9182C20.3829 23.0628 20.6172 23.0628 20.7615 22.9182L22.9178 20.7614C23.062 20.617 23.062 20.383 22.9178 20.2387Z" fill="white"/>
</g>
<defs>
<clipPath id="clip0_1524_6884">
<rect width="40" height="40" fill="white" transform="translate(0.5 0.5)"/>
</clipPath>
</defs>
</svg>
