<svg width="17" height="16" viewBox="0 0 17 16" fill="none" xmlns="http://www.w3.org/2000/svg">
<path fill-rule="evenodd" clip-rule="evenodd" d="M8.81242 13.333C11.7579 13.333 14.1458 10.9452 14.1458 7.99967C14.1458 5.05416 11.7579 2.66634 8.81242 2.66634C5.8669 2.66634 3.47909 5.05416 3.47909 7.99967C3.47909 10.9452 5.8669 13.333 8.81242 13.333ZM8.81242 14.6663C12.4943 14.6663 15.4791 11.6816 15.4791 7.99967C15.4791 4.31778 12.4943 1.33301 8.81242 1.33301C5.13052 1.33301 2.14575 4.31778 2.14575 7.99967C2.14575 11.6816 5.13052 14.6663 8.81242 14.6663Z" fill="#A84DFF"/>
<path fill-rule="evenodd" clip-rule="evenodd" d="M8.81242 4C9.18061 4 9.47909 4.29848 9.47909 4.66667V7.72386L10.9505 9.19526C11.2108 9.45561 11.2108 9.87772 10.9505 10.1381C10.6901 10.3984 10.268 10.3984 10.0077 10.1381L8.34101 8.4714C8.21599 8.34638 8.14575 8.17681 8.14575 8V4.66667C8.14575 4.29848 8.44423 4 8.81242 4Z" fill="#A84DFF"/>
</svg>
