<svg width="16" height="16" viewBox="0 0 16 16" fill="none" xmlns="http://www.w3.org/2000/svg">
<path fill-rule="evenodd" clip-rule="evenodd" d="M8.00016 13.3335C10.9457 13.3335 13.3335 10.9457 13.3335 8.00016C13.3335 5.05464 10.9457 2.66683 8.00016 2.66683C5.05464 2.66683 2.66683 5.05464 2.66683 8.00016C2.66683 10.9457 5.05464 13.3335 8.00016 13.3335ZM8.00016 14.6668C11.6821 14.6668 14.6668 11.6821 14.6668 8.00016C14.6668 4.31826 11.6821 1.3335 8.00016 1.3335C4.31826 1.3335 1.3335 4.31826 1.3335 8.00016C1.3335 11.6821 4.31826 14.6668 8.00016 14.6668Z" fill="#A84DFF"/>
<path fill-rule="evenodd" clip-rule="evenodd" d="M8.00016 4C8.36835 4 8.66683 4.29848 8.66683 4.66667V7.72386L10.1382 9.19526C10.3986 9.45561 10.3986 9.87772 10.1382 10.1381C9.87788 10.3984 9.45577 10.3984 9.19542 10.1381L7.52876 8.4714C7.40373 8.34638 7.3335 8.17681 7.3335 8V4.66667C7.3335 4.29848 7.63197 4 8.00016 4Z" fill="#A84DFF"/>
</svg>
