<svg width="470" height="52" viewBox="0 0 470 52" fill="none" xmlns="http://www.w3.org/2000/svg">
<g filter="url(#filter0_d_933_20216)">
<path d="M27.3222 43.6C23.0822 43.6 19.2422 42.68 15.8022 40.84C12.4022 38.96 9.72219 36.38 7.76219 33.1C5.84219 29.82 4.88219 26.12 4.88219 22C4.88219 17.88 5.86219 14.18 7.82219 10.9C9.78219 7.62 12.4622 5.06 15.8622 3.22C19.3022 1.34 23.1422 0.399998 27.3822 0.399998C30.8222 0.399998 33.9622 0.999998 36.8022 2.2C39.6422 3.4 42.0422 5.14 44.0022 7.42L38.9622 12.16C35.9222 8.88 32.1822 7.24 27.7422 7.24C24.8622 7.24 22.2822 7.88 20.0022 9.16C17.7222 10.4 15.9422 12.14 14.6622 14.38C13.3822 16.62 12.7422 19.16 12.7422 22C12.7422 24.84 13.3822 27.38 14.6622 29.62C15.9422 31.86 17.7222 33.62 20.0022 34.9C22.2822 36.14 24.8622 36.76 27.7422 36.76C32.1822 36.76 35.9222 35.1 38.9622 31.78L44.0022 36.58C42.0422 38.86 39.6222 40.6 36.7422 41.8C33.9022 43 30.7622 43.6 27.3222 43.6ZM70.217 43.6C65.937 43.6 62.077 42.68 58.637 40.84C55.197 38.96 52.497 36.38 50.537 33.1C48.577 29.78 47.597 26.08 47.597 22C47.597 17.92 48.577 14.24 50.537 10.96C52.497 7.64 55.197 5.06 58.637 3.22C62.077 1.34 65.937 0.399998 70.217 0.399998C74.497 0.399998 78.357 1.34 81.797 3.22C85.237 5.06 87.937 7.62 89.897 10.9C91.857 14.18 92.837 17.88 92.837 22C92.837 26.12 91.857 29.82 89.897 33.1C87.937 36.38 85.237 38.96 81.797 40.84C78.357 42.68 74.497 43.6 70.217 43.6ZM70.217 36.76C73.017 36.76 75.537 36.14 77.777 34.9C80.017 33.62 81.777 31.86 83.057 29.62C84.337 27.34 84.977 24.8 84.977 22C84.977 19.2 84.337 16.68 83.057 14.44C81.777 12.16 80.017 10.4 77.777 9.16C75.537 7.88 73.017 7.24 70.217 7.24C67.417 7.24 64.897 7.88 62.657 9.16C60.417 10.4 58.657 12.16 57.377 14.44C56.097 16.68 55.457 19.2 55.457 22C55.457 24.8 56.097 27.34 57.377 29.62C58.657 31.86 60.417 33.62 62.657 34.9C64.897 36.14 67.417 36.76 70.217 36.76ZM139.685 43L139.625 15.16L125.825 38.2H122.345L108.545 15.52V43H101.105V0.999997H107.525L124.205 28.84L140.585 0.999997H147.005L147.065 43H139.685ZM158.41 0.999997H166.21V43H158.41V0.999997ZM214.89 0.999997V43H208.47L185.31 14.56V43H177.57V0.999997H183.99L207.15 29.44V0.999997H214.89ZM254.824 21.52H262.204V38.26C260.044 39.98 257.524 41.3 254.644 42.22C251.764 43.14 248.804 43.6 245.764 43.6C241.484 43.6 237.624 42.68 234.184 40.84C230.744 38.96 228.044 36.38 226.084 33.1C224.124 29.82 223.144 26.12 223.144 22C223.144 17.88 224.124 14.18 226.084 10.9C228.044 7.62 230.744 5.06 234.184 3.22C237.664 1.34 241.564 0.399998 245.884 0.399998C249.404 0.399998 252.604 0.979997 255.484 2.14C258.364 3.3 260.784 5 262.744 7.24L257.824 12.04C254.624 8.84 250.764 7.24 246.244 7.24C243.284 7.24 240.644 7.86 238.324 9.1C236.044 10.34 234.244 12.08 232.924 14.32C231.644 16.56 231.004 19.12 231.004 22C231.004 24.8 231.644 27.32 232.924 29.56C234.244 31.8 236.044 33.56 238.324 34.84C240.644 36.12 243.264 36.76 246.184 36.76C249.464 36.76 252.344 36.04 254.824 34.6V21.52ZM302.094 43.6C298.854 43.6 295.714 43.14 292.674 42.22C289.674 41.3 287.294 40.08 285.534 38.56L288.234 32.5C289.954 33.86 292.054 34.98 294.534 35.86C297.054 36.7 299.574 37.12 302.094 37.12C305.214 37.12 307.534 36.62 309.054 35.62C310.614 34.62 311.394 33.3 311.394 31.66C311.394 30.46 310.954 29.48 310.074 28.72C309.234 27.92 308.154 27.3 306.834 26.86C305.514 26.42 303.714 25.92 301.434 25.36C298.234 24.6 295.634 23.84 293.634 23.08C291.674 22.32 289.974 21.14 288.534 19.54C287.134 17.9 286.434 15.7 286.434 12.94C286.434 10.62 287.054 8.52 288.294 6.64C289.574 4.72 291.474 3.2 293.994 2.08C296.554 0.959998 299.674 0.399998 303.354 0.399998C305.914 0.399998 308.434 0.719998 310.914 1.36C313.394 2 315.534 2.92 317.334 4.12L314.874 10.18C313.034 9.1 311.114 8.28 309.114 7.72C307.114 7.16 305.174 6.88 303.294 6.88C300.214 6.88 297.914 7.4 296.394 8.44C294.914 9.48 294.174 10.86 294.174 12.58C294.174 13.78 294.594 14.76 295.434 15.52C296.314 16.28 297.414 16.88 298.734 17.32C300.054 17.76 301.854 18.26 304.134 18.82C307.254 19.54 309.814 20.3 311.814 21.1C313.814 21.86 315.514 23.04 316.914 24.64C318.354 26.24 319.074 28.4 319.074 31.12C319.074 33.44 318.434 35.54 317.154 37.42C315.914 39.3 314.014 40.8 311.454 41.92C308.894 43.04 305.774 43.6 302.094 43.6ZM346.428 43.6C342.148 43.6 338.288 42.68 334.848 40.84C331.408 38.96 328.708 36.38 326.748 33.1C324.788 29.78 323.808 26.08 323.808 22C323.808 17.92 324.788 14.24 326.748 10.96C328.708 7.64 331.408 5.06 334.848 3.22C338.288 1.34 342.148 0.399998 346.428 0.399998C350.708 0.399998 354.568 1.34 358.008 3.22C361.448 5.06 364.148 7.62 366.108 10.9C368.068 14.18 369.048 17.88 369.048 22C369.048 26.12 368.068 29.82 366.108 33.1C364.148 36.38 361.448 38.96 358.008 40.84C354.568 42.68 350.708 43.6 346.428 43.6ZM346.428 36.76C349.228 36.76 351.748 36.14 353.988 34.9C356.228 33.62 357.988 31.86 359.268 29.62C360.548 27.34 361.188 24.8 361.188 22C361.188 19.2 360.548 16.68 359.268 14.44C357.988 12.16 356.228 10.4 353.988 9.16C351.748 7.88 349.228 7.24 346.428 7.24C343.628 7.24 341.108 7.88 338.868 9.16C336.628 10.4 334.868 12.16 333.588 14.44C332.308 16.68 331.668 19.2 331.668 22C331.668 24.8 332.308 27.34 333.588 29.62C334.868 31.86 336.628 33.62 338.868 34.9C341.108 36.14 343.628 36.76 346.428 36.76ZM396.936 43.6C392.656 43.6 388.796 42.68 385.356 40.84C381.916 38.96 379.216 36.38 377.256 33.1C375.296 29.78 374.316 26.08 374.316 22C374.316 17.92 375.296 14.24 377.256 10.96C379.216 7.64 381.916 5.06 385.356 3.22C388.796 1.34 392.656 0.399998 396.936 0.399998C401.216 0.399998 405.076 1.34 408.516 3.22C411.956 5.06 414.656 7.62 416.616 10.9C418.576 14.18 419.556 17.88 419.556 22C419.556 26.12 418.576 29.82 416.616 33.1C414.656 36.38 411.956 38.96 408.516 40.84C405.076 42.68 401.216 43.6 396.936 43.6ZM396.936 36.76C399.736 36.76 402.256 36.14 404.496 34.9C406.736 33.62 408.496 31.86 409.776 29.62C411.056 27.34 411.696 24.8 411.696 22C411.696 19.2 411.056 16.68 409.776 14.44C408.496 12.16 406.736 10.4 404.496 9.16C402.256 7.88 399.736 7.24 396.936 7.24C394.136 7.24 391.616 7.88 389.376 9.16C387.136 10.4 385.376 12.16 384.096 14.44C382.816 16.68 382.176 19.2 382.176 22C382.176 24.8 382.816 27.34 384.096 29.62C385.376 31.86 387.136 33.62 389.376 34.9C391.616 36.14 394.136 36.76 396.936 36.76ZM465.144 0.999997V43H458.724L435.564 14.56V43H427.824V0.999997H434.244L457.404 29.44V0.999997H465.144Z" fill="white"/>
</g>
<defs>
<filter id="filter0_d_933_20216" x="0.882202" y="0.399902" width="468.261" height="51.1997" filterUnits="userSpaceOnUse" color-interpolation-filters="sRGB">
<feFlood flood-opacity="0" result="BackgroundImageFix"/>
<feColorMatrix in="SourceAlpha" type="matrix" values="0 0 0 0 0 0 0 0 0 0 0 0 0 0 0 0 0 0 127 0" result="hardAlpha"/>
<feOffset dy="4"/>
<feGaussianBlur stdDeviation="2"/>
<feComposite in2="hardAlpha" operator="out"/>
<feColorMatrix type="matrix" values="0 0 0 0 0 0 0 0 0 0 0 0 0 0 0 0 0 0 0.25 0"/>
<feBlend mode="normal" in2="BackgroundImageFix" result="effect1_dropShadow_933_20216"/>
<feBlend mode="normal" in="SourceGraphic" in2="effect1_dropShadow_933_20216" result="shape"/>
</filter>
</defs>
</svg>
