<svg width="930" height="96" viewBox="0 0 930 96" fill="none"
    xmlns="http://www.w3.org/2000/svg">
    <g filter="url(#filter0_d_933_21021)">
        <path d="M26.6044 81.68L26.3624 82.1176L26.3685 82.1209L26.6044 81.68ZM10.5244 66.2L10.0929 66.4526L10.0952 66.4565L10.5244 66.2ZM10.6444 21.8L10.2152 21.5435L10.6444 21.8ZM26.7244 6.43999L26.9624 6.87974L26.9642 6.87875L26.7244 6.43999ZM68.6044 4.4L68.4098 4.86057L68.6044 4.4ZM83.0044 14.84L83.3469 15.2042L83.6952 14.8766L83.3835 14.5141L83.0044 14.84ZM72.9244 24.32L72.5577 24.6599L72.9 25.0293L73.2669 24.6842L72.9244 24.32ZM35.0044 18.32L35.2433 18.7593L35.2491 18.756L35.0044 18.32ZM24.3244 28.76L24.7585 29.0081L24.3244 28.76ZM24.3244 59.24L24.7585 58.9919L24.3244 59.24ZM35.0044 69.8L34.7596 70.236L34.7655 70.2392L35.0044 69.8ZM72.9244 63.56L73.2692 63.1979L72.9 62.8463L72.5556 63.2223L72.9244 63.56ZM83.0044 73.16L83.3835 73.4859L83.6933 73.1256L83.3492 72.7979L83.0044 73.16ZM68.4844 83.6L68.2921 83.1385L68.2898 83.1394L68.4844 83.6ZM49.6444 86.7C41.2393 86.7 33.6415 84.877 26.8402 81.2391L26.3685 82.1209C33.3273 85.843 41.0894 87.7 49.6444 87.7V86.7ZM26.8463 81.2424C20.1223 77.5244 14.8275 72.4263 10.9536 65.9435L10.0952 66.4565C14.0613 73.0936 19.4865 78.3156 26.3624 82.1176L26.8463 81.2424ZM10.9559 65.9474C7.16447 59.4704 5.26438 52.1589 5.26438 44H4.26438C4.26438 52.3211 6.20428 59.8096 10.0929 66.4526L10.9559 65.9474ZM5.26438 44C5.26438 35.843 7.20353 28.5329 11.0736 22.0565L10.2152 21.5435C6.24522 28.1871 4.26438 35.677 4.26438 44H5.26438ZM11.0736 22.0565C14.9469 15.5746 20.2404 10.5175 26.9624 6.87973L26.4864 6.00026C19.6083 9.72251 14.1818 14.9054 10.2152 21.5435L11.0736 22.0565ZM26.9642 6.87875C33.7647 3.16217 41.3612 1.3 49.7644 1.3V0.299995C41.2076 0.299995 33.4441 2.19781 26.4846 6.00124L26.9642 6.87875ZM49.7644 1.3C56.5853 1.3 62.7981 2.48944 68.4098 4.86057L68.799 3.93942C63.0507 1.51055 56.7035 0.299995 49.7644 0.299995V1.3ZM68.4098 4.86057C74.0206 7.23132 78.7568 10.666 82.6252 15.1659L83.3835 14.5141C79.4119 9.89401 74.5482 6.36867 68.799 3.93942L68.4098 4.86057ZM82.6618 14.4758L72.5818 23.9558L73.2669 24.6842L83.3469 15.2042L82.6618 14.4758ZM73.2911 23.9801C67.1172 17.3189 59.5047 13.98 50.4844 13.98V14.98C59.224 14.98 66.5715 18.2011 72.5577 24.6599L73.2911 23.9801ZM50.4844 13.98C44.6476 13.98 39.4018 15.2779 34.7596 17.884L35.2491 18.756C39.727 16.2421 44.8012 14.98 50.4844 14.98V13.98ZM34.7655 17.8808C30.1244 20.4048 26.4966 23.9508 23.8903 28.5119L24.7585 29.0081C27.2721 24.6092 30.7643 21.1952 35.2433 18.7592L34.7655 17.8808ZM23.8903 28.5119C21.2828 33.0749 19.9844 38.242 19.9844 44H20.9844C20.9844 38.398 22.2459 33.4051 24.7585 29.0081L23.8903 28.5119ZM19.9844 44C19.9844 49.758 21.2828 54.9251 23.8903 59.4881L24.7585 58.9919C22.2459 54.5949 20.9844 49.602 20.9844 44H19.9844ZM23.8903 59.4881C26.4958 64.0478 30.1218 67.6323 34.7596 70.236L35.2491 69.364C30.767 66.8477 27.2729 63.3922 24.7585 58.9919L23.8903 59.4881ZM34.7655 70.2392C39.4066 72.7634 44.6503 74.02 50.4844 74.02V73.02C44.7985 73.02 39.7222 71.7967 35.2433 69.3608L34.7655 70.2392ZM50.4844 74.02C59.5068 74.02 67.1199 70.6395 73.2931 63.8977L72.5556 63.2223C66.5688 69.7605 59.2219 73.02 50.4844 73.02V74.02ZM72.5796 63.9221L82.6596 73.5221L83.3492 72.7979L73.2692 63.1979L72.5796 63.9221ZM82.6252 72.8341C78.758 77.3326 73.9829 80.7673 68.2921 83.1385L68.6767 84.0615C74.5059 81.6327 79.4107 78.1074 83.3835 73.4859L82.6252 72.8341ZM68.2898 83.1394C62.6781 85.5106 56.4653 86.7 49.6444 86.7V87.7C56.5835 87.7 62.9306 86.4894 68.679 84.0606L68.2898 83.1394ZM112.274 81.68L112.034 82.1188L112.038 82.1209L112.274 81.68ZM96.0741 66.2L95.6435 66.4542L95.6449 66.4565L96.0741 66.2ZM96.0741 21.92L96.5033 22.1765L96.5046 22.1742L96.0741 21.92ZM112.274 6.43999L112.51 6.88091L112.514 6.87875L112.274 6.43999ZM158.594 6.43999L158.354 6.87876L158.358 6.88089L158.594 6.43999ZM174.794 21.8L174.365 22.0565L174.794 21.8ZM174.794 66.2L174.365 65.9435L174.794 66.2ZM158.594 81.68L158.83 82.1209L158.834 82.1188L158.594 81.68ZM150.554 69.8L150.796 70.2375L150.802 70.2341L150.554 69.8ZM161.114 59.24L161.548 59.4881L161.55 59.4848L161.114 59.24ZM161.114 28.88L160.678 29.1248L160.68 29.1281L161.114 28.88ZM150.554 18.32L150.306 18.7542L150.312 18.7574L150.554 18.32ZM120.314 18.32L120.556 18.7575L120.562 18.7541L120.314 18.32ZM109.754 28.88L110.188 29.1281L110.19 29.1248L109.754 28.88ZM109.754 59.24L109.318 59.4848L109.32 59.4881L109.754 59.24ZM120.314 69.8L120.066 70.2342L120.072 70.2374L120.314 69.8ZM135.434 86.7C126.948 86.7 119.31 84.8766 112.51 81.2391L112.038 82.1209C118.998 85.8434 126.8 87.7 135.434 87.7V86.7ZM112.514 81.2412C105.71 77.5229 100.376 72.4249 96.5033 65.9435L95.6449 66.4565C99.6118 73.0951 105.078 78.3171 112.034 82.1188L112.514 81.2412ZM96.5046 65.9458C92.6328 59.3873 90.6941 52.076 90.6941 44H89.6941C89.6941 52.244 91.6754 59.7327 95.6435 66.4542L96.5046 65.9458ZM90.6941 44C90.6941 35.924 92.6328 28.6537 96.5033 22.1765L95.6449 21.6635C91.6754 28.3063 89.6941 35.756 89.6941 44H90.6941ZM96.5046 22.1742C100.377 15.6141 105.71 10.5182 112.51 6.88089L112.038 5.9991C105.078 9.72178 99.6107 14.9459 95.6435 21.6658L96.5046 22.1742ZM112.514 6.87875C119.314 3.16255 126.95 1.3 135.434 1.3V0.299995C126.798 0.299995 118.994 2.19744 112.034 6.00124L112.514 6.87875ZM135.434 1.3C143.918 1.3 151.554 3.16255 158.354 6.87875L158.834 6.00124C151.874 2.19744 144.07 0.299995 135.434 0.299995V1.3ZM158.358 6.88089C165.16 10.519 170.492 15.576 174.365 22.0565L175.223 21.5435C171.256 14.9039 165.788 9.72095 158.83 5.9991L158.358 6.88089ZM174.365 22.0565C178.235 28.5329 180.174 35.843 180.174 44H181.174C181.174 35.677 179.193 28.1871 175.223 21.5435L174.365 22.0565ZM180.174 44C180.174 52.157 178.235 59.4671 174.365 65.9435L175.223 66.4565C179.193 59.8129 181.174 52.323 181.174 44H180.174ZM174.365 65.9435C170.492 72.4249 165.158 77.5229 158.354 81.2412L158.834 82.1188C165.79 78.3171 171.256 73.0951 175.223 66.4565L174.365 65.9435ZM158.358 81.2391C151.558 84.8766 143.92 86.7 135.434 86.7V87.7C144.068 87.7 151.87 85.8434 158.83 82.1209L158.358 81.2391ZM135.434 74.02C141.111 74.02 146.235 72.7622 150.796 70.2374L150.312 69.3625C145.913 71.7978 140.957 73.02 135.434 73.02V74.02ZM150.802 70.2341C155.36 67.6298 158.944 64.0456 161.548 59.4881L160.68 58.9919C158.164 63.3944 154.708 66.8502 150.306 69.3659L150.802 70.2341ZM161.55 59.4848C164.155 54.8447 165.454 49.6795 165.454 44H164.454C164.454 49.5205 163.193 54.5153 160.678 58.9952L161.55 59.4848ZM165.454 44C165.454 38.3206 164.155 33.1938 161.548 28.6319L160.68 29.1281C163.193 33.5262 164.454 38.4794 164.454 44H165.454ZM161.55 28.6352C158.946 23.9961 155.359 20.4085 150.796 17.8826L150.312 18.7574C154.709 21.1915 158.163 24.6439 160.678 29.1248L161.55 28.6352ZM150.802 17.8859C146.24 15.2791 141.113 13.98 135.434 13.98V14.98C140.955 14.98 145.908 16.2409 150.306 18.7541L150.802 17.8859ZM135.434 13.98C129.755 13.98 124.628 15.2791 120.066 17.8859L120.562 18.7541C124.96 16.2409 129.913 14.98 135.434 14.98V13.98ZM120.072 17.8826C115.509 20.4085 111.923 23.9961 109.318 28.6352L110.19 29.1248C112.706 24.6439 116.159 21.1915 120.556 18.7574L120.072 17.8826ZM109.32 28.6319C106.713 33.1938 105.414 38.3206 105.414 44H106.414C106.414 38.4794 107.675 33.5262 110.188 29.1281L109.32 28.6319ZM105.414 44C105.414 49.6795 106.713 54.8447 109.318 59.4848L110.19 58.9952C107.675 54.5153 106.414 49.5205 106.414 44H105.414ZM109.32 59.4881C111.924 64.0456 115.508 67.6298 120.066 70.2341L120.562 69.3659C116.16 66.8502 112.704 63.3944 110.188 58.9919L109.32 59.4881ZM120.072 70.2374C124.633 72.7622 129.757 74.02 135.434 74.02V73.02C129.911 73.02 124.955 71.7978 120.556 69.3625L120.072 70.2374ZM274.37 86L273.87 86.0011L273.871 86.5H274.37V86ZM274.25 30.32L274.75 30.3189L274.746 28.5186L273.821 30.0631L274.25 30.32ZM246.65 76.4V76.9H246.933L247.079 76.6569L246.65 76.4ZM239.69 76.4L239.263 76.6599L239.409 76.9H239.69V76.4ZM212.09 31.04L212.517 30.7801L211.59 29.2563V31.04H212.09ZM212.09 86V86.5H212.59V86H212.09ZM197.21 86H196.71V86.5H197.21V86ZM197.21 1.99999V1.49999H196.71V1.99999H197.21ZM210.05 1.99999L210.479 1.74302L210.333 1.49999H210.05V1.99999ZM243.41 57.68L242.981 57.937L243.414 58.6594L243.841 57.9335L243.41 57.68ZM276.17 1.99999V1.49999H275.884L275.739 1.74644L276.17 1.99999ZM289.01 1.99999L289.51 1.99928L289.509 1.49999H289.01V1.99999ZM289.13 86V86.5H289.63L289.63 85.9993L289.13 86ZM274.87 85.9989L274.75 30.3189L273.75 30.3211L273.87 86.0011L274.87 85.9989ZM273.821 30.0631L246.221 76.1431L247.079 76.6569L274.679 30.5769L273.821 30.0631ZM246.65 75.9H239.69V76.9H246.65V75.9ZM240.117 76.1401L212.517 30.7801L211.663 31.2999L239.263 76.6599L240.117 76.1401ZM211.59 31.04V86H212.59V31.04H211.59ZM212.09 85.5H197.21V86.5H212.09V85.5ZM197.71 86V1.99999H196.71V86H197.71ZM197.21 2.49999H210.05V1.49999H197.21V2.49999ZM209.621 2.25697L242.981 57.937L243.839 57.423L210.479 1.74302L209.621 2.25697ZM243.841 57.9335L276.601 2.25355L275.739 1.74644L242.979 57.4265L243.841 57.9335ZM276.17 2.49999H289.01V1.49999H276.17V2.49999ZM288.51 2.00071L288.63 86.0007L289.63 85.9993L289.51 1.99928L288.51 2.00071ZM289.13 85.5H274.37V86.5H289.13V85.5ZM311.819 1.99999V1.49999H311.319V1.99999H311.819ZM327.419 1.99999H327.919V1.49999H327.419V1.99999ZM327.419 86V86.5H327.919V86H327.419ZM311.819 86H311.319V86.5H311.819V86ZM311.819 2.49999H327.419V1.49999H311.819V2.49999ZM326.919 1.99999V86H327.919V1.99999H326.919ZM327.419 85.5H311.819V86.5H327.419V85.5ZM312.319 86V1.99999H311.319V86H312.319ZM424.779 1.99999H425.279V1.49999H424.779V1.99999ZM424.779 86V86.5H425.279V86H424.779ZM411.939 86L411.552 86.3157L411.702 86.5H411.939V86ZM365.619 29.12L366.007 28.8043L365.119 27.7142V29.12H365.619ZM365.619 86V86.5H366.119V86H365.619ZM350.139 86H349.639V86.5H350.139V86ZM350.139 1.99999V1.49999H349.639V1.99999H350.139ZM362.979 1.99999L363.367 1.68427L363.217 1.49999H362.979V1.99999ZM409.299 58.88L408.912 59.1957L409.799 60.2858V58.88H409.299ZM409.299 1.99999V1.49999H408.799V1.99999H409.299ZM424.279 1.99999V86H425.279V1.99999H424.279ZM424.779 85.5H411.939V86.5H424.779V85.5ZM412.327 85.6843L366.007 28.8043L365.232 29.4357L411.552 86.3157L412.327 85.6843ZM365.119 29.12V86H366.119V29.12H365.119ZM365.619 85.5H350.139V86.5H365.619V85.5ZM350.639 86V1.99999H349.639V86H350.639ZM350.139 2.49999H362.979V1.49999H350.139V2.49999ZM362.592 2.31572L408.912 59.1957L409.687 58.5643L363.367 1.68427L362.592 2.31572ZM409.799 58.88V1.99999H408.799V58.88H409.799ZM409.299 2.49999H424.779V1.49999H409.299V2.49999ZM504.648 43.04V42.54H504.148V43.04H504.648ZM519.408 43.04H519.908V42.54H519.408V43.04ZM519.408 76.52L519.719 76.9111L519.908 76.761V76.52H519.408ZM504.288 84.44L504.136 83.9637L504.288 84.44ZM463.368 81.68L463.128 82.1188L463.132 82.1209L463.368 81.68ZM447.168 66.2L446.739 66.4565L447.168 66.2ZM447.168 21.8L446.739 21.5435L447.168 21.8ZM463.368 6.43999L463.604 6.88089L463.605 6.87991L463.368 6.43999ZM505.968 4.27999L506.155 3.8162L505.968 4.27999ZM520.488 14.48L520.837 14.8379L521.176 14.5072L520.864 14.1507L520.488 14.48ZM510.648 24.08L510.294 24.4335L510.643 24.7828L510.997 24.4379L510.648 24.08ZM471.648 18.2L471.412 17.759L471.409 17.7608L471.648 18.2ZM460.848 28.64L460.417 28.3861L460.414 28.3919L460.848 28.64ZM460.848 59.12L460.414 59.3681L460.417 59.3738L460.848 59.12ZM471.648 69.68L471.403 70.116L471.406 70.1178L471.648 69.68ZM504.648 69.2L504.899 69.6324L505.148 69.4879V69.2H504.648ZM504.648 43.54H519.408V42.54H504.648V43.54ZM518.908 43.04V76.52H519.908V43.04H518.908ZM519.096 76.1289C514.828 79.5276 509.843 82.1404 504.136 83.9637L504.44 84.9163C510.252 83.0596 515.347 80.3924 519.719 76.9111L519.096 76.1289ZM504.136 83.9637C498.425 85.7879 492.556 86.7 486.528 86.7V87.7C492.659 87.7 498.63 86.7721 504.44 84.9163L504.136 83.9637ZM486.528 86.7C478.042 86.7 470.404 84.8766 463.604 81.2391L463.132 82.1209C470.091 85.8434 477.894 87.7 486.528 87.7V86.7ZM463.608 81.2412C456.804 77.5229 451.47 72.4249 447.597 65.9435L446.739 66.4565C450.706 73.0951 456.172 78.3171 463.128 82.1188L463.608 81.2412ZM447.597 65.9435C443.727 59.4671 441.788 52.157 441.788 44H440.788C440.788 52.323 442.769 59.8129 446.739 66.4565L447.597 65.9435ZM441.788 44C441.788 35.843 443.727 28.5329 447.597 22.0565L446.739 21.5435C442.769 28.1871 440.788 35.677 440.788 44H441.788ZM447.597 22.0565C451.469 15.576 456.802 10.519 463.604 6.88089L463.132 5.9991C456.174 9.72095 450.706 14.9039 446.739 21.5435L447.597 22.0565ZM463.605 6.87991C470.486 3.1629 478.203 1.3 486.768 1.3V0.299995C478.053 0.299995 470.17 2.19708 463.13 6.00008L463.605 6.87991ZM486.768 1.3C493.752 1.3 500.088 2.45069 505.781 4.74379L506.155 3.8162C500.328 1.4693 493.863 0.299995 486.768 0.299995V1.3ZM505.781 4.74379C511.471 7.03575 516.245 10.3909 520.112 14.8092L520.864 14.1507C516.89 9.60906 511.984 6.16424 506.155 3.8162L505.781 4.74379ZM520.139 14.1221L510.299 23.7221L510.997 24.4379L520.837 14.8379L520.139 14.1221ZM511.001 23.7264C504.508 17.2328 496.661 13.98 487.488 13.98V14.98C496.395 14.98 503.988 18.1272 510.294 24.4335L511.001 23.7264ZM487.488 13.98C481.496 13.98 476.133 15.2356 471.412 17.759L471.884 18.641C476.442 16.2044 481.64 14.98 487.488 14.98V13.98ZM471.409 17.7608C466.769 20.2841 463.103 23.8283 460.417 28.3862L461.279 28.8938C463.873 24.4917 467.406 21.0759 471.887 18.6392L471.409 17.7608ZM460.414 28.3919C457.806 32.956 456.508 38.1633 456.508 44H457.508C457.508 38.3167 458.77 33.284 461.282 28.8881L460.414 28.3919ZM456.508 44C456.508 49.6794 457.807 54.8062 460.414 59.3681L461.282 58.8719C458.769 54.4738 457.508 49.5206 457.508 44H456.508ZM460.417 59.3738C463.102 63.9304 466.767 67.513 471.403 70.116L471.893 69.244C467.409 66.727 463.873 63.2696 461.279 58.8661L460.417 59.3738ZM471.406 70.1178C476.128 72.7227 481.452 74.02 487.368 74.02V73.02C481.603 73.02 476.448 71.7573 471.889 69.2422L471.406 70.1178ZM487.368 74.02C494.003 74.02 499.852 72.5627 504.899 69.6324L504.397 68.7676C499.523 71.5973 493.853 73.02 487.368 73.02V74.02ZM505.148 69.2V43.04H504.148V69.2H505.148ZM580.347 84.44L580.201 84.918L580.202 84.9186L580.347 84.44ZM566.067 77.12L565.61 76.9165L565.459 77.2557L565.74 77.4984L566.067 77.12ZM571.467 65L571.777 64.6078L571.272 64.2086L571.01 64.7965L571.467 65ZM584.067 71.72L583.9 72.1913L583.909 72.1943L584.067 71.72ZM613.107 71.24L612.837 70.819L612.832 70.8223L613.107 71.24ZM615.147 57.44L614.802 57.8021L614.811 57.8105L614.82 57.8184L615.147 57.44ZM608.667 53.72L608.825 53.2457L608.667 53.72ZM597.867 50.72L597.986 50.2344L597.983 50.2335L597.867 50.72ZM582.267 46.16L582.086 46.6262L582.09 46.6274L582.267 46.16ZM572.067 39.08L571.687 39.4047L571.696 39.4145L572.067 39.08ZM571.587 13.28L571.171 13.0026L571.17 13.0047L571.587 13.28ZM582.987 4.16L582.787 3.70191L582.784 3.70309L582.987 4.16ZM616.827 2.72L616.702 3.20414L616.827 2.72ZM629.667 8.24L630.13 8.42806L630.284 8.05019L629.945 7.82397L629.667 8.24ZM624.747 20.36L624.494 20.7912L624.993 21.084L625.21 20.5481L624.747 20.36ZM613.227 15.44L613.092 15.9215L613.227 15.44ZM587.787 16.88L587.505 16.4673L587.5 16.4709L587.787 16.88ZM585.867 31.04L585.532 31.4109L585.54 31.4184L585.867 31.04ZM592.467 34.64L592.625 34.1656L592.467 34.64ZM603.267 37.64L603.148 38.1256L603.155 38.1272L603.267 37.64ZM618.627 42.2L618.441 42.6643L618.45 42.6674L618.627 42.2ZM628.827 49.28L628.451 49.6093L628.456 49.6145L628.827 49.28ZM629.307 74.84L628.894 74.5586L628.89 74.5647L629.307 74.84ZM617.907 83.84L617.707 83.3819L617.907 83.84ZM599.187 86.7C592.755 86.7 586.524 85.7869 580.492 83.9614L580.202 84.9186C586.33 86.7731 592.659 87.7 599.187 87.7V86.7ZM580.494 83.962C574.538 82.1356 569.847 79.7233 566.394 76.7416L565.74 77.4984C569.328 80.5966 574.156 83.0644 580.201 84.918L580.494 83.962ZM566.524 77.3235L571.924 65.2035L571.01 64.7965L565.61 76.9165L566.524 77.3235ZM571.157 65.3922C574.648 68.1522 578.898 70.4164 583.9 72.1912L584.234 71.2488C579.316 69.5036 575.167 67.2878 571.777 64.6078L571.157 65.3922ZM583.909 72.1943C588.997 73.8904 594.091 74.74 599.187 74.74V73.74C594.204 73.74 589.217 72.9096 584.225 71.2457L583.909 72.1943ZM599.187 74.74C605.463 74.74 610.221 73.7375 613.382 71.6577L612.832 70.8223C609.914 72.7425 605.391 73.74 599.187 73.74V74.74ZM613.377 71.6609C616.618 69.5831 618.287 66.7949 618.287 63.32H617.287C617.287 66.4051 615.836 68.8969 612.837 70.8191L613.377 71.6609ZM618.287 63.32C618.287 60.78 617.348 58.68 615.474 57.0616L614.82 57.8184C616.466 59.24 617.287 61.06 617.287 63.32H618.287ZM615.492 57.0779C613.749 55.4181 611.521 54.1443 608.825 53.2457L608.509 54.1943C611.093 55.0557 613.185 56.2619 614.802 57.8021L615.492 57.0779ZM608.825 53.2457C606.167 52.3595 602.552 51.3558 597.986 50.2344L597.748 51.2056C602.302 52.3242 605.888 53.3205 608.509 54.1943L608.825 53.2457ZM597.983 50.2335C591.594 48.7162 586.417 47.202 582.445 45.6926L582.09 46.6274C586.118 48.158 591.34 49.6838 597.752 51.2065L597.983 50.2335ZM582.448 45.6938C578.603 44.2029 575.268 41.8887 572.439 38.7455L571.696 39.4145C574.627 42.6713 578.092 45.0771 582.086 46.6262L582.448 45.6938ZM572.447 38.7554C569.744 35.5888 568.367 31.3151 568.367 25.88H567.367C567.367 31.4849 568.79 36.0112 571.687 39.4046L572.447 38.7554ZM568.367 25.88C568.367 21.3347 569.58 17.231 572.005 13.5553L571.17 13.0047C568.634 16.849 567.367 21.1452 567.367 25.88H568.367ZM572.003 13.5574C574.501 9.81038 578.22 6.82602 583.19 4.6169L582.784 3.70309C577.675 5.97398 573.793 9.06961 571.171 13.0026L572.003 13.5574ZM583.188 4.61807C588.228 2.41299 594.395 1.3 601.707 1.3V0.299995C594.299 0.299995 587.987 1.42699 582.787 3.70192L583.188 4.61807ZM601.707 1.3C606.785 1.3 611.783 1.93466 616.702 3.20414L616.952 2.23586C611.951 0.945328 606.869 0.299995 601.707 0.299995V1.3ZM616.702 3.20414C621.618 4.47264 625.844 6.29223 629.39 8.65602L629.945 7.82397C626.29 5.38776 621.957 3.52735 616.952 2.23586L616.702 3.20414ZM629.204 8.05193L624.284 20.1719L625.21 20.5481L630.13 8.42806L629.204 8.05193ZM625 19.9288C621.284 17.7476 617.405 16.0904 613.362 14.9585L613.092 15.9215C617.05 17.0296 620.85 18.6524 624.494 20.7912L625 19.9288ZM613.362 14.9585C609.323 13.8275 605.397 13.26 601.587 13.26V14.26C605.297 14.26 609.132 14.8125 613.092 15.9215L613.362 14.9585ZM601.587 13.26C595.387 13.26 590.667 14.3037 587.505 16.4673L588.07 17.2926C590.987 15.2963 595.467 14.26 601.587 14.26V13.26ZM587.5 16.4709C584.415 18.6388 582.847 21.5475 582.847 25.16H583.847C583.847 21.8925 585.24 19.2812 588.075 17.2891L587.5 16.4709ZM582.847 25.16C582.847 27.6918 583.74 29.7898 585.532 31.4108L586.203 30.6692C584.634 29.2502 583.847 27.4282 583.847 25.16H582.847ZM585.54 31.4184C587.359 32.9886 589.619 34.2177 592.309 35.1143L592.625 34.1656C590.035 33.3023 587.896 32.1314 586.194 30.6616L585.54 31.4184ZM592.309 35.1143C594.968 36.0005 598.582 37.0042 603.148 38.1256L603.386 37.1544C598.832 36.0358 595.247 35.0395 592.625 34.1656L592.309 35.1143ZM603.155 38.1272C609.381 39.5639 614.474 41.0771 618.441 42.6642L618.813 41.7358C614.781 40.1229 609.634 38.5961 603.38 37.1528L603.155 38.1272ZM618.45 42.6674C622.374 44.1585 625.705 46.4713 628.451 49.6093L629.203 48.9507C626.349 45.6887 622.881 43.2815 618.805 41.7326L618.45 42.6674ZM628.456 49.6145C631.233 52.7003 632.647 56.8898 632.647 62.24H633.647C633.647 56.7102 632.182 52.2596 629.199 48.9455L628.456 49.6145ZM632.647 62.24C632.647 66.7818 631.396 70.8833 628.894 74.5586L629.721 75.1214C632.338 71.2767 633.647 66.9782 633.647 62.24H632.647ZM628.89 74.5647C626.474 78.2267 622.76 81.1713 617.707 83.3819L618.108 84.2981C623.295 82.0287 627.18 78.9733 629.725 75.1153L628.89 74.5647ZM617.707 83.3819C612.667 85.587 606.499 86.7 599.187 86.7V87.7C606.595 87.7 612.908 86.573 618.108 84.2981L617.707 83.3819ZM664.696 81.68L664.456 82.1188L664.46 82.1209L664.696 81.68ZM648.496 66.2L648.065 66.4542L648.067 66.4565L648.496 66.2ZM648.496 21.92L648.925 22.1765L648.927 22.1742L648.496 21.92ZM664.696 6.43999L664.932 6.88091L664.936 6.87875L664.696 6.43999ZM711.016 6.43999L710.776 6.87876L710.78 6.88089L711.016 6.43999ZM727.216 21.8L726.787 22.0565L727.216 21.8ZM727.216 66.2L726.787 65.9435L727.216 66.2ZM711.016 81.68L711.252 82.1209L711.256 82.1188L711.016 81.68ZM702.976 69.8L703.218 70.2375L703.224 70.2341L702.976 69.8ZM713.536 59.24L713.97 59.4881L713.972 59.4848L713.536 59.24ZM713.536 28.88L713.1 29.1248L713.102 29.1281L713.536 28.88ZM702.976 18.32L702.728 18.7542L702.734 18.7574L702.976 18.32ZM672.736 18.32L672.978 18.7575L672.984 18.7541L672.736 18.32ZM662.176 28.88L662.61 29.1281L662.612 29.1248L662.176 28.88ZM662.176 59.24L661.74 59.4848L661.742 59.4881L662.176 59.24ZM672.736 69.8L672.488 70.2342L672.494 70.2374L672.736 69.8ZM687.856 86.7C679.37 86.7 671.732 84.8766 664.932 81.2391L664.46 82.1209C671.42 85.8434 679.222 87.7 687.856 87.7V86.7ZM664.936 81.2412C658.132 77.5229 652.798 72.4249 648.925 65.9435L648.067 66.4565C652.034 73.0951 657.5 78.3171 664.456 82.1188L664.936 81.2412ZM648.927 65.9458C645.055 59.3873 643.116 52.076 643.116 44H642.116C642.116 52.244 644.097 59.7327 648.065 66.4542L648.927 65.9458ZM643.116 44C643.116 35.924 645.055 28.6537 648.925 22.1765L648.067 21.6635C644.097 28.3063 642.116 35.756 642.116 44H643.116ZM648.927 22.1742C652.799 15.6141 658.132 10.5182 664.932 6.88089L664.46 5.9991C657.5 9.72178 652.033 14.9459 648.065 21.6658L648.927 22.1742ZM664.936 6.87875C671.736 3.16255 679.372 1.3 687.856 1.3V0.299995C679.22 0.299995 671.416 2.19744 664.456 6.00124L664.936 6.87875ZM687.856 1.3C696.34 1.3 703.976 3.16255 710.776 6.87875L711.256 6.00124C704.296 2.19744 696.492 0.299995 687.856 0.299995V1.3ZM710.78 6.88089C717.582 10.519 722.914 15.576 726.787 22.0565L727.645 21.5435C723.678 14.9039 718.21 9.72095 711.252 5.9991L710.78 6.88089ZM726.787 22.0565C730.657 28.5329 732.596 35.843 732.596 44H733.596C733.596 35.677 731.615 28.1871 727.645 21.5435L726.787 22.0565ZM732.596 44C732.596 52.157 730.657 59.4671 726.787 65.9435L727.645 66.4565C731.615 59.8129 733.596 52.323 733.596 44H732.596ZM726.787 65.9435C722.914 72.4249 717.58 77.5229 710.776 81.2412L711.256 82.1188C718.212 78.3171 723.678 73.0951 727.645 66.4565L726.787 65.9435ZM710.78 81.2391C703.98 84.8766 696.342 86.7 687.856 86.7V87.7C696.49 87.7 704.292 85.8434 711.252 82.1209L710.78 81.2391ZM687.856 74.02C693.533 74.02 698.657 72.7622 703.218 70.2374L702.734 69.3625C698.335 71.7978 693.379 73.02 687.856 73.02V74.02ZM703.224 70.2341C707.782 67.6298 711.366 64.0456 713.97 59.4881L713.102 58.9919C710.586 63.3944 707.13 66.8502 702.728 69.3659L703.224 70.2341ZM713.972 59.4848C716.577 54.8447 717.876 49.6795 717.876 44H716.876C716.876 49.5205 715.615 54.5153 713.1 58.9952L713.972 59.4848ZM717.876 44C717.876 38.3206 716.577 33.1938 713.97 28.6319L713.102 29.1281C715.615 33.5262 716.876 38.4794 716.876 44H717.876ZM713.972 28.6352C711.367 23.9961 707.781 20.4085 703.218 17.8826L702.734 18.7574C707.131 21.1915 710.584 24.6439 713.1 29.1248L713.972 28.6352ZM703.224 17.8859C698.662 15.2791 693.535 13.98 687.856 13.98V14.98C693.377 14.98 698.33 16.2409 702.728 18.7541L703.224 17.8859ZM687.856 13.98C682.177 13.98 677.05 15.2791 672.488 17.8859L672.984 18.7541C677.382 16.2409 682.335 14.98 687.856 14.98V13.98ZM672.494 17.8826C667.931 20.4085 664.344 23.9961 661.74 28.6352L662.612 29.1248C665.128 24.6439 668.581 21.1915 672.978 18.7574L672.494 17.8826ZM661.742 28.6319C659.135 33.1938 657.836 38.3206 657.836 44H658.836C658.836 38.4794 660.097 33.5262 662.61 29.1281L661.742 28.6319ZM657.836 44C657.836 49.6795 659.135 54.8447 661.74 59.4848L662.612 58.9952C660.097 54.5153 658.836 49.5205 658.836 44H657.836ZM661.742 59.4881C664.346 64.0456 667.93 67.6298 672.488 70.2341L672.984 69.3659C668.582 66.8502 665.126 63.3944 662.61 58.9919L661.742 59.4881ZM672.494 70.2374C677.055 72.7622 682.179 74.02 687.856 74.02V73.02C682.333 73.02 677.377 71.7978 672.978 69.3625L672.494 70.2374ZM765.712 81.68L765.472 82.1188L765.476 82.1209L765.712 81.68ZM749.512 66.2L749.081 66.4542L749.082 66.4565L749.512 66.2ZM749.512 21.92L749.941 22.1765L749.942 22.1742L749.512 21.92ZM765.712 6.43999L765.947 6.88091L765.951 6.87875L765.712 6.43999ZM812.032 6.43999L811.792 6.87876L811.796 6.88089L812.032 6.43999ZM828.232 21.8L827.802 22.0565L828.232 21.8ZM828.232 66.2L827.802 65.9435L828.232 66.2ZM812.032 81.68L812.267 82.1209L812.271 82.1188L812.032 81.68ZM803.992 69.8L804.234 70.2375L804.24 70.2341L803.992 69.8ZM814.552 59.24L814.986 59.4881L814.988 59.4848L814.552 59.24ZM814.552 28.88L814.116 29.1248L814.117 29.1281L814.552 28.88ZM803.992 18.32L803.743 18.7542L803.749 18.7574L803.992 18.32ZM773.752 18.32L773.994 18.7575L774 18.7541L773.752 18.32ZM763.192 28.88L763.626 29.1281L763.628 29.1248L763.192 28.88ZM763.192 59.24L762.756 59.4848L762.757 59.4881L763.192 59.24ZM773.752 69.8L773.503 70.2342L773.509 70.2374L773.752 69.8ZM788.872 86.7C780.386 86.7 772.748 84.8766 765.947 81.2391L765.476 82.1209C772.435 85.8434 780.237 87.7 788.872 87.7V86.7ZM765.951 81.2412C759.147 77.5229 753.814 72.4249 749.941 65.9435L749.082 66.4565C753.049 73.0951 758.516 78.3171 765.472 82.1188L765.951 81.2412ZM749.942 65.9458C746.07 59.3873 744.132 52.076 744.132 44H743.132C743.132 52.244 745.113 59.7327 749.081 66.4542L749.942 65.9458ZM744.132 44C744.132 35.924 746.07 28.6537 749.941 22.1765L749.082 21.6635C745.113 28.3063 743.132 35.756 743.132 44H744.132ZM749.942 22.1742C753.815 15.6141 759.147 10.5182 765.947 6.88089L765.476 5.9991C758.516 9.72178 753.048 14.9459 749.081 21.6658L749.942 22.1742ZM765.951 6.87875C772.751 3.16255 780.388 1.3 788.872 1.3V0.299995C780.236 0.299995 772.432 2.19744 765.472 6.00124L765.951 6.87875ZM788.872 1.3C797.356 1.3 804.992 3.16255 811.792 6.87875L812.271 6.00124C805.311 2.19744 797.508 0.299995 788.872 0.299995V1.3ZM811.796 6.88089C818.598 10.519 823.93 15.576 827.802 22.0565L828.661 21.5435C824.693 14.9039 819.226 9.72095 812.267 5.9991L811.796 6.88089ZM827.802 22.0565C831.672 28.5329 833.612 35.843 833.612 44H834.612C834.612 35.677 832.631 28.1871 828.661 21.5435L827.802 22.0565ZM833.612 44C833.612 52.157 831.672 59.4671 827.802 65.9435L828.661 66.4565C832.631 59.8129 834.612 52.323 834.612 44H833.612ZM827.802 65.9435C823.929 72.4249 818.596 77.5229 811.792 81.2412L812.271 82.1188C819.227 78.3171 824.694 73.0951 828.661 66.4565L827.802 65.9435ZM811.796 81.2391C804.995 84.8766 797.357 86.7 788.872 86.7V87.7C797.506 87.7 805.308 85.8434 812.267 82.1209L811.796 81.2391ZM788.872 74.02C794.548 74.02 799.673 72.7622 804.234 70.2374L803.749 69.3625C799.35 71.7978 794.395 73.02 788.872 73.02V74.02ZM804.24 70.2341C808.797 67.6298 812.381 64.0456 814.986 59.4881L814.117 58.9919C811.602 63.3944 808.146 66.8502 803.743 69.3659L804.24 70.2341ZM814.988 59.4848C817.592 54.8447 818.892 49.6795 818.892 44H817.892C817.892 49.5205 816.631 54.5153 814.116 58.9952L814.988 59.4848ZM818.892 44C818.892 38.3206 817.593 33.1938 814.986 28.6319L814.117 29.1281C816.631 33.5262 817.892 38.4794 817.892 44H818.892ZM814.988 28.6352C812.383 23.9961 808.797 20.4085 804.234 17.8826L803.749 18.7574C808.146 21.1915 811.6 24.6439 814.116 29.1248L814.988 28.6352ZM804.24 17.8859C799.678 15.2791 794.551 13.98 788.872 13.98V14.98C794.392 14.98 799.345 16.2409 803.743 18.7541L804.24 17.8859ZM788.872 13.98C783.192 13.98 778.065 15.2791 773.503 17.8859L774 18.7541C778.398 16.2409 783.351 14.98 788.872 14.98V13.98ZM773.509 17.8826C768.946 20.4085 765.36 23.9961 762.756 28.6352L763.628 29.1248C766.143 24.6439 769.597 21.1915 773.994 18.7574L773.509 17.8826ZM762.757 28.6319C760.151 33.1938 758.852 38.3206 758.852 44H759.852C759.852 38.4794 761.112 33.5262 763.626 29.1281L762.757 28.6319ZM758.852 44C758.852 49.6795 760.151 54.8447 762.756 59.4848L763.628 58.9952C761.112 54.5153 759.852 49.5205 759.852 44H758.852ZM762.757 59.4881C765.362 64.0456 768.946 67.6298 773.503 70.2341L774 69.3659C769.597 66.8502 766.141 63.3944 763.626 58.9919L762.757 59.4881ZM773.509 70.2374C778.07 72.7622 783.195 74.02 788.872 74.02V73.02C783.348 73.02 778.393 71.7978 773.994 69.3625L773.509 70.2374ZM925.287 1.99999H925.787V1.49999H925.287V1.99999ZM925.287 86V86.5H925.787V86H925.287ZM912.447 86L912.06 86.3157L912.21 86.5H912.447V86ZM866.127 29.12L866.515 28.8043L865.627 27.7142V29.12H866.127ZM866.127 86V86.5H866.627V86H866.127ZM850.647 86H850.147V86.5H850.647V86ZM850.647 1.99999V1.49999H850.147V1.99999H850.647ZM863.487 1.99999L863.875 1.68427L863.725 1.49999H863.487V1.99999ZM909.807 58.88L909.419 59.1957L910.307 60.2858V58.88H909.807ZM909.807 1.99999V1.49999H909.307V1.99999H909.807ZM924.787 1.99999V86H925.787V1.99999H924.787ZM925.287 85.5H912.447V86.5H925.287V85.5ZM912.835 85.6843L866.515 28.8043L865.74 29.4357L912.06 86.3157L912.835 85.6843ZM865.627 29.12V86H866.627V29.12H865.627ZM866.127 85.5H850.647V86.5H866.127V85.5ZM851.147 86V1.99999H850.147V86H851.147ZM850.647 2.49999H863.487V1.49999H850.647V2.49999ZM863.099 2.31572L909.419 59.1957L910.195 58.5643L863.875 1.68427L863.099 2.31572ZM910.307 58.88V1.99999H909.307V58.88H910.307ZM909.807 2.49999H925.287V1.49999H909.807V2.49999Z" fill="white" fill-opacity="0.5"/>
    </g>
    <defs>
        <filter id="filter0_d_933_21021" x="0.764404" y="0.799805" width="928.523" height="94.4004" filterUnits="userSpaceOnUse" color-interpolation-filters="sRGB">
            <feFlood flood-opacity="0" result="BackgroundImageFix"/>
            <feColorMatrix in="SourceAlpha" type="matrix" values="0 0 0 0 0 0 0 0 0 0 0 0 0 0 0 0 0 0 127 0" result="hardAlpha"/>
            <feOffset dy="4"/>
            <feGaussianBlur stdDeviation="2"/>
            <feComposite in2="hardAlpha" operator="out"/>
            <feColorMatrix type="matrix" values="0 0 0 0 0 0 0 0 0 0 0 0 0 0 0 0 0 0 0.25 0"/>
            <feBlend mode="normal" in2="BackgroundImageFix" result="effect1_dropShadow_933_21021"/>
            <feBlend mode="normal" in="SourceGraphic" in2="effect1_dropShadow_933_21021" result="shape"/>
        </filter>
    </defs>
</svg>
