<svg width="24" height="27" viewBox="0 0 24 27" fill="none" xmlns="http://www.w3.org/2000/svg">
<path d="M15.537 12.7428C15.5223 13.0098 15.4297 13.2666 15.2707 13.4816C15.1116 13.6965 14.893 13.8601 14.6419 13.9522C14.3909 14.0442 14.1183 14.0607 13.858 13.9995C13.5977 13.9383 13.361 13.8021 13.1772 13.6079C12.9935 13.4136 12.8707 13.1697 12.824 12.9064C12.7774 12.6431 12.8089 12.3719 12.9148 12.1263C13.0206 11.8808 13.1961 11.6716 13.4195 11.5247C13.643 11.3778 13.9046 11.2996 14.172 11.2998C14.3566 11.3043 14.5384 11.3453 14.7071 11.4204C14.8757 11.4955 15.0279 11.6032 15.1547 11.7373C15.2816 11.8714 15.3807 12.0293 15.4463 12.2018C15.5119 12.3744 15.5427 12.5583 15.537 12.7428ZM9.287 11.2998C8.99825 11.2838 8.71134 11.3548 8.46338 11.5036C8.21542 11.6524 8.01781 11.8722 7.89613 12.1346C7.77445 12.3969 7.73429 12.6897 7.78084 12.9752C7.82739 13.2606 7.95852 13.5255 8.15726 13.7356C8.35599 13.9457 8.61319 14.0913 8.89558 14.1536C9.17798 14.2159 9.47259 14.1921 9.74129 14.0852C10.01 13.9782 10.2404 13.7931 10.4028 13.5538C10.5651 13.3145 10.6519 13.032 10.652 12.7428C10.6577 12.5583 10.6269 12.3744 10.5613 12.2018C10.4957 12.0293 10.3966 11.8714 10.2697 11.7373C10.1429 11.6032 9.99073 11.4955 9.82207 11.4204C9.65341 11.3453 9.47156 11.3043 9.287 11.2998ZM23.419 3.07078V26.3928C20.048 23.4988 21.125 24.4568 17.209 20.9198L17.919 23.3248H2.744C2.38798 23.3291 2.03459 23.2633 1.70401 23.1311C1.37343 22.9989 1.07212 22.8028 0.817307 22.5541C0.562497 22.3055 0.359168 22.009 0.218933 21.6818C0.0786981 21.3545 0.00430734 21.0028 0 20.6468V3.07078C0.00430734 2.71476 0.0786981 2.36307 0.218933 2.03581C0.359168 1.70854 0.562497 1.4121 0.817307 1.16342C1.07212 0.91474 1.37343 0.718689 1.70401 0.586461C2.03459 0.454234 2.38798 0.388421 2.744 0.392781H20.675C21.031 0.388421 21.3844 0.454234 21.715 0.586461C22.0456 0.718689 22.3469 0.91474 22.6017 1.16342C22.8565 1.4121 23.0598 1.70854 23.2001 2.03581C23.3403 2.36307 23.4147 2.71476 23.419 3.07078ZM19.605 15.3928C19.5592 12.7511 18.8991 10.1563 17.677 7.81378C16.5904 6.98922 15.2795 6.51331 13.917 6.44878L13.73 6.65678C14.9437 6.96849 16.0788 7.53089 17.062 8.30778C15.5274 7.50725 13.834 7.05811 12.1045 6.9929C10.3749 6.9277 8.65246 7.24806 7.062 7.93078C6.562 8.15178 6.272 8.30778 6.272 8.30778C7.30831 7.49338 8.5089 6.91339 9.791 6.60778L9.657 6.45178C8.29451 6.51631 6.98357 6.99222 5.897 7.81678C4.67776 10.159 4.01977 12.7526 3.97501 15.3928C4.44446 16.0279 5.0611 16.5396 5.77196 16.8838C6.48281 17.228 7.26661 17.3944 8.056 17.3688C8.056 17.3688 8.55599 16.7838 8.95599 16.2898C8.02138 16.0648 7.1937 15.5226 6.614 14.7558C6.814 14.8898 7.13599 15.0628 7.16299 15.0808C8.43972 15.7541 9.84697 16.1434 11.2882 16.2219C12.7295 16.3004 14.1707 16.0664 15.513 15.5358C16.0528 15.3379 16.569 15.0807 17.052 14.7688C16.4506 15.5525 15.593 16.1 14.629 16.3158C15.029 16.8098 15.512 17.3688 15.512 17.3688C16.304 17.3938 17.0903 17.2272 17.8041 16.8831C18.5179 16.5391 19.1381 16.0279 19.612 15.3928H19.605Z" fill="white"/>
</svg>
