<svg width="307" height="226" viewBox="0 0 307 226" fill="none" xmlns="http://www.w3.org/2000/svg">
<path d="M151.632 200.001C205.064 200.001 248.383 156.683 248.383 103.06C248.383 49.4373 204.874 6.11914 151.632 6.11914C98.2003 6.11914 54.8821 49.4373 54.8821 103.06C54.8821 156.683 98.2003 200.001 151.632 200.001Z" fill="#181933"/>
<path d="M272.114 41.8124C275.065 41.8124 277.457 39.4202 277.457 36.4692C277.457 33.5182 275.065 31.126 272.114 31.126C269.163 31.126 266.771 33.5182 266.771 36.4692C266.771 39.4202 269.163 41.8124 272.114 41.8124Z" fill="#181933"/>
<path d="M59.2707 39.5145C62.2217 39.5145 64.6139 37.1223 64.6139 34.1713C64.6139 31.2204 62.2217 28.8281 59.2707 28.8281C56.3197 28.8281 53.9275 31.2204 53.9275 34.1713C53.9275 37.1223 56.3197 39.5145 59.2707 39.5145Z" fill="#181933"/>
<path d="M26.6392 142.561C32.1195 142.561 36.5623 138.118 36.5623 132.638C36.5623 127.158 32.1195 122.715 26.6392 122.715C21.1588 122.715 16.7161 127.158 16.7161 132.638C16.7161 138.118 21.1588 142.561 26.6392 142.561Z" fill="#181933"/>
<g filter="url(#filter0_d_227_9647)">
<path d="M125.094 154.798L48.4051 170.53C47.284 170.704 46.2557 170.121 46.0818 169L22.6955 54.5223C22.5216 53.4013 23.1041 52.3729 24.2251 52.199L100.914 36.4667C102.035 36.2928 103.063 36.8753 103.237 37.9964L126.749 152.469C126.917 153.465 126.215 154.624 125.094 154.798Z" fill="#2C2D47"/>
</g>
<path opacity="0.8" d="M43.7988 109.713L73.8055 103.547" stroke="white" stroke-opacity="0.07" stroke-width="2" stroke-miterlimit="10" stroke-linecap="round" stroke-linejoin="round"/>
<path opacity="0.8" d="M82.7493 101.735L89.339 100.382" stroke="white" stroke-opacity="0.07" stroke-width="2" stroke-miterlimit="10" stroke-linecap="round" stroke-linejoin="round"/>
<path opacity="0.8" d="M97.3411 98.7296L103.931 97.376" stroke="white" stroke-opacity="0.07" stroke-width="2" stroke-miterlimit="10" stroke-linecap="round" stroke-linejoin="round"/>
<path opacity="0.8" d="M45.4556 117.832L75.4622 111.666" stroke="white" stroke-opacity="0.07" stroke-width="2" stroke-miterlimit="10" stroke-linecap="round" stroke-linejoin="round"/>
<path opacity="0.8" d="M84.4023 109.735L90.9972 108.5" stroke="white" stroke-opacity="0.07" stroke-width="2" stroke-miterlimit="10" stroke-linecap="round" stroke-linejoin="round"/>
<path opacity="0.8" d="M98.8801 106.856L105.47 105.502" stroke="white" stroke-opacity="0.07" stroke-width="2" stroke-miterlimit="10" stroke-linecap="round" stroke-linejoin="round"/>
<path opacity="0.8" d="M47.1079 125.835L77.1146 119.669" stroke="white" stroke-opacity="0.07" stroke-width="2" stroke-miterlimit="10" stroke-linecap="round" stroke-linejoin="round"/>
<path opacity="0.8" d="M86.0588 117.857L92.6486 116.503" stroke="white" stroke-opacity="0.07" stroke-width="2" stroke-miterlimit="10" stroke-linecap="round" stroke-linejoin="round"/>
<path opacity="0.8" d="M100.531 114.857L107.121 113.503" stroke="white" stroke-opacity="0.07" stroke-width="2" stroke-miterlimit="10" stroke-linecap="round" stroke-linejoin="round"/>
<path opacity="0.8" d="M48.7605 133.835L78.7723 127.787" stroke="white" stroke-opacity="0.07" stroke-width="2" stroke-miterlimit="10" stroke-linecap="round" stroke-linejoin="round"/>
<path opacity="0.8" d="M53.4182 156.429L61.8885 154.638" stroke="white" stroke-opacity="0.07" stroke-width="2" stroke-miterlimit="10" stroke-linecap="round" stroke-linejoin="round"/>
<path opacity="0.8" d="M52.2134 150.545L67.2785 147.519" stroke="white" stroke-opacity="0.07" stroke-width="2" stroke-miterlimit="10" stroke-linecap="round" stroke-linejoin="round"/>
<path opacity="0.8" d="M98.501 144.742L113.448 141.721" stroke="white" stroke-opacity="0.07" stroke-width="2" stroke-miterlimit="10" stroke-linecap="round" stroke-linejoin="round"/>
<path opacity="0.8" d="M87.7112 125.857L94.3009 124.504" stroke="white" stroke-opacity="0.07" stroke-width="2" stroke-miterlimit="10" stroke-linecap="round" stroke-linejoin="round"/>
<path opacity="0.8" d="M102.189 122.976L108.779 121.622" stroke="white" stroke-opacity="0.07" stroke-width="2" stroke-miterlimit="10" stroke-linecap="round" stroke-linejoin="round"/>
<path opacity="0.2" d="M53.9383 66.1658C51.3547 66.7091 49.5525 68.915 49.2546 71.6038C49.1629 72.194 49.5879 72.6755 50.1506 72.7855C50.7133 72.8956 51.161 72.4589 51.2527 71.8687C51.4245 70.1198 52.7217 68.5911 54.3752 68.2434C56.0286 67.8957 57.8087 68.6632 58.6933 70.304C59.0149 70.8073 59.6006 71.0267 60.0713 70.6993C60.542 70.372 60.7371 69.7601 60.4154 69.2568C59.0369 66.8063 56.5218 65.6225 53.9383 66.1658Z" fill="white"/>
<path opacity="0.2" d="M77.648 61.1814C75.0645 61.7247 73.2622 63.9306 72.9643 66.6194C72.8726 67.2096 73.2976 67.6911 73.8603 67.8012C74.423 67.9112 74.8707 67.4745 74.9624 66.8843C75.1342 65.1355 76.4314 63.6067 78.0849 63.259C79.7383 62.9113 81.5184 63.6788 82.403 65.3197C82.7246 65.8229 83.3103 66.0423 83.781 65.715C84.2518 65.3876 84.4468 64.7757 84.1252 64.2724C82.7466 61.822 80.2315 60.6381 77.648 61.1814Z" fill="white"/>
<path opacity="0.2" d="M61.8983 75.1338L63.3918 74.8081C65.2569 77.2896 68.814 77.5969 71.1556 75.642C72.0893 74.957 72.8078 73.8374 73.0419 72.7033L74.5353 72.3775C74.0484 76.2145 70.3136 78.9547 66.5664 78.3278C64.8078 77.9893 63.0136 76.9365 61.8983 75.1338Z" fill="white"/>
<circle opacity="0.05" cx="85.9335" cy="75.354" r="4.03803" transform="rotate(-11.8756 85.9335 75.354)" fill="white"/>
<circle opacity="0.05" cx="52.0624" cy="82.4761" r="4.03803" transform="rotate(-11.8756 52.0624 82.4761)" fill="white"/>
<g filter="url(#filter1_d_227_9647)">
<path d="M198.12 187.295L113.513 192.249C112.292 192.376 111.35 191.421 111.223 190.2L103.854 64.1029C103.727 62.8823 104.683 61.9403 105.904 61.8135L190.511 56.8595C191.731 56.7327 192.673 57.6881 192.8 58.9088L200.169 185.006C200.161 186.226 199.341 187.169 198.12 187.295Z" fill="#2C2D47"/>
</g>
<path opacity="0.8" d="M140.944 129.62L181.577 127.248" stroke="white" stroke-opacity="0.07" stroke-width="2" stroke-miterlimit="10" stroke-linecap="round" stroke-linejoin="round"/>
<path opacity="0.8" d="M140.534 122.21L181.051 119.837" stroke="white" stroke-opacity="0.07" stroke-width="2" stroke-miterlimit="10" stroke-linecap="round" stroke-linejoin="round"/>
<path opacity="0.8" d="M141.354 137.029L181.987 134.658" stroke="white" stroke-opacity="0.07" stroke-width="2" stroke-miterlimit="10" stroke-linecap="round" stroke-linejoin="round"/>
<path opacity="0.8" d="M122.78 145.458L182.398 141.949" stroke="white" stroke-opacity="0.07" stroke-width="2" stroke-miterlimit="10" stroke-linecap="round" stroke-linejoin="round"/>
<path opacity="0.8" d="M123.19 152.867L157.273 150.796" stroke="white" stroke-opacity="0.07" stroke-width="2" stroke-miterlimit="10" stroke-linecap="round" stroke-linejoin="round"/>
<path opacity="0.8" d="M124.657 177.623L133.107 177.105" stroke="white" stroke-opacity="0.07" stroke-width="2" stroke-miterlimit="10" stroke-linecap="round" stroke-linejoin="round"/>
<path opacity="0.8" d="M124.351 171.836L139.285 170.901" stroke="white" stroke-opacity="0.07" stroke-width="2" stroke-miterlimit="10" stroke-linecap="round" stroke-linejoin="round"/>
<path opacity="0.8" d="M169.151 169.147L183.968 168.327" stroke="white" stroke-opacity="0.07" stroke-width="2" stroke-miterlimit="10" stroke-linecap="round" stroke-linejoin="round"/>
<path opacity="0.8" d="M135.205 138.605C135.089 138.604 134.973 138.603 134.974 138.488L133.04 134.307L125.75 134.722L124.329 139.111C124.328 139.227 124.212 139.342 124.096 139.341L122.592 139.447C122.476 139.446 122.361 139.445 122.361 139.329C122.247 139.213 122.247 139.213 122.363 139.098L127.572 123.273C127.573 123.158 127.689 123.043 127.805 123.043L129.888 122.942C130.003 122.942 130.119 122.943 130.118 123.059L137.174 138.155C137.173 138.271 137.172 138.387 137.172 138.387C137.171 138.502 137.056 138.501 136.94 138.501L135.205 138.605ZM126.228 132.757L132.129 132.449L128.716 124.902L126.228 132.757Z" fill="white" fill-opacity="0.1"/>
<path opacity="0.2" d="M163.696 84.9532C165.471 84.8399 166.896 83.2209 166.782 81.4455C166.669 79.6701 165.05 78.2455 163.275 78.3588C161.499 78.4722 160.075 80.0911 160.188 81.8665C160.31 83.7688 161.794 85.0747 163.696 84.9532Z" fill="white"/>
<path opacity="0.2" d="M138.051 86.6309C139.826 86.5176 141.251 84.8986 141.137 83.1232C141.024 81.3478 139.405 79.9232 137.63 80.0365C135.854 80.1499 134.43 81.7689 134.543 83.5443C134.791 85.4384 136.275 86.7443 138.051 86.6309Z" fill="white"/>
<path opacity="0.2" d="M145.616 92.5547C145.926 95.4871 148.365 97.6944 151.191 97.5352C154.017 97.376 156.193 94.9087 156.172 91.96L145.616 92.5547Z" fill="white"/>
<circle opacity="0.05" cx="170.52" cy="96.0425" r="4.3684" transform="rotate(-3.22458 170.52 96.0425)" fill="white"/>
<circle opacity="0.05" cx="133.136" cy="98.148" r="4.3684" transform="rotate(-3.22458 133.136 98.148)" fill="white"/>
<g filter="url(#filter2_d_227_9647)">
<path d="M282.931 131.851L207.03 150.847C205.936 151.148 204.868 150.494 204.567 149.4L176.222 36.0965C175.922 35.0025 176.575 33.9337 177.669 33.6334L253.57 14.6366C254.664 14.3363 255.733 14.9898 256.033 16.0838L284.378 129.387C284.678 130.481 284.025 131.55 282.931 131.851Z" fill="#2C2D47"/>
</g>
<path d="M196.456 82.0211L205.864 119.562L267.283 104.169L257.875 66.6289L196.456 82.0211Z" stroke="#383951" stroke-width="2" stroke-miterlimit="10" stroke-linecap="round" stroke-linejoin="round"/>
<path d="M210.189 136.489L218.835 134.369" stroke="#383951" stroke-width="2" stroke-miterlimit="10" stroke-linecap="round" stroke-linejoin="round"/>
<path d="M208.608 130.529L223.944 126.671" stroke="#383951" stroke-width="2" stroke-miterlimit="10" stroke-linecap="round" stroke-linejoin="round"/>
<path d="M256.133 122.435L271.468 118.576" stroke="#383951" stroke-width="2" stroke-miterlimit="10" stroke-linecap="round" stroke-linejoin="round"/>
<path d="M211.463 78.3872L220.85 115.907" stroke="#383951" stroke-width="2" stroke-miterlimit="10" stroke-linecap="round" stroke-linejoin="round"/>
<path d="M227.14 74.3934L236.641 111.868" stroke="#383951" stroke-width="2" stroke-miterlimit="10" stroke-linecap="round" stroke-linejoin="round"/>
<path d="M242.976 70.4672L252.363 107.987" stroke="#383951" stroke-width="2" stroke-miterlimit="10" stroke-linecap="round" stroke-linejoin="round"/>
<path d="M198.906 91.5537L260.249 76.1188" stroke="#383951" stroke-width="2" stroke-miterlimit="10" stroke-linecap="round" stroke-linejoin="round"/>
<path d="M201.185 100.926L262.573 85.6047" stroke="#383951" stroke-width="2" stroke-miterlimit="10" stroke-linecap="round" stroke-linejoin="round"/>
<path d="M203.622 110.368L264.965 94.9333" stroke="#383951" stroke-width="2" stroke-miterlimit="10" stroke-linecap="round" stroke-linejoin="round"/>
<path opacity="0.2" d="M207.878 42.1203C204.799 42.8648 202.716 45.5755 202.456 48.8113C202.367 49.5225 202.894 50.0848 203.573 50.1966C204.252 50.3084 204.773 49.7685 204.862 49.0573C205.005 46.9534 206.506 45.0731 208.477 44.5966C210.447 44.1201 212.61 44.9767 213.73 46.9131C214.134 47.5051 214.845 47.7472 215.397 47.3377C215.95 46.9281 216.162 46.1871 215.758 45.595C214.017 42.7053 210.957 41.3758 207.878 42.1203Z" fill="white"/>
<path opacity="0.2" d="M228.624 37.1055C225.801 37.788 223.934 40.4465 223.756 43.6625C223.688 44.3687 224.184 44.9385 224.811 45.0627C225.439 45.1868 225.909 44.6593 225.977 43.9531C226.069 41.8616 227.416 40.0185 229.223 39.5818C231.029 39.145 233.038 40.0388 234.107 41.9876C234.49 42.5846 235.149 42.8391 235.651 42.442C236.152 42.0448 236.333 41.3113 235.95 40.7142C234.29 37.8047 231.447 36.423 228.624 37.1055Z" fill="white"/>
<path opacity="0.2" d="M224.243 60.7168C226.101 60.2676 227.244 58.3972 226.794 56.5392C226.345 54.6812 224.475 53.5391 222.617 53.9884C220.759 54.4376 219.617 56.308 220.066 58.166C220.515 60.024 222.385 61.166 224.243 60.7168Z" fill="white"/>
<defs>
<filter id="filter0_d_227_9647" x="0.665039" y="25.4365" width="148.108" height="178.124" filterUnits="userSpaceOnUse" color-interpolation-filters="sRGB">
<feFlood flood-opacity="0" result="BackgroundImageFix"/>
<feColorMatrix in="SourceAlpha" type="matrix" values="0 0 0 0 0 0 0 0 0 0 0 0 0 0 0 0 0 0 127 0" result="hardAlpha"/>
<feOffset dy="11"/>
<feGaussianBlur stdDeviation="11"/>
<feColorMatrix type="matrix" values="0 0 0 0 0 0 0 0 0 0 0 0 0 0 0 0 0 0 0.27 0"/>
<feBlend mode="normal" in2="BackgroundImageFix" result="effect1_dropShadow_227_9647"/>
<feBlend mode="normal" in="SourceGraphic" in2="effect1_dropShadow_227_9647" result="shape"/>
</filter>
<filter id="filter1_d_227_9647" x="81.8428" y="45.8486" width="140.327" height="179.412" filterUnits="userSpaceOnUse" color-interpolation-filters="sRGB">
<feFlood flood-opacity="0" result="BackgroundImageFix"/>
<feColorMatrix in="SourceAlpha" type="matrix" values="0 0 0 0 0 0 0 0 0 0 0 0 0 0 0 0 0 0 127 0" result="hardAlpha"/>
<feOffset dy="11"/>
<feGaussianBlur stdDeviation="11"/>
<feColorMatrix type="matrix" values="0 0 0 0 0 0 0 0 0 0 0 0 0 0 0 0 0 0 0.27 0"/>
<feBlend mode="normal" in2="BackgroundImageFix" result="effect1_dropShadow_227_9647"/>
<feBlend mode="normal" in="SourceGraphic" in2="effect1_dropShadow_227_9647" result="shape"/>
</filter>
<filter id="filter2_d_227_9647" x="154.149" y="3.56348" width="152.302" height="180.357" filterUnits="userSpaceOnUse" color-interpolation-filters="sRGB">
<feFlood flood-opacity="0" result="BackgroundImageFix"/>
<feColorMatrix in="SourceAlpha" type="matrix" values="0 0 0 0 0 0 0 0 0 0 0 0 0 0 0 0 0 0 127 0" result="hardAlpha"/>
<feOffset dy="11"/>
<feGaussianBlur stdDeviation="11"/>
<feColorMatrix type="matrix" values="0 0 0 0 0 0 0 0 0 0 0 0 0 0 0 0 0 0 0.27 0"/>
<feBlend mode="normal" in2="BackgroundImageFix" result="effect1_dropShadow_227_9647"/>
<feBlend mode="normal" in="SourceGraphic" in2="effect1_dropShadow_227_9647" result="shape"/>
</filter>
</defs>
</svg>
