<svg width="51" height="50" viewBox="0 0 51 50" fill="none" xmlns="http://www.w3.org/2000/svg">
<path d="M25.5 50C39.3071 50 50.5 38.8071 50.5 25C50.5 11.1929 39.3071 0 25.5 0C11.6929 0 0.5 11.1929 0.5 25C0.5 38.8071 11.6929 50 25.5 50Z" fill="#627EEA"/>
<path d="M26.2781 6.25V20.1094L37.9921 25.3437L26.2781 6.25Z" fill="white" fill-opacity="0.602"/>
<path d="M26.2781 6.25L14.5625 25.3437L26.2781 20.1094V6.25Z" fill="white"/>
<path d="M26.2781 34.325V43.7422L37.9999 27.525L26.2781 34.325Z" fill="white" fill-opacity="0.602"/>
<path d="M26.2781 43.7422V34.3235L14.5625 27.525L26.2781 43.7422Z" fill="white"/>
<path d="M26.2781 32.1454L37.9921 25.3438L26.2781 20.1125V32.1454Z" fill="white" fill-opacity="0.2"/>
<path d="M14.5625 25.3438L26.2781 32.1454V20.1125L14.5625 25.3438Z" fill="white" fill-opacity="0.602"/>
</svg>
