<svg width="19" height="20" viewBox="0 0 19 20" fill="none" xmlns="http://www.w3.org/2000/svg">
<path fill-rule="evenodd" clip-rule="evenodd" d="M8.08598 6.6712L12.894 9.6712C12.9489 9.70565 12.9942 9.7535 13.0257 9.81026C13.0571 9.86702 13.0735 9.93083 13.0735 9.9957C13.0735 10.0606 13.0571 10.1244 13.0257 10.1811C12.9942 10.2379 12.9489 10.2857 12.894 10.3202L8.08598 13.3302C8.02807 13.3665 7.96147 13.3866 7.89313 13.3885C7.82479 13.3903 7.75722 13.3737 7.69746 13.3405C7.6377 13.3073 7.58795 13.2587 7.55339 13.1997C7.51883 13.1407 7.50073 13.0736 7.50098 13.0052V6.9952C7.50091 6.92692 7.51914 6.85987 7.55377 6.80103C7.5884 6.74219 7.63817 6.6937 7.6979 6.66062C7.75763 6.62754 7.82513 6.61108 7.89338 6.61293C7.96163 6.61479 8.02814 6.63491 8.08598 6.6712" fill="white"/>
<path fill-rule="evenodd" clip-rule="evenodd" d="M9.5 19.5C7.62108 19.5 5.78435 18.9428 4.22209 17.899C2.65982 16.8551 1.44218 15.3714 0.723149 13.6355C0.00411618 11.8996 -0.184015 9.98947 0.182544 8.14665C0.549104 6.30383 1.45389 4.61109 2.78249 3.28249C4.11109 1.95389 5.80383 1.0491 7.64665 0.682544C9.48947 0.315985 11.3996 0.504116 13.1355 1.22315C14.8714 1.94218 16.3551 3.15982 17.399 4.72209C18.4428 6.28435 19 8.12108 19 10C18.9971 12.5187 17.9953 14.9333 16.2143 16.7143C14.4333 18.4953 12.0187 19.4971 9.5 19.5V19.5ZM9.5 1.5C7.81886 1.5 6.17548 1.99852 4.77766 2.93251C3.37984 3.8665 2.29037 5.19402 1.64703 6.7472C1.00368 8.30037 0.835355 10.0094 1.16333 11.6583C1.4913 13.3071 2.30085 14.8217 3.4896 16.0104C4.67834 17.1992 6.1929 18.0087 7.84174 18.3367C9.49057 18.6647 11.1996 18.4963 12.7528 17.853C14.306 17.2096 15.6335 16.1202 16.5675 14.7224C17.5015 13.3245 18 11.6811 18 10C17.9974 7.74648 17.101 5.58601 15.5075 3.99252C13.914 2.39903 11.7535 1.50265 9.5 1.5" fill="white"/>
</svg>
