<svg width="22" height="22" viewBox="0 0 22 22" fill="none" xmlns="http://www.w3.org/2000/svg">
    <path d="M7.84961 11.3135V15.0585" stroke="white" stroke-width="1.5" stroke-linecap="round" stroke-linejoin="round" />
    <path d="M9.76045 13.1865H5.93945" stroke="white" stroke-width="1.5" stroke-linecap="round" stroke-linejoin="round" />
    <path d="M14.3677 11.4277H14.2607" stroke="white" stroke-width="1.5" stroke-linecap="round" stroke-linejoin="round" />
    <path d="M16.1813 15.0024H16.0743" stroke="white" stroke-width="1.5" stroke-linecap="round" stroke-linejoin="round" />
    <path fill-rule="evenodd" clip-rule="evenodd" d="M7.07329 0.999512C7.07698 1.35871 7.22316 1.70174 7.47968 1.95321C7.73621 2.20467 8.08209 2.34398 8.44129 2.34051H9.50129C10.056 2.3365 10.5898 2.55215 10.9861 2.94036C11.3823 3.32858 11.6089 3.85782 11.6163 4.41251V5.08751L7.07329 0.999512ZM15.4333 20.9625C12.428 21.0132 9.47595 21.0132 6.57729 20.9625C5.8469 20.995 5.11762 20.8772 4.43463 20.6163C3.75164 20.3554 3.1295 19.9571 2.60674 19.446C2.08399 18.9348 1.67176 18.3218 1.3956 17.6448C1.11944 16.9679 0.985232 16.2414 1.00129 15.5105V10.8615C0.985256 10.1308 1.11938 9.40465 1.39536 8.72792C1.67134 8.05118 2.08329 7.43829 2.60572 6.92721C3.12815 6.41612 3.74993 6.01772 4.43256 5.75666C5.11519 5.4956 5.84414 5.37745 6.57429 5.40951C9.49029 5.35951 12.4423 5.35951 15.4303 5.40951C16.1603 5.37773 16.889 5.49609 17.5714 5.75728C18.2538 6.01846 18.8753 6.41691 19.3975 6.92797C19.9197 7.43902 20.3315 8.05181 20.6074 8.72841C20.8832 9.405 21.0173 10.131 21.0013 10.8615V15.5115C21.0173 16.2421 20.8832 16.9681 20.6073 17.6447C20.3314 18.3213 19.9195 18.9341 19.3972 19.4451C18.8748 19.9561 18.2531 20.3544 17.5706 20.6154C16.8881 20.8764 16.1593 20.9946 15.4293 20.9625H15.4333Z" stroke="white" stroke-width="1.5" stroke-linecap="round" stroke-linejoin="round" />
</svg>
    