<svg width="16" height="16" viewBox="0 0 16 16" fill="none" xmlns="http://www.w3.org/2000/svg">
<path d="M14.3232 14.5L11.1867 11.3634M11.1867 11.3634C11.7232 10.8269 12.1488 10.19 12.4391 9.48895C12.7295 8.78795 12.879 8.03662 12.879 7.27786C12.879 6.5191 12.7295 5.76777 12.4392 5.06677C12.1488 4.36577 11.7232 3.72882 11.1867 3.1923C10.6501 2.65577 10.0132 2.23018 9.31219 1.93981C8.61119 1.64945 7.85986 1.5 7.1011 1.5C6.34234 1.5 5.59101 1.64945 4.89001 1.93981C4.18901 2.23018 3.55206 2.65577 3.01554 3.1923C1.93198 4.27586 1.32324 5.74548 1.32324 7.27786C1.32324 8.81024 1.93198 10.2799 3.01554 11.3634C4.0991 12.447 5.56872 13.0557 7.1011 13.0557C8.63349 13.0557 10.1031 12.447 11.1867 11.3634Z" stroke="#646464" stroke-width="2" stroke-linecap="round" stroke-linejoin="round"/>
</svg>
