<svg width="43" height="42" viewBox="0 0 43 42" fill="none" xmlns="http://www.w3.org/2000/svg">
<circle cx="21.4507" cy="21" r="20.5" stroke="url(#paint0_linear_621_39985)"/>
<g clip-path="url(#clip0_621_39985)">
<path d="M24.2806 14.8936C23.8282 14.8936 23.4614 15.2603 23.4614 15.7127C23.4614 16.1651 23.8282 16.5319 24.2806 16.5319C26.995 16.5319 29.1955 18.7323 29.1955 21.4467C29.1955 24.1612 26.995 26.3616 24.2806 26.3616C23.8282 26.3616 23.4614 26.7284 23.4614 27.1808C23.4614 27.6332 23.8282 27.9999 24.2806 27.9999C27.8998 27.9999 30.8338 25.066 30.8338 21.4467C30.8338 17.8275 27.8998 14.8936 24.2806 14.8936Z" fill="white"/>
<path d="M24.2806 18.1702C23.8282 18.1702 23.4614 18.5369 23.4614 18.9893C23.4614 19.4417 23.8282 19.8084 24.2806 19.8084C25.1854 19.8084 25.9189 20.5419 25.9189 21.4467C25.9189 22.3516 25.1854 23.085 24.2806 23.085C23.8282 23.085 23.4614 23.4518 23.4614 23.9042C23.4614 24.3566 23.8282 24.7233 24.2806 24.7233C26.0902 24.7233 27.5572 23.2564 27.5572 21.4467C27.5572 19.6371 26.0902 18.1702 24.2806 18.1702Z" fill="white"/>
<path fill-rule="evenodd" clip-rule="evenodd" d="M15.9487 19.809H13.6318C13.1794 19.809 12.8126 20.1757 12.8126 20.6281V22.2664C12.8126 22.7188 13.1794 23.0856 13.6318 23.0856H15.9487L18.7866 25.9235C19.3026 26.4395 20.185 26.074 20.185 25.3442V17.5503C20.185 16.8205 19.3026 16.455 18.7866 16.971L15.9487 19.809ZM15.2701 24.7238L17.6281 27.0819C19.1762 28.63 21.8233 27.5336 21.8233 25.3442V17.5503C21.8233 15.3609 19.1762 14.2645 17.6281 15.8126L15.2701 18.1707H13.6318C12.2746 18.1707 11.1743 19.2709 11.1743 20.6281V22.2664C11.1743 23.6236 12.2746 24.7238 13.6318 24.7238H15.2701Z" fill="white"/>
</g>
<defs>
<linearGradient id="paint0_linear_621_39985" x1="3.82999" y1="1.20503e-07" x2="48.7998" y2="10.3121" gradientUnits="userSpaceOnUse">
<stop stop-color="#B347FF"/>
<stop offset="0.442482" stop-color="#454CF9"/>
<stop offset="0.70862" stop-color="#454CF9"/>
<stop offset="1" stop-color="#454CF9"/>
</linearGradient>
<clipPath id="clip0_621_39985">
<rect width="19.6596" height="19.6596" fill="white" transform="translate(11.1743 11.6172)"/>
</clipPath>
</defs>
</svg>
