<svg width="42" height="42" viewBox="0 0 42 42" fill="none" xmlns="http://www.w3.org/2000/svg">
    <circle cx="21" cy="21" r="20.5" stroke="url(#paint0_linear_1539_22045)" />
    <g clip-path="url(#clip0_1539_22045)">
        <path d="M28.9847 17.591C29.3046 17.2711 29.8233 17.2711 30.1432 17.591C30.4631 17.9109 30.4631 18.4296 30.1432 18.7494L27.8554 21.0372L30.1432 23.325C30.4631 23.6449 30.4631 24.1636 30.1432 24.4835C29.8233 24.8034 29.3046 24.8034 28.9847 24.4835L26.6969 22.1957L24.4091 24.4835C24.0892 24.8034 23.5706 24.8034 23.2507 24.4835C22.9308 24.1636 22.9308 23.6449 23.2507 23.325L25.5385 21.0372L23.2507 18.7494C22.9308 18.4296 22.9308 17.9109 23.2507 17.591C23.5706 17.2711 24.0892 17.2711 24.4091 17.591L26.6969 19.8788L28.9847 17.591Z" fill="white" />
        <path fill-rule="evenodd" clip-rule="evenodd" d="M15.498 19.8085H13.1811C12.7287 19.8085 12.3619 20.1752 12.3619 20.6276V22.2659C12.3619 22.7183 12.7287 23.0851 13.1811 23.0851H15.498L18.3359 25.923C18.8519 26.439 19.7343 26.0735 19.7343 25.3437V17.5498C19.7343 16.82 18.8519 16.4545 18.3359 16.9705L15.498 19.8085ZM14.8194 24.7234L17.1774 27.0814C18.7255 28.6295 21.3726 27.5331 21.3726 25.3437V17.5498C21.3726 15.3604 18.7256 14.264 17.1774 15.8121L14.8194 18.1702H13.1811C11.8239 18.1702 10.7236 19.2704 10.7236 20.6276V22.2659C10.7236 23.6231 11.8239 24.7234 13.1811 24.7234H14.8194Z" fill="white" />
    </g>
    <defs>
        <linearGradient id="paint0_linear_1539_22045" x1="3.37931" y1="1.20503e-07" x2="48.3492" y2="10.3121" gradientUnits="userSpaceOnUse">
            <stop stop-color="#B347FF" />
            <stop offset="0.442482" stop-color="#454CF9" />
            <stop offset="0.70862" stop-color="#0961FE" />
            <stop offset="1" stop-color="#02ACD3" />
        </linearGradient>
        <clipPath id="clip0_1539_22045">
            <rect width="19.6596" height="19.6596" fill="white" transform="translate(10.7236 11.6172)" />
        </clipPath>
    </defs>
</svg>
    