<svg width="48" height="48" viewBox="0 0 48 48" fill="none" xmlns="http://www.w3.org/2000/svg">
<path d="M24 1.5C18.8092 1.50329 13.7791 3.30078 9.7618 6.58799C5.74449 9.87519 2.98697 14.45 1.95634 19.5375C0.925717 24.6249 1.68535 29.9123 4.10657 34.5038C6.52779 39.0953 10.4617 42.7088 15.242 44.732C20.7382 47.0421 26.9264 47.0771 32.4483 44.8292C37.9702 42.5813 42.3746 38.2342 44.6946 32.7422C47.0147 27.2502 47.0608 21.0621 44.8228 15.5361C42.5849 10.0101 38.2458 5.59794 32.758 3.268C29.9874 2.09542 27.0086 1.49408 24 1.5ZM24 0C28.7468 0 33.3869 1.40758 37.3337 4.04473C41.2805 6.68188 44.3566 10.4302 46.1731 14.8156C47.9896 19.201 48.4649 24.0266 47.5388 28.6822C46.6128 33.3377 44.327 37.6141 40.9706 40.9706C37.6141 44.327 33.3377 46.6128 28.6822 47.5388C24.0266 48.4649 19.201 47.9896 14.8156 46.1731C10.4302 44.3566 6.68188 41.2805 4.04473 37.3337C1.40758 33.3869 0 28.7468 0 24C0 17.6348 2.52856 11.5303 7.02944 7.02944C11.5303 2.52856 17.6348 0 24 0V0Z" fill="#1F7EE8"/>
<path fill-rule="evenodd" clip-rule="evenodd" d="M25.3361 17.2281C25.1914 17.3747 25.1104 17.5723 25.1104 17.7781C25.1104 17.984 25.1914 18.1816 25.3361 18.3281L28.7361 21.7621L28.8141 21.8311C28.9604 21.9441 29.1432 21.9993 29.3276 21.9862C29.512 21.9731 29.6852 21.8927 29.8141 21.7601C29.9587 21.6136 30.0397 21.416 30.0397 21.2101C30.0397 21.0043 29.9587 20.8067 29.8141 20.6601L26.4141 17.2261L26.3361 17.1571C26.1894 17.045 26.0068 16.9903 25.8226 17.0034C25.6384 17.0164 25.4654 17.0964 25.3361 17.2281ZM16.6681 23.2281C16.4748 23.256 16.2991 23.3557 16.176 23.5073C16.053 23.659 15.9917 23.8515 16.0043 24.0464C16.0169 24.2412 16.1026 24.4242 16.2441 24.5587C16.3857 24.6932 16.5728 24.7695 16.7681 24.7721H30.1871L25.3371 29.6721L25.2681 29.7511C25.1562 29.9008 25.1015 30.0855 25.1137 30.272C25.126 30.4585 25.2045 30.6344 25.3351 30.7681C25.4054 30.8398 25.4894 30.8968 25.582 30.9356C25.6746 30.9745 25.7741 30.9945 25.8746 30.9945C25.975 30.9945 26.0745 30.9745 26.1671 30.9356C26.2597 30.8968 26.3437 30.8398 26.4141 30.7681L32.5741 24.5421L32.6421 24.4641C32.7235 24.356 32.7756 24.2286 32.7931 24.0943C32.8106 23.9601 32.793 23.8236 32.7421 23.6981C32.6855 23.557 32.588 23.4361 32.4623 23.3507C32.3365 23.2654 32.1881 23.2196 32.0361 23.2191H16.7641L16.6681 23.2281Z" fill="url(#paint0_linear_110_3515)"/>
<defs>
<linearGradient id="paint0_linear_110_3515" x1="32.3126" y1="30.9945" x2="19.6784" y2="14.6872" gradientUnits="userSpaceOnUse">
<stop stop-color="#1F90E8"/>
<stop offset="1" stop-color="#1F7EE8"/>
</linearGradient>
</defs>
</svg>
