<svg width="48" height="48" viewBox="0 0 48 48" fill="none" xmlns="http://www.w3.org/2000/svg">
<rect x="0.5" y="0.5" width="47" height="47" rx="11.5" stroke="white"/>
<path fill-rule="evenodd" clip-rule="evenodd" d="M26.0909 19.2652C26.4968 18.8906 27.1294 18.9159 27.504 19.3217L30.7348 22.8217C31.0884 23.2047 31.0884 23.7952 30.7348 24.1782L27.504 27.6783C27.1294 28.0841 26.4968 28.1094 26.091 27.7348C25.6851 27.3602 25.6598 26.7276 26.0344 26.3217L27.716 24.5L18 24.5C17.4477 24.5 17 24.0523 17 23.5C17 22.9477 17.4477 22.5 18 22.5L27.716 22.5L26.0344 20.6783C25.6598 20.2725 25.6851 19.6398 26.0909 19.2652Z" fill="white"/>
</svg>
