<svg width="18" height="16" viewBox="0 0 18 16" fill="none" xmlns="http://www.w3.org/2000/svg">
<path d="M13.3331 5.10112C12.9954 4.89888 12.5901 4.89888 12.2523 5.10112L9.75302 6.58427L8.06431 7.52809L5.56501 9.01124C5.22727 9.21348 4.82198 9.21348 4.48423 9.01124L2.52532 7.86517C2.25513 7.59551 2.05248 7.25843 2.05248 6.85393V4.62921C2.05248 4.22472 2.25513 3.88764 2.59287 3.68539L4.55178 2.60674C4.88952 2.40449 5.29482 2.40449 5.63256 2.60674L7.59147 3.68539C7.92921 3.88764 8.13186 4.22472 8.13186 4.62921V6.11236L9.82057 5.10112V3.68539C9.82057 3.2809 9.61792 2.94382 9.28018 2.74157L5.63256 0.651685C5.29482 0.449438 4.88952 0.449438 4.55178 0.651685L0.904158 2.74157C0.566415 2.94382 0.36377 3.2809 0.36377 3.68539V7.86517C0.36377 8.26966 0.566415 8.60674 0.904158 8.80899L4.55178 10.8989C4.88952 11.1011 5.29482 11.1011 5.63256 10.8989L8.13186 9.48315L9.82057 8.47191L12.3199 7.05618C12.6576 6.85393 13.0629 6.85393 13.4006 7.05618L15.3596 8.13483C15.6973 8.33708 15.8999 8.67416 15.8999 9.07865V11.3034C15.8999 11.7079 15.6973 12.0449 15.3596 12.2472L13.3331 13.3258C12.9954 13.5281 12.5901 13.5281 12.2523 13.3258L10.2934 12.2472C9.95567 12.0449 9.75302 11.7079 9.75302 11.3034V9.82022L8.06431 10.8315V12.3146C8.06431 12.7191 8.26695 13.0562 8.6047 13.2584L12.2523 15.3483C12.5901 15.5506 12.9954 15.5506 13.3331 15.3483L16.9807 13.2584C17.3185 13.0562 17.5211 12.7191 17.5211 12.3146V8.13483C17.5211 7.73034 17.3185 7.39326 16.9807 7.19101L13.3331 5.10112Z" fill="white" fill-opacity="0.8"/>
</svg>
