<svg width="13" height="16" viewBox="0 0 13 16" fill="none" xmlns="http://www.w3.org/2000/svg">
<g opacity="0.8">
<path d="M3.96051 2.4V10.8C3.96051 11.1713 4.10801 11.5274 4.37056 11.7899C4.63311 12.0525 4.98921 12.2 5.36051 12.2H10.9605C11.3318 12.2 11.6879 12.0525 11.9505 11.7899C12.213 11.5274 12.3605 11.1713 12.3605 10.8V4.6694C12.3605 4.48289 12.3232 4.29827 12.2508 4.12637C12.1785 3.95447 12.0725 3.79877 11.9391 3.6684L9.61861 1.399C9.35706 1.14326 9.00581 1.00005 8.64001 1H5.36051C4.98921 1 4.63311 1.1475 4.37056 1.41005C4.10801 1.6726 3.96051 2.0287 3.96051 2.4V2.4Z" stroke="white" stroke-linecap="round" stroke-linejoin="round"/>
<path d="M9.56052 12.2V13.6C9.56052 13.9713 9.41302 14.3274 9.15047 14.5899C8.88792 14.8525 8.53183 15 8.16052 15H2.56052C2.18922 15 1.83312 14.8525 1.57057 14.5899C1.30802 14.3274 1.16052 13.9713 1.16052 13.6V5.9C1.16052 5.5287 1.30802 5.1726 1.57057 4.91005C1.83312 4.6475 2.18922 4.5 2.56052 4.5H3.96052" stroke="white" stroke-linecap="round" stroke-linejoin="round"/>
</g>
</svg>
