<svg width="48" height="48" viewBox="0 0 48 48" fill="none" xmlns="http://www.w3.org/2000/svg">
<rect x="0.5" y="0.5" width="47" height="47" rx="11.5" stroke="white"/>
<path fill-rule="evenodd" clip-rule="evenodd" d="M21.9091 19.2652C21.5032 18.8906 20.8706 18.9159 20.496 19.3217L17.2652 22.8217C16.9116 23.2047 16.9116 23.7952 17.2652 24.1782L20.496 27.6783C20.8706 28.0841 21.5032 28.1094 21.909 27.7348C22.3149 27.3602 22.3402 26.7276 21.9656 26.3217L20.284 24.5L30 24.5C30.5523 24.5 31 24.0523 31 23.5C31 22.9477 30.5523 22.5 30 22.5L20.284 22.5L21.9656 20.6783C22.3402 20.2725 22.3149 19.6398 21.9091 19.2652Z" fill="white"/>
</svg>
