<svg width="48" height="48" viewBox="0 0 48 48" fill="none" xmlns="http://www.w3.org/2000/svg">
<path fill-rule="evenodd" clip-rule="evenodd" d="M24 1.5C11.5736 1.5 1.5 11.5736 1.5 24C1.5 36.4264 11.5736 46.5 24 46.5C36.4264 46.5 46.5 36.4264 46.5 24C46.5 11.5736 36.4264 1.5 24 1.5ZM0 24C0 10.7452 10.7452 0 24 0C37.2548 0 48 10.7452 48 24C48 37.2548 37.2548 48 24 48C10.7452 48 0 37.2548 0 24Z" fill="#1F7EE8" fill-opacity="1"/>
<path fill-rule="evenodd" clip-rule="evenodd" d="M22.9235 17C23.1195 17 23.3154 17.0759 23.4644 17.2277C23.7617 17.5315 23.7617 18.0224 23.4624 18.3241L20.0647 21.7578L19.9863 21.8272C19.6862 22.0583 19.258 22.0343 18.9855 21.7558C18.8368 21.6039 18.7624 21.4065 18.7624 21.2091C18.7624 21.0097 18.8368 20.8113 18.9874 20.6594L22.3841 17.2256L22.4626 17.1565C22.5986 17.0522 22.7611 17 22.9235 17ZM16.7637 23.2249H32.0364L32.1322 23.2309C32.5085 23.2787 32.8 23.6049 32.8 23.9998C32.8 24.4277 32.4579 24.7749 32.0364 24.7749H18.6127L23.4623 29.6759L23.5309 29.7551C23.7596 30.0582 23.7369 30.4938 23.4644 30.7723C23.167 31.0751 22.6833 31.0761 22.385 30.7744L16.225 24.5485L16.1571 24.4706C16.0538 24.3342 16 24.1677 16 23.9998C16 23.8996 16.0193 23.7993 16.0581 23.7043C16.1761 23.414 16.4541 23.2249 16.7637 23.2249Z" fill="#1F7EE8" fill-opacity="1"/>
</svg>
