<svg width="80" height="80" viewBox="0 0 80 80" fill="none" xmlns="http://www.w3.org/2000/svg">
<path d="M40 0C50.6087 0 60.7828 4.21427 68.2843 11.7157C75.7857 19.2172 80 29.3913 80 40C80 50.6087 75.7857 60.7828 68.2843 68.2843C60.7828 75.7857 50.6087 80 40 80C29.3913 80 19.2172 75.7857 11.7157 68.2843C4.21427 60.7828 0 50.6087 0 40C0 29.3913 4.21427 19.2172 11.7157 11.7157C19.2172 4.21427 29.3913 0 40 0V0ZM40 74.2857C49.0931 74.2857 57.8138 70.6735 64.2437 64.2437C70.6735 57.8138 74.2857 49.0931 74.2857 40C74.2857 30.9069 70.6735 22.1862 64.2437 15.7563C57.8138 9.32652 49.0931 5.71429 40 5.71429C30.9069 5.71429 22.1862 9.32652 15.7563 15.7563C9.32652 22.1862 5.71429 30.9069 5.71429 40C5.71429 49.0931 9.32652 57.8138 15.7563 64.2437C22.1862 70.6735 30.9069 74.2857 40 74.2857V74.2857ZM44.2857 58.5714C44.2857 59.7081 43.8342 60.7982 43.0305 61.6019C42.2267 62.4056 41.1366 62.8571 40 62.8571C38.8634 62.8571 37.7733 62.4056 36.9695 61.6019C36.1658 60.7982 35.7143 59.7081 35.7143 58.5714C35.7143 57.4348 36.1658 56.3447 36.9695 55.541C37.7733 54.7372 38.8634 54.2857 40 54.2857C41.1366 54.2857 42.2267 54.7372 43.0305 55.541C43.8342 56.3447 44.2857 57.4348 44.2857 58.5714ZM40 17.1429C40.7578 17.1429 41.4845 17.4439 42.0203 17.9797C42.5561 18.5155 42.8571 19.2422 42.8571 20V45.7143C42.8571 46.472 42.5561 47.1988 42.0203 47.7346C41.4845 48.2704 40.7578 48.5714 40 48.5714C39.2422 48.5714 38.5155 48.2704 37.9797 47.7346C37.4439 47.1988 37.1429 46.472 37.1429 45.7143V20C37.1429 19.2422 37.4439 18.5155 37.9797 17.9797C38.5155 17.4439 39.2422 17.1429 40 17.1429V17.1429Z" fill="#C60000"/>
</svg>
