<svg width="28" height="28" viewBox="0 0 28 28" fill="none" xmlns="http://www.w3.org/2000/svg">
<path fill-rule="evenodd" clip-rule="evenodd" d="M14 0.875C6.75126 0.875 0.875 6.75126 0.875 14C0.875 21.2487 6.75126 27.125 14 27.125C21.2487 27.125 27.125 21.2487 27.125 14C27.125 6.75126 21.2487 0.875 14 0.875ZM0 14C0 6.26801 6.26801 0 14 0C21.732 0 28 6.26801 28 14C28 21.732 21.732 28 14 28C6.26801 28 0 21.732 0 14Z" fill="#1F90E8" fill-opacity="0.8"/>
<path fill-rule="evenodd" clip-rule="evenodd" d="M13.3717 9.91675C13.4861 9.91675 13.6003 9.96105 13.6873 10.0496C13.8607 10.2268 13.8607 10.5131 13.6861 10.6891L11.7041 12.6922L11.6583 12.7326C11.4833 12.8674 11.2335 12.8534 11.0745 12.691C10.9878 12.6023 10.9444 12.4872 10.9444 12.3721C10.9444 12.2557 10.9878 12.14 11.0757 12.0514L13.0571 10.0484L13.1029 10.0081C13.1822 9.94717 13.277 9.91675 13.3717 9.91675ZM9.77847 13.5479H18.6876L18.7434 13.5515C18.963 13.5793 19.133 13.7696 19.133 14C19.133 14.2496 18.9335 14.4521 18.6876 14.4521H10.8571L13.686 17.311L13.726 17.3572C13.8594 17.534 13.8462 17.7881 13.6872 17.9506C13.5138 18.1272 13.2316 18.1278 13.0576 17.9518L9.46427 14.3201L9.42464 14.2746C9.36437 14.1951 9.33301 14.0979 9.33301 14C9.33301 13.9415 9.34427 13.883 9.36687 13.8276C9.43574 13.6582 9.59788 13.5479 9.77847 13.5479Z" fill="#1F90E8" fill-opacity="0.8"/>
</svg>
