<svg width="40" height="40" viewBox="0 0 40 40" fill="none" xmlns="http://www.w3.org/2000/svg">
<rect width="40" height="40" fill="#E5E5E5"/>
<rect x="-9867.5" y="-1201.5" width="25607" height="30617" fill="#E7F7E6" stroke="black"/>
<rect width="1440" height="850" transform="translate(-902 -396)" fill="#C0C0C0"/>
<g filter="url(#filter0_d_2_14355)">
<path d="M193 -296H-557V354H193V-296Z" fill="white"/>
</g>
<g filter="url(#filter1_d_2_14355)">
<rect x="-72" y="-23" width="184" height="120" rx="10" fill="white"/>
<g style="mix-blend-mode:luminosity">
<rect width="40" height="40" rx="20" fill="url(#paint0_linear_2_14355)"/>
<path d="M11.9003 25.2676C12.0472 25.1115 12.2463 25.0239 12.4539 25.0239H31.6077C31.9566 25.0239 32.1312 25.4725 31.8844 25.7348L28.0997 29.7563C27.9528 29.9123 27.7537 30 27.5461 30H8.39233C8.04341 30 7.86877 29.5513 8.11558 29.289L11.9003 25.2676Z" fill="white"/>
<path d="M11.9003 10.2437C12.0472 10.0876 12.2463 10 12.4539 10H31.6077C31.9566 10 32.1312 10.4487 31.8844 10.7109L28.0997 14.7324C27.9528 14.8884 27.7537 14.9761 27.5461 14.9761H8.39233C8.04341 14.9761 7.86877 14.5274 8.11558 14.2652L11.9003 10.2437Z" fill="white"/>
<path d="M28.0997 17.7078C27.9528 17.5518 27.7537 17.4641 27.5461 17.4641H8.39233C8.04341 17.4641 7.86877 17.9128 8.11558 18.175L11.9003 22.1965C12.0472 22.3525 12.2463 22.4402 12.4539 22.4402H31.6077C31.9566 22.4402 32.1312 21.9915 31.8844 21.7292L28.0997 17.7078Z" fill="white"/>
</g>
</g>
<defs>
<filter id="filter0_d_2_14355" x="-607" y="-343" width="850" height="750" filterUnits="userSpaceOnUse" color-interpolation-filters="sRGB">
<feFlood flood-opacity="0" result="BackgroundImageFix"/>
<feColorMatrix in="SourceAlpha" type="matrix" values="0 0 0 0 0 0 0 0 0 0 0 0 0 0 0 0 0 0 127 0" result="hardAlpha"/>
<feOffset dy="3"/>
<feGaussianBlur stdDeviation="25"/>
<feColorMatrix type="matrix" values="0 0 0 0 0 0 0 0 0 0 0 0 0 0 0 0 0 0 0.161 0"/>
<feBlend mode="normal" in2="BackgroundImageFix" result="effect1_dropShadow_2_14355"/>
<feBlend mode="normal" in="SourceGraphic" in2="effect1_dropShadow_2_14355" result="shape"/>
</filter>
<filter id="filter1_d_2_14355" x="-122" y="-70" width="284" height="220" filterUnits="userSpaceOnUse" color-interpolation-filters="sRGB">
<feFlood flood-opacity="0" result="BackgroundImageFix"/>
<feColorMatrix in="SourceAlpha" type="matrix" values="0 0 0 0 0 0 0 0 0 0 0 0 0 0 0 0 0 0 127 0" result="hardAlpha"/>
<feOffset dy="3"/>
<feGaussianBlur stdDeviation="25"/>
<feColorMatrix type="matrix" values="0 0 0 0 0 0 0 0 0 0 0 0 0 0 0 0 0 0 0.078 0"/>
<feBlend mode="normal" in2="BackgroundImageFix" result="effect1_dropShadow_2_14355"/>
<feBlend mode="normal" in="SourceGraphic" in2="effect1_dropShadow_2_14355" result="shape"/>
</filter>
<linearGradient id="paint0_linear_2_14355" x1="27.0424" y1="-10.9722" x2="-4.66589" y2="36.6226" gradientUnits="userSpaceOnUse">
<stop stop-color="#00FFA3"/>
<stop offset="1" stop-color="#DC1FFF"/>
</linearGradient>
</defs>
</svg>
