<svg width="25" height="22" viewBox="0 0 25 22" fill="none" xmlns="http://www.w3.org/2000/svg">
<path d="M9.02706 20.864L9.66306 14.093H9.67006C9.67603 14.0227 9.70483 13.9563 9.75206 13.904C9.75206 13.904 19.7991 4.98198 20.0671 4.04398C20.0871 3.97098 20.0091 3.93598 19.9041 3.96698C19.2371 4.21298 7.66906 11.518 6.39206 12.324C6.30041 12.3519 6.20352 12.358 6.10906 12.342L0.499064 10.514C0.499064 10.514 -0.171936 10.241 0.044064 9.62498C0.086064 9.49298 0.176064 9.39298 0.445064 9.20198C1.68706 8.33598 23.4611 0.509978 23.4611 0.509978C23.7749 0.399245 24.1128 0.375404 24.4391 0.440978C24.5284 0.468946 24.6087 0.520026 24.6719 0.589041C24.7352 0.658057 24.779 0.742556 24.7991 0.833978C24.8382 0.99761 24.8547 1.16585 24.8481 1.33398C24.8481 1.47798 24.8281 1.61098 24.8161 1.82098C24.6831 3.95998 20.7161 19.929 20.7161 19.929C20.7161 19.929 20.4781 20.864 19.6281 20.896C19.4189 20.9028 19.2106 20.8674 19.0154 20.792C18.8203 20.7166 18.6423 20.6026 18.4921 20.457C17.7371 19.808 16.1421 18.657 14.5041 17.515C13.8281 18.081 12.3551 19.347 10.8341 20.868C10.1431 21.559 9.71206 21.79 9.44406 21.79C8.90906 21.785 9.02706 20.864 9.02706 20.864Z" fill="white"/>
</svg>
