<svg width="24" height="19" viewBox="0 0 24 19" fill="none" xmlns="http://www.w3.org/2000/svg">
<path d="M20.0303 2.27022C20.0237 2.2575 20.0129 2.24753 19.9996 2.2421C18.4679 1.53932 16.8514 1.03818 15.1908 0.751229C15.1757 0.748424 15.1601 0.750448 15.1462 0.757012C15.1324 0.763576 15.1209 0.774347 15.1135 0.787792C14.8934 1.18728 14.6936 1.59763 14.5149 2.01726C12.7248 1.74552 10.9039 1.74552 9.11381 2.01726C8.93388 1.59656 8.73087 1.18612 8.5057 0.787792C8.49798 0.774639 8.48647 0.764116 8.47269 0.757595C8.4589 0.751073 8.44346 0.748855 8.4284 0.751229C6.76756 1.03758 5.15103 1.53875 3.61949 2.24214C3.60638 2.2477 3.59532 2.25719 3.58783 2.2693C0.52505 6.84316 -0.313962 11.3046 0.0976286 15.7107C0.0987865 15.7215 0.102104 15.732 0.107385 15.7415C0.112665 15.751 0.1198 15.7593 0.128365 15.766C1.91179 17.0865 3.90658 18.0944 6.0276 18.7468C6.04254 18.7513 6.05849 18.7511 6.07331 18.7462C6.08813 18.7413 6.1011 18.7321 6.11049 18.7196C6.56604 18.0998 6.96969 17.4434 7.31734 16.7572C7.32211 16.7478 7.32484 16.7375 7.32534 16.7269C7.32584 16.7164 7.32409 16.7058 7.32023 16.696C7.31636 16.6862 7.31045 16.6773 7.3029 16.6699C7.29534 16.6626 7.28631 16.6569 7.27639 16.6532C6.63987 16.4097 6.02363 16.1161 5.43348 15.7752C5.42276 15.7689 5.41375 15.7601 5.40726 15.7495C5.40077 15.7388 5.39699 15.7268 5.39626 15.7144C5.39552 15.702 5.39786 15.6896 5.40305 15.6783C5.40825 15.667 5.41614 15.6571 5.42605 15.6496C5.55023 15.5568 5.67226 15.4612 5.79203 15.3629C5.80254 15.3542 5.81525 15.3487 5.82874 15.3468C5.84223 15.345 5.85595 15.347 5.86837 15.3526C9.73473 17.1171 13.9206 17.1171 17.7412 15.3526C17.7536 15.3466 17.7675 15.3444 17.7812 15.346C17.7949 15.3477 17.8078 15.3532 17.8185 15.3619C17.9384 15.4608 18.0607 15.5568 18.1854 15.6496C18.1953 15.6571 18.2033 15.6668 18.2086 15.6781C18.2139 15.6893 18.2163 15.7017 18.2156 15.7141C18.215 15.7266 18.2113 15.7386 18.2049 15.7493C18.1985 15.7599 18.1896 15.7688 18.1789 15.7752C17.5901 16.119 16.9733 16.4124 16.3351 16.6523C16.3252 16.6561 16.3162 16.6619 16.3087 16.6694C16.3012 16.6769 16.2953 16.6859 16.2915 16.6958C16.2877 16.7057 16.2861 16.7163 16.2867 16.7269C16.2872 16.7374 16.29 16.7478 16.2949 16.7572C16.6484 17.4396 17.0514 18.0951 17.5008 18.7185C17.5099 18.7313 17.5229 18.7409 17.5377 18.746C17.5526 18.751 17.5687 18.7513 17.5837 18.7467C19.7085 18.0965 21.7068 17.0885 23.4925 15.766C23.5012 15.7596 23.5084 15.7515 23.5137 15.7421C23.519 15.7328 23.5222 15.7224 23.5232 15.7116C24.016 10.6177 22.6983 6.19283 20.0303 2.27022ZM7.89474 13.0278C6.73069 13.0278 5.77154 11.9596 5.77154 10.6477C5.77154 9.33577 6.71209 8.26746 7.89474 8.26746C9.08665 8.26746 10.0365 9.34505 10.0179 10.6476C10.0179 11.9596 9.07732 13.0278 7.89474 13.0278ZM15.7449 13.0278C14.5808 13.0278 13.6217 11.9596 13.6217 10.6477C13.6217 9.33577 14.5622 8.26746 15.7449 8.26746C16.9368 8.26746 17.8867 9.34505 17.8681 10.6476C17.8681 11.9596 16.9368 13.0278 15.7449 13.0278Z" fill="white"/>
</svg>
