<svg width="28" height="22" viewBox="0 0 28 22" fill="none" xmlns="http://www.w3.org/2000/svg">
<path d="M24.5 5.33182C24.517 5.56582 24.517 5.79982 24.517 6.03182C24.4963 8.0908 24.0662 10.1251 23.2517 12.0162C22.4371 13.9073 21.2545 15.6175 19.7726 17.0471C18.2907 18.4767 16.5391 19.5972 14.62 20.3433C12.7008 21.0893 10.6524 21.4461 8.594 21.3928C5.5592 21.4041 2.58198 20.5647 0 18.9698C0.448713 19.0176 0.899765 19.0399 1.351 19.0368C3.85713 19.0474 6.29781 18.2371 8.3 16.7298C7.14813 16.7216 6.02698 16.3574 5.09015 15.6871C4.15333 15.0169 3.44668 14.0734 3.067 12.9858C3.41687 13.039 3.77012 13.0667 4.124 13.0688C4.62157 13.0684 5.11722 13.0072 5.6 12.8868C4.35248 12.6628 3.222 12.0111 2.40293 11.0439C1.58386 10.0766 1.12738 8.8542 1.112 7.58682V7.51982C1.89192 7.93845 2.75741 8.17278 3.642 8.20482C2.88122 7.72511 2.25374 7.06124 1.81763 6.27466C1.38151 5.48808 1.15085 4.6042 1.147 3.70482C1.14515 2.74395 1.40885 1.80126 1.909 0.98082C3.34101 2.66444 5.10418 4.03534 7.08881 5.00821C9.07343 5.98108 11.237 6.53511 13.445 6.63582C13.3552 6.23021 13.3086 5.81624 13.306 5.40082C13.3323 3.94311 13.9363 2.55548 14.9852 1.5429C16.0342 0.530327 17.4423 -0.024335 18.9 0.000819731C19.6607 -0.00400888 20.4146 0.143977 21.117 0.435999C21.8194 0.728021 22.456 1.15813 22.989 1.70082C24.2378 1.4707 25.4387 1.03118 26.541 0.40082C26.1136 1.66061 25.2381 2.71939 24.081 3.37582C25.1901 3.25435 26.2757 2.97276 27.304 2.53982C26.5331 3.62161 25.5851 4.56553 24.5 5.33182Z" fill="white"/>
</svg>
