<svg width="17" height="16" viewBox="0 0 17 16" fill="none" xmlns="http://www.w3.org/2000/svg">
<path d="M10.2834 5.47068V3.5256H14.8399V0.5H2.39151V3.52557H6.94761V5.47815C3.26731 5.6673 0.510254 6.44248 0.510254 7.37017C0.510254 8.29783 3.26731 9.07301 6.94761 9.2622V15.3237C7.51114 15.4395 8.09452 15.5 8.69207 15.5C9.23576 15.5 9.76775 15.4498 10.2834 15.3536V9.26966C14.0403 9.09439 16.8739 8.31064 16.8739 7.37017C16.8739 6.4297 14.0403 5.64596 10.2834 5.47068ZM8.69207 8.56573C4.5868 8.56573 1.25882 7.9441 1.25882 7.1771C1.25882 6.52233 3.68411 5.97336 6.94764 5.82692V8.05095C7.5009 8.13111 8.05839 8.17137 8.61555 8.17137C9.17305 8.17137 9.73054 8.13111 10.2835 8.05095V5.82014C13.6239 5.95658 16.125 6.51197 16.125 7.17707C16.125 7.94407 12.797 8.56573 8.69207 8.56573Z" fill="white" fill-opacity="0.8"/>
</svg>
