
<svg width="24" height="24" viewBox="0 0 24 24" fill="none" xmlns="http://www.w3.org/2000/svg">
    <path fill-rule="evenodd" clip-rule="evenodd" d="M15.8882 13.5967L18.1508 15.8537L12 22L5.85566 15.8537L8.11833 13.5967L12 17.4797L15.8882 13.5967ZM12 9.70732L14.2952 12.0033L12 14.2992L9.71131 12.0098V12.0033L10.1144 11.6L10.3095 11.4049L12 9.70732ZM4.26268 9.73984L6.52536 12.0033L4.26268 14.2602L2 11.9967L4.26268 9.73984ZM19.7373 9.73984L22 12.0033L19.7373 14.2602L17.4746 11.9967L19.7373 9.73984ZM12 2L18.1443 8.14634L15.8817 10.4098L12 6.52033L8.11833 10.4033L5.85566 8.14634L12 2Z" fill="white"/>
    </svg>
    
    