<svg width="24" height="24" viewBox="0 0 24 24" fill="none" xmlns="http://www.w3.org/2000/svg">
    <g clip-path="url(#clip0_4752_645)">
    <path d="M20.3483 4.54436C20.3416 4.53143 20.3305 4.5213 20.3171 4.51578C18.761 3.80185 17.1189 3.29276 15.4319 3.00125C15.4166 2.9984 15.4008 3.00045 15.3867 3.00712C15.3726 3.01379 15.361 3.02473 15.3534 3.03839C15.1298 3.44423 14.9269 3.86108 14.7453 4.28738C12.9268 4.01133 11.077 4.01133 9.25848 4.28738C9.07569 3.86 8.86946 3.44304 8.64072 3.03839C8.63287 3.02503 8.62119 3.01434 8.60718 3.00772C8.59317 3.00109 8.57749 2.99884 8.56219 3.00125C6.87499 3.29214 5.2328 3.80128 3.67695 4.51583C3.66363 4.52147 3.65239 4.53111 3.64478 4.54342C0.533384 9.18988 -0.318946 13.7221 0.0991784 18.1982C0.100355 18.2092 0.103725 18.2198 0.109089 18.2294C0.114453 18.2391 0.121702 18.2475 0.130403 18.2543C1.94214 19.5958 3.96859 20.6197 6.12328 21.2825C6.13845 21.287 6.15466 21.2868 6.16971 21.2819C6.18477 21.2769 6.19795 21.2675 6.20749 21.2549C6.67027 20.6252 7.08032 19.9584 7.43349 19.2613C7.43834 19.2517 7.44111 19.2413 7.44162 19.2305C7.44213 19.2198 7.44035 19.2091 7.43643 19.1991C7.4325 19.1892 7.4265 19.1801 7.41882 19.1726C7.41115 19.1651 7.40197 19.1594 7.3919 19.1557C6.74527 18.9083 6.11925 18.61 5.51973 18.2637C5.50884 18.2573 5.49969 18.2483 5.4931 18.2375C5.4865 18.2268 5.48266 18.2145 5.48191 18.2019C5.48117 18.1893 5.48354 18.1767 5.48882 18.1652C5.49409 18.1538 5.50212 18.1438 5.51218 18.1361C5.63797 18.0419 5.76385 17.9438 5.88397 17.8448C5.89465 17.836 5.90756 17.8304 5.92126 17.8285C5.93496 17.8267 5.94891 17.8287 5.96153 17.8344C9.88925 19.6269 14.1416 19.6269 18.0228 17.8344C18.0354 17.8284 18.0495 17.8261 18.0634 17.8277C18.0773 17.8294 18.0905 17.835 18.1013 17.8439C18.2215 17.9429 18.3473 18.0419 18.4741 18.1361C18.4842 18.1437 18.4923 18.1536 18.4976 18.1651C18.503 18.1765 18.5055 18.1891 18.5048 18.2017C18.5041 18.2143 18.5004 18.2265 18.4939 18.2374C18.4874 18.2482 18.4783 18.2572 18.4674 18.2637C17.8693 18.6129 17.2427 18.911 16.5944 19.1547C16.5843 19.1586 16.5752 19.1645 16.5675 19.1721C16.5599 19.1797 16.554 19.1888 16.5501 19.1989C16.5463 19.2089 16.5446 19.2197 16.5452 19.2305C16.5458 19.2412 16.5486 19.2517 16.5536 19.2613C16.9126 19.9545 17.3221 20.6205 17.7786 21.2538C17.7879 21.2668 17.801 21.2765 17.8161 21.2816C17.8312 21.2868 17.8476 21.287 17.8628 21.2823C20.0214 20.6218 22.0514 19.5978 23.8654 18.2543C23.8742 18.2479 23.8816 18.2396 23.887 18.2301C23.8923 18.2206 23.8956 18.21 23.8966 18.1991C24.3972 13.0243 23.0586 8.52923 20.3483 4.54436ZM8.02006 15.4727C6.83753 15.4727 5.86316 14.3875 5.86316 13.0548C5.86316 11.7221 6.81863 10.6368 8.02006 10.6368C9.23088 10.6368 10.1958 11.7315 10.1769 13.0547C10.1769 14.3875 9.22141 15.4727 8.02006 15.4727ZM15.9948 15.4727C14.8123 15.4727 13.8379 14.3875 13.8379 13.0548C13.8379 11.7221 14.7934 10.6368 15.9948 10.6368C17.2057 10.6368 18.1706 11.7315 18.1517 13.0547C18.1517 14.3875 17.2057 15.4727 15.9948 15.4727Z" fill="#CECECE"/>
    </g>
    <defs>
    <clipPath id="clip0_4752_645">
    <rect width="24" height="24" fill="white"/>
    </clipPath>
    </defs>
    </svg>
    