<svg width="48" height="48" viewBox="0 0 48 48" fill="none" xmlns="http://www.w3.org/2000/svg">
    <rect width="48" height="48" rx="8" fill="#3F2AA5"/>
    <path d="M28.1401 14.96L19.1101 17.96C13.0401 19.99 13.0401 23.3 19.1101 25.32L21.7901 26.21L22.6801 28.89C24.7001 34.96 28.0201 34.96 30.0401 28.89L33.0501 19.87C34.3901 15.82 32.1901 13.61 28.1401 14.96ZM28.4601 20.34L24.6601 24.16C24.5101 24.31 24.3201 24.38 24.1301 24.38C23.9401 24.38 23.7501 24.31 23.6001 24.16C23.3101 23.87 23.3101 23.39 23.6001 23.1L27.4001 19.28C27.6901 18.99 28.1701 18.99 28.4601 19.28C28.7501 19.57 28.7501 20.05 28.4601 20.34Z" fill="white"/>
    </svg>
    