<svg width="20" height="20" viewBox="0 0 20 20" fill="none" xmlns="http://www.w3.org/2000/svg">
    <path fill-rule="evenodd" clip-rule="evenodd" d="M20 10C20 15.5228 15.5228 20 10 20C4.47715 20 0 15.5228 0 10C0 4.47715 4.47715 0 10 0C15.5228 0 20 4.47715 20 10ZM10.896 7.13873L4.16185 9.9133C2.97688 10.3757 3.67052 10.8093 3.67052 10.8093C3.67052 10.8093 4.68208 11.1561 5.54913 11.4162C6.41618 11.6763 6.87861 11.3873 6.87861 11.3873L10.9538 8.64162C12.3988 7.65896 12.052 8.46821 11.7052 8.81503C10.9538 9.56648 9.71098 10.7514 8.67052 11.7052C8.20809 12.1098 8.43931 12.4566 8.64162 12.6301C9.22976 13.1277 10.6146 14.0326 11.2442 14.4439C11.419 14.5582 11.5356 14.6343 11.5607 14.6532C11.7052 14.7688 12.5145 15.289 13.0058 15.1734C13.4971 15.0578 13.5549 14.3931 13.5549 14.3931L14.2775 9.85549C14.3417 9.43009 14.4059 9.0136 14.4658 8.62522C14.6215 7.61512 14.7479 6.79514 14.7688 6.50289C14.8555 5.52023 13.815 5.92486 13.815 5.92486C13.815 5.92486 11.5607 6.84971 10.896 7.13873Z" fill="#CECECE"/>
    </svg>
    