<svg width="20" height="20" viewBox="0 0 20 20" fill="none" xmlns="http://www.w3.org/2000/svg">
<path d="M9.99996 18.9584C5.05829 18.9584 1.04163 14.9417 1.04163 10C1.04163 5.05835 5.05829 1.04169 9.99996 1.04169C14.9416 1.04169 18.9583 5.05835 18.9583 10C18.9583 14.9417 14.9416 18.9584 9.99996 18.9584ZM9.99996 2.29169C5.74996 2.29169 2.29163 5.75002 2.29163 10C2.29163 14.25 5.74996 17.7084 9.99996 17.7084C14.25 17.7084 17.7083 14.25 17.7083 10C17.7083 5.75002 14.25 2.29169 9.99996 2.29169Z" fill="#20232C"/>
<path d="M10.0085 11.8519C9.58457 11.8519 9.23305 11.5004 9.23305 11.0765V10.8594C9.23305 9.66015 10.1118 9.07083 10.4427 8.84338C10.8252 8.58491 10.9493 8.40916 10.9493 8.14035C10.9493 7.62342 10.5254 7.19949 10.0085 7.19949C9.49152 7.19949 9.06766 7.62342 9.06766 8.14035C9.06766 8.56424 8.71614 8.91576 8.29225 8.91576C7.86836 8.91576 7.51685 8.56424 7.51685 8.14035C7.51685 6.7653 8.6334 5.64868 10.0085 5.64868C11.3835 5.64868 12.5001 6.7653 12.5001 8.14035C12.5001 9.31897 11.6316 9.90826 11.3111 10.1254C10.9079 10.3942 10.7839 10.57 10.7839 10.8594V11.0765C10.7839 11.5107 10.4323 11.8519 10.0085 11.8519Z" fill="#20232C"/>
<path d="M10.0088 14.4262C9.57458 14.4262 9.2334 14.0747 9.2334 13.6508C9.2334 13.2269 9.58492 12.8754 10.0088 12.8754C10.4327 12.8754 10.7842 13.2269 10.7842 13.6508C10.7842 14.0747 10.443 14.4262 10.0088 14.4262Z" fill="#20232C"/>
</svg>
