<svg width="17" height="16" viewBox="0 0 17 16" fill="none" xmlns="http://www.w3.org/2000/svg">
    <path d="M13.2132 13.2136C13.0865 13.2136 12.9598 13.1669 12.8598 13.0669C12.6665 12.8736 12.6665 12.5536 12.8598 12.3602C15.2665 9.95358 15.2665 6.04024 12.8598 3.64024C12.6665 3.44691 12.6665 3.12691 12.8598 2.93357C13.0532 2.74024 13.3732 2.74024 13.5665 2.93357C16.3598 5.72691 16.3598 10.2736 13.5665 13.0669C13.4665 13.1669 13.3398 13.2136 13.2132 13.2136Z" fill="white"/>
    <path d="M3.78671 13.2136C3.66005 13.2136 3.53338 13.1669 3.43338 13.0669C0.640045 10.2736 0.640045 5.72691 3.43338 2.93357C3.62671 2.74024 3.94671 2.74024 4.14005 2.93357C4.33338 3.12691 4.33338 3.44691 4.14005 3.64024C1.73338 6.04691 1.73338 9.96024 4.14005 12.3602C4.33338 12.5536 4.33338 12.8736 4.14005 13.0669C4.04005 13.1669 3.91338 13.2136 3.78671 13.2136Z" fill="white"/>
    <path d="M8.50016 15.1398C7.66683 15.1331 6.8735 14.9998 6.1335 14.7398C5.8735 14.6465 5.7335 14.3598 5.82683 14.0998C5.92016 13.8398 6.20016 13.6998 6.46683 13.7931C7.10683 14.0131 7.78683 14.1331 8.50683 14.1331C9.22017 14.1331 9.90683 14.0131 10.5402 13.7931C10.8002 13.7065 11.0868 13.8398 11.1802 14.0998C11.2735 14.3598 11.1335 14.6465 10.8735 14.7398C10.1268 14.9998 9.3335 15.1398 8.50016 15.1398Z" fill="white"/>
    <path d="M10.7002 2.22653C10.6468 2.22653 10.5868 2.21986 10.5335 2.19986C9.90017 1.9732 9.2135 1.85986 8.50016 1.85986C7.78683 1.85986 7.10683 1.97986 6.46683 2.19986C6.20016 2.28653 5.92016 2.1532 5.82683 1.8932C5.7335 1.6332 5.8735 1.34653 6.1335 1.2532C6.88016 0.993197 7.6735 0.859863 8.50016 0.859863C9.32683 0.859863 10.1268 0.993197 10.8668 1.2532C11.1268 1.34653 11.2668 1.6332 11.1735 1.8932C11.1002 2.09986 10.9068 2.22653 10.7002 2.22653Z" fill="white"/>
    <path d="M6.32666 7.99993V6.8866C6.32666 5.49993 7.30666 4.93327 8.50666 5.6266L9.47333 6.1866L10.44 6.7466C11.64 7.43993 11.64 8.57327 10.44 9.2666L9.47333 9.8266L8.50666 10.3866C7.30666 11.0799 6.32666 10.5133 6.32666 9.1266V7.99993Z" fill="white"/>
    </svg>
    