<svg width="13" height="14" viewBox="0 0 13 14" fill="none" xmlns="http://www.w3.org/2000/svg">
<g id="warning">
<path id="Vector" d="M12.1329 11.3672L6.85161 2.22656C6.7729 2.09072 6.63706 2.02344 6.49995 2.02344C6.36284 2.02344 6.22574 2.09072 6.14829 2.22656L0.867045 11.3672C0.710893 11.6389 0.906401 11.9766 1.21871 11.9766H11.7812C12.0935 11.9766 12.289 11.6389 12.1329 11.3672ZM6.0937 5.78125C6.0937 5.72539 6.13941 5.67969 6.19527 5.67969H6.80464C6.8605 5.67969 6.9062 5.72539 6.9062 5.78125V8.11719C6.9062 8.17305 6.8605 8.21875 6.80464 8.21875H6.19527C6.13941 8.21875 6.0937 8.17305 6.0937 8.11719V5.78125ZM6.49995 10.25C6.34049 10.2467 6.18866 10.1811 6.07703 10.0672C5.96541 9.95326 5.90289 9.80012 5.90289 9.64062C5.90289 9.48113 5.96541 9.32799 6.07703 9.21406C6.18866 9.10014 6.34049 9.03451 6.49995 9.03125C6.65942 9.03451 6.81125 9.10014 6.92287 9.21406C7.0345 9.32799 7.09702 9.48113 7.09702 9.64062C7.09702 9.80012 7.0345 9.95326 6.92287 10.0672C6.81125 10.1811 6.65942 10.2467 6.49995 10.25Z" fill="#56607A"/>
</g>
</svg>
