<svg width="15" height="18" viewBox="0 0 15 18" fill="none" xmlns="http://www.w3.org/2000/svg">
    <path d="M14.5103 2.10686C14.5199 2.24071 14.4622 2.37457 14.3565 2.47273C14.27 2.55305 14.2027 2.62444 14.1259 2.69583C14.049 2.76722 13.9529 2.82076 13.8472 2.84753C13.7991 2.86538 13.7607 2.88323 13.7222 2.91892C13.53 3.05278 13.3474 3.18664 13.1648 3.32942C12.9822 3.4722 12.8093 3.61498 12.6267 3.74884C12.5594 3.78453 12.5017 3.82915 12.4633 3.89162C12.348 3.98085 12.2423 4.06117 12.1365 4.15041C12.0308 4.23965 11.9155 4.32888 11.7906 4.4092C11.6368 4.55198 11.483 4.68584 11.3293 4.82862C11.1755 4.96247 11.0025 5.10525 10.8392 5.24803L10.7046 5.37297C10.6566 5.40866 10.6181 5.45328 10.5701 5.48898L10.1568 5.84593C10.0223 5.96194 9.88774 6.06902 9.74359 6.18503C9.73398 6.19396 9.72437 6.20288 9.72437 6.20288C9.72437 6.20288 9.71476 6.20288 9.70515 6.22073C9.60905 6.39028 9.4745 6.53306 9.31113 6.64015C9.14775 6.75616 9.0036 6.87217 8.85944 7.00602L8.80178 7.05957C8.78256 7.07741 8.77295 7.09526 8.75373 7.11311C8.73451 7.15773 8.71529 7.19342 8.67685 7.22912C8.63841 7.26481 8.59036 7.28266 8.54231 7.28266C8.45582 7.30943 8.37893 7.35405 8.32127 7.42544C8.254 7.47899 8.21556 7.54145 8.19634 7.62177C8.20595 7.71993 8.22517 7.82701 8.26361 7.91625C8.30205 8.00549 8.32127 8.10365 8.32127 8.20181C8.33088 8.24643 8.34049 8.29105 8.3501 8.31782C8.35971 8.35352 8.35971 8.38921 8.35971 8.42491C8.32127 8.52307 8.34049 8.63908 8.41737 8.71939C8.42698 8.73724 8.43659 8.75509 8.4462 8.77294C8.45582 8.79079 8.46542 8.80863 8.46542 8.82648C8.4462 8.93357 8.46542 9.04958 8.51347 9.14774C8.56153 9.25482 8.58075 9.37083 8.56153 9.47792C8.55192 9.55823 8.56153 9.64747 8.60958 9.71886C8.64802 9.78133 8.68646 9.85272 8.73451 9.93303C8.75373 9.98657 8.78256 10.049 8.80178 10.1115C8.83061 10.1651 8.84023 10.2275 8.84023 10.29C8.84984 10.4595 8.88827 10.6202 8.94594 10.7719C9.0036 10.9325 9.06126 11.0842 9.10931 11.2448C9.15736 11.3608 9.1958 11.4947 9.20541 11.6196C9.21502 11.7446 9.17658 11.8695 9.0997 11.9766C9.11892 12.0301 9.14775 12.0658 9.1958 12.0658C9.24385 12.0658 9.28229 12.0747 9.33035 12.0837C9.35918 12.1015 9.38801 12.1104 9.41684 12.1372C9.45528 12.164 9.4745 12.1818 9.4745 12.1997C9.45528 12.3068 9.46489 12.4049 9.51294 12.5031C9.56099 12.6012 9.59943 12.6994 9.61865 12.8065C9.63787 12.9136 9.6571 13.0028 9.67632 13.0921C9.69554 13.1902 9.74359 13.2884 9.79164 13.3776C9.81086 13.4044 9.82047 13.4401 9.81086 13.4758C9.80125 13.5115 9.80125 13.5472 9.80125 13.5918C9.80125 13.806 9.83008 14.0112 9.89735 14.2165C9.96462 14.4217 10.0511 14.618 10.1664 14.8054C10.2145 14.9304 10.2625 15.0464 10.3202 15.1713C10.3779 15.2962 10.4259 15.4212 10.4932 15.555C10.5028 15.5729 10.6373 15.7514 10.6181 15.796C10.5605 15.8138 10.5028 15.8138 10.4451 15.8049C10.3875 15.787 10.3394 15.7692 10.2818 15.7424C10.0607 15.6086 9.85891 15.4479 9.68593 15.2605C9.51294 15.0731 9.35918 14.8768 9.22464 14.6626C9.12853 14.5199 9.04204 14.3771 8.95555 14.2343C8.86905 14.0915 8.77295 13.9487 8.69607 13.806C8.58075 13.6364 8.48465 13.4669 8.38854 13.2884C8.29244 13.1099 8.20595 12.9404 8.11946 12.7708C8.02335 12.5834 7.94647 12.3871 7.8792 12.1818C7.81193 11.9766 7.73504 11.7892 7.64855 11.5929C7.59089 11.4412 7.52362 11.2984 7.46596 11.1556C7.4083 11.0128 7.35064 10.87 7.30259 10.7183C7.25453 10.5666 7.20648 10.4417 7.16804 10.2989C7.1296 10.1561 7.08155 10.0223 7.04311 9.87949C7.01428 9.8081 6.96623 9.70101 6.88934 9.55823C6.83168 9.44222 6.7548 9.33514 6.6587 9.23697C6.63948 9.27267 6.62026 9.29944 6.59142 9.32621C6.56259 9.34406 6.55298 9.37083 6.54337 9.40653C6.50493 9.46007 6.45688 9.51361 6.40883 9.56716C6.36078 9.6207 6.30312 9.65639 6.23585 9.69209C6.08208 9.79025 5.93793 9.91518 5.82261 10.058C5.79377 10.1294 5.73611 10.1829 5.65923 10.2186C5.60157 10.2454 5.5343 10.2721 5.46703 10.2989C5.44781 10.3435 5.42859 10.3971 5.40937 10.4506C5.39015 10.5042 5.36131 10.5488 5.31326 10.5845C5.22677 10.6916 5.14989 10.7897 5.05379 10.8968C4.95768 11.0039 4.86158 11.1021 4.76548 11.2091C4.59249 11.4233 4.4099 11.6464 4.22731 11.8606C4.0351 12.0837 3.8525 12.2978 3.66991 12.5209C3.57381 12.6548 3.48732 12.7708 3.39121 12.8868C3.29511 13.0028 3.19901 13.1188 3.10291 13.2438C3.08369 13.2705 3.06446 13.2884 3.05485 13.3241C3.04524 13.3508 3.02602 13.3687 2.99719 13.3865C2.92031 13.4044 2.85304 13.4401 2.80499 13.4936C2.75694 13.5472 2.70888 13.5918 2.66083 13.6453C2.54551 13.7703 2.43019 13.913 2.33409 14.0558C2.23798 14.1986 2.12266 14.3235 1.99773 14.4396C1.94007 14.502 1.90163 14.5734 1.87279 14.6448C1.84396 14.7162 1.80552 14.7965 1.76708 14.859C1.67098 15.0196 1.58448 15.1802 1.49799 15.3498C1.4115 15.5193 1.29618 15.671 1.15203 15.8049C1.1232 15.8495 1.09436 15.8941 1.07514 15.9388C1.05592 15.9923 1.02709 16.0369 0.998261 16.0905C0.95021 16.1886 0.930989 16.2868 0.940599 16.3939C0.95021 16.492 0.921378 16.5902 0.882937 16.6794C0.854107 16.7062 0.825275 16.7419 0.825275 16.7776C0.806055 16.8847 0.796446 16.9918 0.796446 17.0988C0.796446 17.2059 0.786834 17.3219 0.777224 17.4469L0.748394 17.5004C0.661902 17.5004 0.575409 17.4915 0.488916 17.4736C0.402424 17.438 0.325542 17.3755 0.296711 17.2862C0.162168 17.0542 0.0660666 16.7954 0.0276256 16.5277C-0.0108154 16.26 -0.00120395 15.9834 0.0468473 15.7157C0.104509 15.4569 0.171778 15.2159 0.24866 14.975C0.325542 14.7251 0.421647 14.4842 0.52736 14.2432C0.613852 14.0291 0.729175 13.8149 0.863719 13.6186C0.998262 13.4133 1.12319 13.2081 1.22891 12.9939C1.24813 12.9493 1.27696 12.8957 1.29618 12.8511C1.32501 12.7976 1.35384 12.753 1.39228 12.7083C1.47877 12.5745 1.55565 12.4495 1.65176 12.3335C1.74786 12.2175 1.83435 12.1015 1.93045 11.9855C1.96889 11.9498 1.99773 11.9052 2.02656 11.8606L2.08422 11.7446C2.12266 11.6999 2.1611 11.6553 2.18993 11.6018C2.21876 11.5572 2.70888 10.9057 2.74733 10.8611C2.89148 10.9236 2.96836 10.9771 2.97797 11.0217C2.98758 11.0664 2.49746 11.7267 2.39175 11.7981L2.30526 11.8784C2.27643 11.8963 2.26681 11.923 2.2572 11.9587C2.22837 12.039 2.18993 12.1104 2.12266 12.1729C2.065 12.2354 2.00734 12.2978 1.93045 12.3782C1.90162 12.4049 1.89201 12.4317 1.8824 12.4674C1.86318 12.5031 1.83435 12.5388 1.79591 12.5656C1.57488 12.8957 1.33462 13.217 1.06553 13.5115C1.04631 13.5382 1.02709 13.5739 1.02709 13.6096C1.02709 13.6453 1.00787 13.681 0.988651 13.7078C0.96943 13.7256 0.959821 13.7435 0.959821 13.7613C0.959821 13.7792 0.950209 13.806 0.930989 13.8149C0.806055 13.9398 0.719563 14.1004 0.690732 14.27C0.652291 14.3949 0.604242 14.5109 0.52736 14.618C0.450478 14.7251 0.392816 14.8411 0.335155 14.9661C0.306324 15.0821 0.277491 15.1981 0.24866 15.3141C0.219829 15.439 0.229441 15.564 0.267882 15.6889C0.287102 15.6621 0.306323 15.6353 0.325544 15.6086C0.344764 15.5818 0.363985 15.555 0.373595 15.5283C0.421646 15.4301 0.469697 15.3409 0.508138 15.2605C0.546579 15.1802 0.585021 15.091 0.613851 15.0018C0.719564 14.7162 0.844497 14.4396 0.998261 14.1718C1.14242 13.913 1.3154 13.6632 1.51721 13.4312C1.56527 13.3598 1.61332 13.2795 1.65176 13.2081C1.6902 13.1278 1.72864 13.0564 1.77669 12.985C1.79591 12.9671 1.81513 12.9404 1.83435 12.9225C1.85357 12.8957 1.8824 12.86 1.90162 12.8333C1.93046 12.8511 2.27642 12.4942 2.29565 12.512C2.31487 12.5299 2.03617 12.9404 2.08422 12.9582C1.99773 13.0921 1.90162 13.2259 1.80552 13.3508C1.69981 13.4847 1.94967 13.5026 2.07461 13.3598C2.19954 13.217 2.28603 13.0474 2.32447 12.86C2.33408 12.8154 2.35331 12.7797 2.38214 12.744C2.57434 12.6191 2.72811 12.4674 2.86265 12.2889C2.98758 12.1194 3.13174 11.9498 3.2855 11.7892C3.33355 11.7535 3.37199 11.7089 3.41043 11.6643C3.44888 11.6107 3.48732 11.5661 3.53537 11.5215C3.47771 11.5036 3.43926 11.4769 3.43926 11.4412C3.43926 11.4055 3.43926 11.3698 3.43926 11.3341C3.44887 11.2984 3.44888 11.2627 3.45849 11.2181C3.4681 11.1734 3.3816 11.2627 3.33355 11.2359C3.2855 11.2538 3.30472 11.1556 3.26628 11.1824C3.22784 11.2091 3.1894 11.227 3.15096 11.2448C3.14135 11.2448 3.13174 11.2359 3.12213 11.227L3.30472 10.9503C3.36238 10.8611 3.42965 10.7719 3.48732 10.6826H3.54498C3.55459 10.7183 3.5642 10.754 3.5642 10.7897C3.5642 10.8254 3.63147 10.754 3.64108 10.8076C3.70835 10.7986 3.71796 10.879 3.76601 10.8433C3.81406 10.8076 3.85251 10.7629 3.89095 10.7183C3.92939 10.6737 3.96783 10.6202 4.00627 10.5666C4.04471 10.5131 4.10237 10.4774 4.16003 10.4506C4.17925 10.5309 4.15042 10.6112 4.09276 10.6648C4.0351 10.7005 3.98705 10.7451 3.94861 10.7897C3.91978 10.8343 3.88133 10.8879 3.8525 10.9414C3.82367 10.995 3.77562 11.0574 3.73718 11.111C3.82368 11.1288 3.87172 11.1288 3.90056 11.1021C3.92939 11.0753 3.95822 11.0485 3.98705 11.0128C4.05432 10.9147 4.14081 10.8254 4.22731 10.7451C4.3138 10.6648 4.40029 10.5755 4.47717 10.4863C4.506 10.4595 4.53483 10.4417 4.57327 10.4328C4.61171 10.4238 4.65016 10.406 4.67899 10.3881C4.62132 10.2989 4.46756 10.2989 4.4099 10.2097C4.43873 10.2007 4.56366 10.1026 4.59249 10.0937C4.61171 10.0847 4.64055 10.0758 4.65977 10.0758C4.71743 10.0669 4.77509 10.0669 4.83275 10.0669C4.90002 10.0758 4.96729 10.0669 5.03457 10.058C5.14989 10.0312 5.23638 9.94196 5.24599 9.83487C5.20755 9.81702 5.16911 9.79918 5.12106 9.78133L4.98652 9.72778C5.01535 9.70101 5.05379 9.68317 5.09223 9.67424C5.13067 9.66532 5.16911 9.65639 5.20755 9.63855C5.24599 9.62962 5.27482 9.60285 5.29404 9.57608C5.31326 9.54038 5.32287 9.50469 5.32287 9.46007C5.38054 9.46007 5.42859 9.46899 5.48625 9.47792C5.52469 9.49577 5.57274 9.48684 5.62079 9.46899C5.65923 9.45115 5.69767 9.41545 5.71689 9.37976C5.74573 9.33514 5.78416 9.30837 5.83222 9.28159C5.91871 9.15666 6.01481 9.04958 6.11091 8.94249C6.20702 8.8354 6.30312 8.73724 6.39922 8.63016C6.44727 8.59446 6.4761 8.54984 6.50493 8.4963C6.52415 8.45168 6.50493 8.39814 6.45688 8.33567C6.41844 8.29998 6.38961 8.24643 6.38961 8.19289C6.38 8.13935 6.37039 8.0858 6.35117 8.04119C6.31273 7.95195 6.26468 7.86271 6.19741 7.7824V7.54145C6.14936 7.5236 6.09169 7.53253 6.06286 7.5593C6.03403 7.595 5.99559 7.63069 5.95715 7.66639C5.93793 7.68423 5.9091 7.70208 5.88027 7.71993C5.85144 7.72885 5.82261 7.7467 5.80339 7.77347C5.77456 7.71993 5.74572 7.66639 5.7265 7.60392C5.69767 7.50576 5.73611 7.4076 5.82261 7.35405L6.03403 7.15773C6.11091 7.10419 6.13974 7.01495 6.11091 6.93463C5.99559 6.55983 5.88988 6.18503 5.79378 5.81916C5.69767 5.45328 5.58235 5.08741 5.47664 4.73045C5.41898 4.49844 5.34209 4.25749 5.2556 4.0344C5.16911 3.8113 5.09223 3.57928 5.01534 3.34726C4.9769 3.22233 4.93846 3.10632 4.90002 2.99031C4.86158 2.8743 4.82314 2.75829 4.76548 2.63336C4.70782 2.50843 4.66938 2.36565 4.63093 2.23179C4.59249 2.09793 4.52522 1.96407 4.44834 1.83914C4.35224 1.73206 4.36185 1.62497 4.45795 1.50004C4.55405 1.3751 4.67899 1.25909 4.80392 1.32156C4.84236 1.29479 4.8808 1.35726 4.90963 1.33048L4.98652 1.25909C5.0634 1.1877 5.17872 1.15201 5.29404 1.17878C5.36131 1.19663 5.4382 1.20555 5.51508 1.19663C5.58235 1.19663 5.64962 1.1877 5.7265 1.17878C5.81299 1.15201 5.89949 1.16986 5.96676 1.2234C6.01481 1.26802 6.08208 1.33941 6.16857 1.41972C6.18779 1.43757 6.21663 1.45542 6.24546 1.46434C6.44727 1.50004 6.58181 1.58928 6.63948 1.72313C6.69714 1.85699 6.7548 1.99085 6.80285 2.1247C6.87012 2.29426 6.93739 2.46381 6.98545 2.61551C7.0335 2.77614 7.09116 2.93677 7.13921 3.0974V3.15094C7.13921 3.37404 7.17765 3.58821 7.25453 3.80238C7.33142 4.00763 7.39869 4.2218 7.45635 4.42704C7.48518 4.54305 7.51401 4.64122 7.54284 4.73938C7.57167 4.83754 7.59089 4.92678 7.61011 5.02494L7.62933 5.11418C7.63894 5.14095 7.63894 5.16772 7.64855 5.19449C7.67738 5.23911 7.74465 5.24803 7.84076 5.21234C7.92725 5.17664 8.00413 5.14095 8.08101 5.08741C8.10984 5.05171 8.13868 5.01602 8.16751 4.98924C8.19634 4.95355 8.22517 4.92678 8.26361 4.90001C8.44621 4.73045 8.6288 4.56983 8.80178 4.4092C8.98438 4.24857 9.14775 4.07009 9.29191 3.88269C9.36879 3.78453 9.45528 3.68637 9.55138 3.59713C9.64749 3.50789 9.7532 3.41866 9.85891 3.33834L10.7527 2.56197C11.0602 2.30318 11.3677 2.04439 11.6945 1.79452C11.8386 1.66959 11.9828 1.55358 12.1173 1.43757C12.2519 1.32156 12.4056 1.20555 12.5402 1.10739C12.6747 1.0003 12.8285 0.902142 13.0015 0.839676C13.0783 0.812904 13.1552 0.795057 13.2417 0.786133C13.3282 0.786133 13.4051 0.812904 13.4628 0.875371C13.53 0.91999 13.5877 0.928914 13.6357 0.893218C13.6838 0.857523 13.7415 0.857523 13.8279 0.893218V0.982457C13.8279 1.01815 13.9144 1.05385 13.8952 1.09847C13.9529 1.11631 13.9144 1.13416 13.9721 1.15201C14.0298 1.16986 14.0874 1.1877 14.1451 1.20555C14.2027 1.2234 14.2508 1.24125 14.2988 1.26802C14.3373 1.29479 14.3469 1.33941 14.3277 1.40188C14.3277 1.43757 14.3373 1.47327 14.3565 1.50004C14.4334 1.57143 14.4814 1.66067 14.4911 1.75883C14.4718 1.91053 14.4911 2.00869 14.5103 2.10686ZM2.48785 12.0747C2.46863 12.0212 2.46863 11.9677 2.47824 11.923C2.5359 11.8517 2.60317 11.7892 2.67044 11.7356C2.69928 11.8338 2.68967 11.8963 2.64161 11.9409C2.59356 11.9855 2.5359 12.0301 2.48785 12.0747ZM4.28497 9.26375C4.33302 9.25482 4.36185 9.21913 4.37146 9.17451C4.37146 9.12097 4.36185 9.0585 4.35224 9.00496C4.51561 8.81756 4.67899 8.63016 4.84236 8.44276C5.00574 8.25536 5.17872 8.05903 5.3517 7.86271C5.38053 7.81809 5.76494 7.42544 5.79378 7.4076C5.82261 7.38975 5.88027 7.4076 5.95715 7.45221C5.89949 7.50576 5.48625 7.92518 5.42859 7.98764C5.37093 8.05011 5.30365 8.10365 5.24599 8.16612C5.27482 8.18397 5.30365 8.20181 5.32287 8.21966C5.34209 8.23751 5.36132 8.25536 5.38054 8.2732C5.37093 8.36244 5.31326 8.39814 5.21716 8.39814C5.07301 8.38029 5.02496 8.42491 5.08262 8.54092C5.12106 8.58554 5.11145 8.648 5.0634 8.6837C5.0634 8.6837 5.05379 8.69262 5.04418 8.69262C4.99613 8.75509 4.94807 8.81756 4.90002 8.8711C4.85197 8.92464 4.80392 8.96926 4.75587 9.0228C4.73665 9.04065 4.71743 9.04958 4.69821 9.06742C4.67899 9.07635 4.65016 9.09419 4.64055 9.11204C4.49639 9.29052 4.35224 9.46899 4.20808 9.63855L3.7564 10.1651C3.66991 10.2543 3.59303 10.3525 3.51615 10.4328C3.42965 10.522 3.36238 10.6291 3.29511 10.7273C3.23745 10.8343 3.17979 10.8879 3.12213 10.8879C3.06447 10.8879 2.97797 10.8522 2.85304 10.7719C3.05485 10.5042 3.26628 10.2454 3.4777 9.98657C3.68913 9.72778 3.90056 9.46007 4.11198 9.18343C4.20808 9.22805 4.25613 9.25482 4.28497 9.26375ZM3.17018 11.5661C3.19901 11.6375 3.17979 11.7178 3.12213 11.7803C3.06447 11.8338 2.99719 11.8784 2.92992 11.923C2.96836 11.8606 3.0068 11.7981 3.05485 11.7356C3.10291 11.6732 3.12213 11.6196 3.17018 11.5661ZM3.78523 10.4506C3.77562 10.4417 3.76601 10.4328 3.76601 10.4328C3.7564 10.4328 3.74679 10.4238 3.74679 10.4149C3.83329 10.3346 3.91978 10.2632 4.01588 10.2007C3.99666 10.2543 3.96783 10.2989 3.91978 10.3346C3.88134 10.3792 3.8429 10.406 3.78523 10.4506ZM3.83329 9.84379C3.8429 9.82595 3.85251 9.81702 3.87173 9.79917C3.85251 9.78133 3.8429 9.76348 3.8429 9.75456C3.82368 9.7724 3.81406 9.78133 3.80445 9.8081C3.79484 9.82595 3.78523 9.84379 3.76601 9.86164L3.79484 9.88841C3.80446 9.87057 3.82368 9.86164 3.83329 9.84379ZM4.0351 10.1829C4.0351 10.1918 4.0351 10.1918 4.02549 10.2007L4.0351 10.1829ZM4.35224 9.81702C4.3138 9.89734 4.26575 9.96873 4.20808 10.0312L4.04471 10.1829C4.05432 10.1026 4.07354 10.0312 4.12159 9.9598C4.16964 9.87949 4.25614 9.82595 4.35224 9.81702ZM4.41951 9.68317C4.45795 9.64747 4.49639 9.61177 4.52522 9.57608C4.53483 9.57608 4.55405 9.59393 4.57327 9.6207C4.53483 9.64747 4.49639 9.69209 4.46756 9.73671L4.41951 9.68317ZM4.69821 9.48684C4.67899 9.3976 4.67899 9.35298 4.6886 9.33514C4.73665 9.29944 4.7847 9.26375 4.85197 9.2459C4.83275 9.29052 4.80392 9.32621 4.77509 9.36191C4.74626 9.3976 4.71743 9.44222 4.69821 9.48684ZM4.87119 9.2459L4.85197 9.22805H4.87119V9.2459ZM4.86158 9.2459V9.22805L4.8808 9.2459H4.86158ZM4.87119 9.22805C4.87119 9.16558 4.89041 9.10312 4.91924 9.04065C4.96729 8.98711 5.04418 8.95141 5.12106 8.95141L4.87119 9.22805ZM5.2556 8.85325C5.23638 8.78186 5.24599 8.71047 5.27482 8.648C5.3517 8.57661 5.4382 8.50522 5.52469 8.44276L5.55352 8.46953C5.50547 8.52307 5.45742 8.58554 5.40937 8.648C5.36131 8.71047 5.31326 8.77294 5.2556 8.85325ZM5.60157 8.82648C5.66884 8.8354 5.71689 8.89787 5.70728 8.96034C5.70728 8.96926 5.69767 8.97818 5.69767 8.99603C5.64001 8.98711 5.60157 8.96926 5.60157 8.94249C5.59196 8.89787 5.59196 8.86218 5.60157 8.82648ZM5.93793 8.51415C5.95715 8.62123 5.95715 8.62123 5.9091 8.648C5.86105 8.67478 5.80339 8.69262 5.75534 8.71047C5.78417 8.67478 5.813 8.63016 5.83222 8.59446C5.87066 8.54984 5.89949 8.56769 5.93793 8.51415ZM5.78416 8.32675C5.75533 8.25536 5.75533 8.20181 5.79378 8.17504C5.84183 8.14827 5.89949 8.13935 5.96676 8.13935C5.92832 8.1572 5.94754 8.20181 5.91871 8.22859C5.88988 8.25536 5.82261 8.29105 5.78416 8.32675ZM8.07141 10.9147C8.20595 10.9503 8.23478 10.6826 8.22517 10.6202C8.21556 10.5577 8.19634 10.4863 8.17712 10.4238C8.1579 10.3703 8.14829 10.3078 8.13868 10.2454C8.11946 10.1204 8.10024 9.9955 8.07141 9.87057C8.05219 9.8081 8.00413 9.75456 7.94647 9.71886C7.92725 9.70101 7.91764 9.68317 7.91764 9.65639C7.91764 9.62962 7.83115 9.38868 7.82154 9.28159C7.80232 9.2459 7.7831 9.2102 7.77349 9.16558C7.75427 9.12989 7.73505 9.09419 7.71583 9.04958C7.6966 8.99603 7.67738 8.93357 7.66777 8.8711C7.65816 8.80863 7.62933 8.74617 7.61011 8.6837C7.58128 8.6837 7.55245 8.6837 7.51401 8.70155C7.46596 8.81756 7.44674 8.95141 7.45635 9.07635C7.46596 9.20128 7.49479 9.31729 7.55245 9.4333C7.59089 9.54038 7.62933 9.63855 7.66777 9.73671C7.70622 9.84379 7.73505 9.95088 7.75427 10.058C7.77349 10.1204 7.81193 10.1829 7.85998 10.2454C8.01374 10.3257 8.08102 10.4685 8.06179 10.6737V10.7986C8.05218 10.8254 8.0618 10.87 8.07141 10.9147ZM9.51294 4.95355C9.66671 4.83754 9.82047 4.71261 9.95501 4.56983C9.9454 4.49844 9.91657 4.43597 9.86852 4.38243C9.67632 4.50736 9.50333 4.65014 9.33035 4.80184C9.20541 4.90893 9.08048 5.01602 8.95555 5.13203L8.59997 5.46221C8.51348 5.5336 8.4462 5.60499 8.39815 5.66745C8.3501 5.72992 8.28283 5.79239 8.20595 5.85485C8.17712 5.89947 8.14829 5.94409 8.12906 5.97979C8.10984 6.01548 8.11945 6.0601 8.17712 6.10472C8.254 6.08687 8.32127 6.0601 8.37893 6.01548C8.43659 5.97086 8.48465 5.91732 8.5327 5.86378L8.821 5.59606C8.84022 5.57822 8.86905 5.56037 8.89788 5.5336C8.92672 5.51575 8.95555 5.48898 8.97477 5.45328C9.03243 5.3462 9.10931 5.24803 9.21502 5.16772C9.30152 5.10525 9.40723 5.02494 9.51294 4.95355ZM8.10985 6.92571C8.18673 6.89894 8.34049 6.69369 8.36932 6.658C8.40776 6.6223 8.42698 6.56876 8.41737 6.51521C8.36932 6.54199 8.32127 6.56876 8.28283 6.60445C8.21556 6.71154 8.16751 6.81862 8.10985 6.92571ZM8.37893 11.6107C8.40776 11.5482 8.40776 11.4947 8.37893 11.459C8.3501 11.4233 8.31166 11.3965 8.27322 11.3698C8.26361 11.4144 8.254 11.459 8.254 11.5125C8.254 11.5572 8.29244 11.5929 8.37893 11.6107ZM9.1958 13.913C9.07087 13.6543 8.95555 13.4044 8.83061 13.1456C8.70568 12.8868 8.54231 12.6459 8.34049 12.4406C8.37893 12.5745 8.30205 12.5299 8.29244 12.6637C8.28283 12.7976 8.61919 13.1991 8.7249 13.3241C8.77295 13.3687 8.81139 13.4312 8.821 13.4936C8.83061 13.5561 8.85944 13.6096 8.9075 13.6632C9.02282 13.8238 9.02282 13.9041 9.10931 14.0826C9.1958 14.2611 9.21502 14.4217 9.35918 14.5466C9.39762 14.5913 9.43606 14.6448 9.46489 14.6983C9.49372 14.7519 9.52255 14.7965 9.56099 14.85C9.60905 14.9036 9.63787 14.9571 9.67632 15.0107C9.71476 15.0731 9.72437 14.8679 9.6667 14.8054C9.60904 14.734 9.56099 14.6537 9.53216 14.5645C9.46489 14.4574 9.40723 14.3503 9.38801 14.2254C9.35918 14.1004 9.29191 13.9934 9.1958 13.913ZM10.6662 3.94516C10.6758 3.92731 10.6854 3.90054 10.6854 3.88269C10.6854 3.85592 10.695 3.82915 10.7046 3.80238C10.5605 3.82023 10.4259 3.88269 10.3202 3.98085C10.2049 4.07009 10.128 4.19503 10.0992 4.32888C10.1568 4.31104 10.2145 4.27534 10.2625 4.23965C10.3298 4.19503 10.4067 4.14148 10.474 4.08794C10.5412 4.0344 10.5989 3.9987 10.6662 3.94516Z" fill="url(#paint0_linear_5554_18963)"/>
    <defs>
    <linearGradient id="paint0_linear_5554_18963" x1="13.4081" y1="3.18859" x2="6.69708" y2="10.4149" gradientUnits="userSpaceOnUse">
    <stop stop-color="#12DEF6"/>
    <stop offset="0.12" stop-color="#18E0FF"/>
    <stop offset="0.29" stop-color="#2BD3FD"/>
    <stop offset="0.49" stop-color="#4FBAFB"/>
    <stop offset="0.72" stop-color="#8892F9"/>
    <stop offset="0.96" stop-color="#E04EF1"/>
    <stop offset="1" stop-color="#EF40EA"/>
    </linearGradient>
    </defs>
    </svg>
    