<svg width="13" height="18" viewBox="0 0 13 18" fill="none" xmlns="http://www.w3.org/2000/svg">
<path fill-rule="evenodd" clip-rule="evenodd" d="M5.596 12.7871C5.77112 12.962 6.0085 13.0602 6.256 13.0602C6.5035 13.0602 6.74088 12.962 6.916 12.7871L11.584 8.11908C11.7487 7.94197 11.8382 7.7079 11.8338 7.46612C11.8294 7.22433 11.7314 6.99368 11.5604 6.82268C11.3894 6.65168 11.1587 6.55368 10.917 6.54927C10.6752 6.54487 10.4411 6.63442 10.264 6.79908L7.19 9.87308V1.54708C7.1941 1.42192 7.17298 1.29721 7.12791 1.18038C7.08284 1.06354 7.01474 0.956961 6.92765 0.866975C6.84056 0.77699 6.73627 0.705436 6.62097 0.656569C6.50567 0.607702 6.38173 0.58252 6.2565 0.58252C6.13127 0.58252 6.00732 0.607702 5.89202 0.656569C5.77673 0.705436 5.67243 0.77699 5.58534 0.866975C5.49826 0.956961 5.43015 1.06354 5.38508 1.18038C5.34001 1.29721 5.3189 1.42192 5.323 1.54708V9.87308L2.249 6.79908C2.16461 6.70304 2.06141 6.62536 1.94578 6.57083C1.83015 6.5163 1.70456 6.48608 1.57678 6.48206C1.449 6.47804 1.32176 6.50029 1.20293 6.54744C1.0841 6.59459 0.976211 6.66563 0.885951 6.75617C0.79569 6.8467 0.724976 6.9548 0.678189 7.07377C0.631401 7.19275 0.609535 7.32006 0.613946 7.44782C0.618356 7.57559 0.648949 7.70109 0.703829 7.81655C0.75871 7.93201 0.83671 8.03498 0.932999 8.11908L5.596 12.7871ZM0.966999 15.5501C0.841839 15.546 0.717133 15.5671 0.600298 15.6122C0.483462 15.6572 0.376883 15.7253 0.286897 15.8124C0.196912 15.8995 0.125358 16.0038 0.0764907 16.1191C0.0276237 16.2344 0.00244141 16.3583 0.00244141 16.4836C0.00244141 16.6088 0.0276237 16.7328 0.0764907 16.8481C0.125358 16.9634 0.196912 17.0676 0.286897 17.1547C0.376883 17.2418 0.483462 17.3099 0.600298 17.355C0.717133 17.4001 0.841839 17.4212 0.966999 17.4171H11.547C11.7893 17.4091 12.019 17.3073 12.1876 17.1331C12.3562 16.9589 12.4504 16.726 12.4504 16.4836C12.4504 16.2412 12.3562 16.0082 12.1876 15.834C12.019 15.6598 11.7893 15.558 11.547 15.5501H0.966999Z" fill="white"/>
</svg>
