<svg width="21" height="20" viewBox="0 0 21 20" fill="none" xmlns="http://www.w3.org/2000/svg">
<path d="M18.9655 5.57214C18.9445 5.49138 18.9059 5.41625 18.8525 5.35214C18.0058 3.73764 16.7337 2.38549 15.1737 1.44209C13.6138 0.498694 11.8255 0 10.0025 0C8.17945 0 6.39116 0.498694 4.83121 1.44209C3.27127 2.38549 1.99911 3.73764 1.15248 5.35214C1.09905 5.41625 1.06046 5.49138 1.03948 5.57214C0.357348 6.94856 0.00244141 8.46397 0.00244141 10.0001C0.00244141 11.5363 0.357348 13.0517 1.03948 14.4281C1.06046 14.5089 1.09905 14.584 1.15248 14.6481C1.99911 16.2627 3.27127 17.6148 4.83121 18.5582C6.39116 19.5016 8.17945 20.0003 10.0025 20.0003C11.8255 20.0003 13.6138 19.5016 15.1737 18.5582C16.7337 17.6148 18.0058 16.2627 18.8525 14.6481C18.9059 14.584 18.9445 14.5089 18.9655 14.4281C19.6476 13.0517 20.0025 11.5363 20.0025 10.0001C20.0025 8.46397 19.6476 6.94856 18.9655 5.57214ZM18.0405 13.7141H14.5235C14.7166 12.6769 14.8263 11.6259 14.8515 10.5711H18.8395C18.7704 11.6593 18.4995 12.7251 18.0405 13.7141ZM1.16548 10.5711H5.15348C5.17869 11.6259 5.28838 12.6769 5.48148 13.7141H1.96448C1.50549 12.7251 1.23455 11.6593 1.16548 10.5711ZM1.96548 6.28514H5.48148C5.28838 7.32237 5.17869 8.3734 5.15348 9.42814H1.16548C1.23467 8.34033 1.50561 7.27487 1.96448 6.28614L1.96548 6.28514ZM10.5745 5.14214V1.26314C11.5505 1.66314 12.4995 3.05114 13.0955 5.14314L10.5745 5.14214ZM13.3745 6.28514C13.5761 7.32134 13.6895 8.37278 13.7135 9.42814H10.5735V6.28614L13.3745 6.28514ZM9.43148 1.26314V5.14314H6.91048C7.50248 3.05114 8.45448 1.66114 9.43148 1.26314ZM9.43148 6.28614V9.42914H6.29648C6.32042 8.37378 6.43382 7.32234 6.63548 6.28614H9.43148ZM6.29648 10.5721H9.43148V13.7151H6.63148C6.43111 12.6785 6.31904 11.6267 6.29648 10.5711V10.5721ZM9.43148 14.8581V18.7381C8.45548 18.3381 7.50648 16.9501 6.91048 14.8581H9.43148ZM10.5745 18.7381V14.8581H13.0955C12.5025 16.9491 11.5505 18.3391 10.5735 18.7371L10.5745 18.7381ZM10.5745 13.7151V10.5711H13.7095C13.6855 11.6265 13.5721 12.6779 13.3705 13.7141L10.5745 13.7151ZM14.8525 9.42914C14.8273 8.3744 14.7176 7.32337 14.5245 6.28614H18.0405C18.4998 7.27511 18.7711 8.34092 18.8405 9.42914H14.8525ZM17.4025 5.14314H14.2675C13.9588 3.84781 13.4008 2.62503 12.6245 1.54314C14.5848 2.15588 16.2729 3.42778 17.4025 5.14314ZM7.37948 1.54314C6.60317 2.62503 6.0451 3.84781 5.73648 5.14314H2.60248C3.73136 3.42628 5.41953 2.15291 7.38048 1.53914L7.37948 1.54314ZM2.60248 14.8571H5.73948C6.0481 16.1525 6.60617 17.3753 7.38248 18.4571C5.42139 17.8448 3.73254 16.5729 2.60248 14.8571ZM12.6255 18.4571C13.4018 17.3753 13.9598 16.1525 14.2685 14.8571H17.4025C16.2736 16.574 14.5854 17.8474 12.6245 18.4611L12.6255 18.4571Z" fill="white"/>
</svg>
